<svg width="100" height="94" viewBox="0 0 100 94" fill="none" xmlns="http://www.w3.org/2000/svg">
<g id="parents/amico">
<g id="Plants">
<g id="plants">
<path id="Vector" d="M95.7137 42.6175C95.069 43.4394 94.1157 44.5471 93.2624 45.9428C92.2042 47.5995 91.553 49.4832 91.362 51.4398L90.4628 50.9203L90.2646 50.8056L89.935 50.6157C89.8578 49.4913 89.7452 47.4365 90.0498 45.9094C90.588 43.2224 91.6832 41.3553 93.3876 40.5271C95.092 39.6989 97.1614 40.7608 95.7137 42.6175Z" fill="#F0F0F0"/>
<path id="Vector_2" d="M94.5726 41.2237C92.6783 42.5171 91.0449 44.8432 90.5797 49.151C90.5192 49.7101 90.4775 50.3005 90.4587 50.9264L90.2605 50.8116C90.2772 50.2984 90.3106 49.8103 90.3565 49.3513C90.7987 44.8369 92.5031 42.4045 94.4557 41.0714C94.4778 41.0603 94.5031 41.0576 94.5271 41.0638C94.551 41.0699 94.5718 41.0845 94.5858 41.1049C94.5998 41.1252 94.606 41.1499 94.6032 41.1745C94.6003 41.199 94.5887 41.2217 94.5705 41.2383L94.5726 41.2237Z" fill="white"/>
<path id="Vector_3" d="M98.1253 46.2177C98.096 46.541 97.8395 46.7935 97.5912 47.0062C97.343 47.219 97.078 47.4485 97.0133 47.7677C96.8861 48.4102 97.6559 48.9922 97.4994 49.6285C97.4577 49.7605 97.3894 49.8825 97.2986 49.9869C97.2078 50.0913 97.0965 50.176 96.9716 50.2356C96.768 50.3391 96.5591 50.4317 96.3458 50.513C96.2424 50.546 96.1372 50.5732 96.0308 50.5944C95.7092 50.6301 95.4081 50.7701 95.1734 50.9929C94.8292 51.3788 95.1734 51.6604 95.0503 52.4678C95.0086 52.764 94.7061 53.4649 93.7548 53.8196L89.9309 50.6153C89.9047 50.1881 90.0303 49.7655 90.2855 49.422C90.3074 49.3927 90.3311 49.3649 90.3565 49.3385C90.4231 49.2669 90.4973 49.2026 90.5776 49.1466C90.9635 48.8692 91.4642 48.7294 91.7437 48.3476C92.0629 47.8949 91.8647 47.2545 92.0588 46.7371C92.2528 46.2198 92.7618 46.0383 93.2562 45.9444H93.2854C93.8028 45.8463 94.3285 46.0487 94.8145 45.863C95.3006 45.6774 95.7554 45.379 96.2623 45.2372C96.5088 45.1603 96.7696 45.1406 97.0248 45.1797C97.28 45.2187 97.5229 45.3154 97.7351 45.4625C97.8571 45.5467 97.9565 45.6596 98.0246 45.7913C98.0926 45.923 98.1272 46.0695 98.1253 46.2177Z" fill="#E0E0E0"/>
<path id="Vector_4" d="M97.028 45.9756C96.3687 46.132 94.462 46.9811 93.1936 48.7147C93.7176 48.53 94.2741 48.4553 94.8283 48.4951C95.3824 48.5349 95.9224 48.6885 96.4146 48.9463C96.423 48.9514 96.4302 48.9581 96.4359 48.966C96.4416 48.974 96.4456 48.983 96.4477 48.9925C96.4499 49.002 96.4501 49.0119 96.4483 49.0215C96.4466 49.0311 96.4429 49.0403 96.4376 49.0485C96.4315 49.0586 96.423 49.0669 96.4127 49.0728C96.4025 49.0786 96.391 49.0818 96.3792 49.0819C96.3656 49.0859 96.3511 49.0859 96.3375 49.0819C95.8333 48.8183 95.2775 48.6683 94.7092 48.6424C94.1408 48.6164 93.5737 48.7152 93.0476 48.9317C92.5136 49.7244 92.0504 51.1346 91.9524 52.2883L91.8147 52.209C91.9232 51.0533 92.3946 49.6409 92.9308 48.8461C92.9353 48.8342 92.9424 48.8235 92.9516 48.8148C94.2451 46.9269 96.2895 46.009 96.9946 45.8442C97.0039 45.8417 97.0136 45.8411 97.0232 45.8426C97.0327 45.844 97.0419 45.8473 97.0501 45.8524C97.0583 45.8575 97.0654 45.8642 97.0709 45.8721C97.0764 45.88 97.0803 45.889 97.0822 45.8984C97.0838 45.9156 97.0792 45.9328 97.0692 45.9469C97.0593 45.9611 97.0447 45.9712 97.028 45.9756Z" fill="white"/>
</g>
<g id="plants_2">
<path id="Vector_5" d="M10.9287 50.4473L10.2758 50.8228L10.1172 50.9146L9.90862 51.0398L9.33702 51.3694L9.20559 51.4445C9.07834 50.802 8.70283 49.9842 8.20842 49.1498C7.57205 48.0831 6.86829 47.0581 6.10141 46.081C5.54233 45.3592 5.02079 44.7417 4.64111 44.3349C3.36439 42.9435 3.56049 41.1723 4.89771 41.1285C6.91501 41.0618 9.01575 43.1229 9.96286 45.3864C11.0164 47.8856 10.887 48.7742 10.9287 50.4473Z" fill="#E0E0E0"/>
<path id="Vector_6" d="M10.2757 50.823L10.1171 50.9148C9.55389 46.6048 6.93161 43.1648 4.83295 42.153C4.82286 42.1483 4.8138 42.1416 4.80633 42.1334C4.79885 42.1251 4.79309 42.1155 4.7894 42.105C4.78571 42.0945 4.78415 42.0834 4.78482 42.0723C4.78549 42.0612 4.78838 42.0503 4.79331 42.0403C4.79802 42.03 4.80474 42.0207 4.81309 42.013C4.82144 42.0052 4.83124 41.9993 4.84192 41.9954C4.85261 41.9915 4.86396 41.9898 4.87531 41.9903C4.88666 41.9909 4.89779 41.9937 4.90805 41.9986C7.02757 43.0208 9.68531 46.4838 10.2757 50.823Z" fill="white"/>
<path id="Vector_7" d="M9.90024 51.0398L9.32864 51.3694L9.19721 51.4445L9.17635 51.4571L8.60474 51.7867C8.37735 51.3235 7.9789 50.8083 7.09438 50.0468C5.7655 48.9078 4.00271 48.2632 3.66476 47.4496C3.26005 46.4733 3.91301 45.6638 5.38374 45.8954C5.62237 45.9331 5.85751 45.9903 6.08677 46.0665C7.60339 46.5692 9.28691 47.9982 9.90024 51.0398Z" fill="#F0F0F0"/>
<path id="Vector_8" d="M9.32868 51.3702L9.19725 51.4453L9.17639 51.4578C8.17504 48.4517 5.96581 47.1687 4.86433 46.9059C4.85334 46.9032 4.84299 46.8983 4.83388 46.8916C4.82477 46.8849 4.81708 46.8765 4.81126 46.8668C4.80544 46.8571 4.8016 46.8463 4.79997 46.8351C4.79833 46.8239 4.79894 46.8125 4.80174 46.8015C4.80419 46.7906 4.8088 46.7803 4.8153 46.7712C4.8218 46.7621 4.83007 46.7544 4.8396 46.7486C4.84914 46.7428 4.85975 46.7389 4.87081 46.7373C4.88186 46.7356 4.89314 46.7362 4.90397 46.739C5.76554 46.9476 7.11528 47.6548 8.19381 49.1359C8.6847 49.8179 9.06748 50.5715 9.32868 51.3702Z" fill="white"/>
</g>
</g>
<g id="Trees">
<g id="Tree">
<g id="tree">
<path id="Vector_9" d="M9.29862 23.8646C9.60837 23.8327 9.9208 23.8891 10.1998 24.0273C10.7422 24.2901 11.1908 24.7053 11.6727 25.0703C12.1546 25.4354 12.7011 25.7567 13.304 25.7755C13.9069 25.7942 14.5557 25.4208 14.6642 24.8284C14.6716 24.7244 14.6977 24.6226 14.7414 24.5279C14.8008 24.4529 14.883 24.3993 14.9756 24.3752C15.0682 24.3512 15.1661 24.3579 15.2546 24.3944C15.4283 24.4733 15.5939 24.569 15.749 24.6802C16.3581 25.0411 17.1217 24.9598 17.8205 24.8576C18.4026 24.772 19.1369 24.5154 19.1348 23.9271C19.1348 23.5433 18.7989 23.2617 18.534 22.9821C18.269 22.7026 18.0563 22.2561 18.2982 21.9599C18.387 21.8585 18.5039 21.7859 18.6341 21.7513C19.3622 21.5135 20.253 21.8285 20.8663 21.3737C21.0834 21.1894 21.2331 20.938 21.2916 20.6593C21.3502 20.3805 21.3143 20.0902 21.1896 19.8341C21.0572 19.5822 20.8713 19.3623 20.645 19.1897C20.4187 19.0171 20.1575 18.896 19.8795 18.8349C19.3914 18.7118 18.7697 18.6534 18.5882 18.184C18.4276 17.7668 18.7489 17.3266 19.1098 17.0721C19.4707 16.8176 19.9088 16.6423 20.1528 16.2793C20.278 16.0863 20.3476 15.8624 20.3538 15.6324C20.3601 15.4024 20.3028 15.1751 20.1883 14.9755C20.0706 14.7788 19.9118 14.6099 19.7227 14.4803C19.5337 14.3507 19.3189 14.2634 19.0931 14.2245C18.8655 14.2073 18.6414 14.1582 18.4276 14.0785C18.219 13.9741 18.0709 13.7176 18.1814 13.5173C18.2461 13.3984 18.39 13.3358 18.4651 13.2231C18.6195 13.0145 18.486 12.687 18.269 12.5326C18.037 12.4011 17.7867 12.3047 17.5264 12.2468C16.9986 12.0716 16.4833 11.5605 16.6418 11.0264C16.8004 10.4924 17.5639 10.29 17.7871 9.75597C17.9958 9.2845 17.6703 8.73376 17.2489 8.44587C16.8275 8.15798 16.3102 8.02864 15.847 7.82003C15.3839 7.61141 14.9354 7.21505 14.8978 6.70394C14.8603 6.19284 15.2525 5.74014 15.5717 5.32291C15.8908 4.90569 16.1641 4.32574 15.8846 3.88139C15.605 3.43704 15.0251 3.42035 14.5432 3.27432C14.2509 3.17919 13.9818 3.02359 13.7536 2.81764C13.5254 2.61169 13.3431 2.36001 13.2185 2.07896C13.0891 1.78273 13.0286 1.45312 12.8743 1.17566C12.3986 0.295309 11.2054 -0.0906284 10.2708 0.017851C9.7847 0.0741769 9.62198 0.26193 9.38624 0.618661C9.25064 0.827275 9.10879 0.937841 9.0608 1.22781C8.99196 1.64504 9.21518 2.19578 8.81464 2.52122C8.20549 3.01355 7.2709 2.35016 7.30427 3.45373C7.30554 3.91977 7.37584 4.38306 7.51289 4.8285C7.67978 5.29162 8.01148 5.49398 7.7361 6.01343C7.37729 6.68517 7.14364 6.68099 6.42392 6.68099C5.90447 6.68099 5.47055 6.65179 5.08879 7.04607C4.41914 7.73867 4.81759 8.3666 5.41214 8.90065C6.09014 9.50772 5.73132 9.77474 5.64162 10.5696C5.59989 10.9492 5.68543 11.0661 5.34747 11.3164C4.70702 11.792 4.34821 11.6314 4.5297 12.5681C4.69451 13.4172 4.44 13.1272 3.69525 13.4443C3.04228 13.7238 2.61045 14.4289 2.08057 14.867C1.74053 15.1487 1.22108 15.3677 1.18979 15.8621C1.12929 16.8113 2.30796 16.6027 2.8587 16.8301C3.7766 17.1993 3.50332 18.4009 2.78777 18.8495C2.0305 19.3272 0.926934 19.5024 0.866435 20.5872C0.818454 21.4217 1.28366 21.6053 1.93871 21.8848C2.45399 22.1059 2.38932 22.1706 2.38723 22.786C2.38723 24.0377 2.80446 24.3798 4.02903 24.1775C4.3649 24.1232 4.876 23.9814 5.20979 24.0815C5.67917 24.2213 5.52062 24.3381 5.53314 24.7282C5.56652 25.7317 6.73476 25.4479 7.22917 25.0203C7.81121 24.5113 8.52675 23.9376 9.29862 23.8646Z" fill="#C02FD8"/>
<path id="Vector_10" opacity="0.1" d="M9.29862 23.8646C9.60837 23.8327 9.9208 23.8891 10.1998 24.0273C10.7422 24.2901 11.1908 24.7053 11.6727 25.0703C12.1546 25.4354 12.7011 25.7567 13.304 25.7755C13.9069 25.7942 14.5557 25.4208 14.6642 24.8284C14.6716 24.7244 14.6977 24.6226 14.7414 24.5279C14.8008 24.4529 14.883 24.3993 14.9756 24.3752C15.0682 24.3512 15.1661 24.3579 15.2546 24.3944C15.4283 24.4733 15.5939 24.569 15.749 24.6802C16.3581 25.0411 17.1217 24.9598 17.8205 24.8576C18.4026 24.772 19.1369 24.5154 19.1348 23.9271C19.1348 23.5433 18.7989 23.2617 18.534 22.9821C18.269 22.7026 18.0563 22.2561 18.2982 21.9599C18.387 21.8585 18.5039 21.7859 18.6341 21.7513C19.3622 21.5135 20.253 21.8285 20.8663 21.3737C21.0834 21.1894 21.2331 20.938 21.2916 20.6593C21.3502 20.3805 21.3143 20.0902 21.1896 19.8341C21.0572 19.5822 20.8713 19.3623 20.645 19.1897C20.4187 19.0171 20.1575 18.896 19.8795 18.8349C19.3914 18.7118 18.7697 18.6534 18.5882 18.184C18.4276 17.7668 18.7489 17.3266 19.1098 17.0721C19.4707 16.8176 19.9088 16.6423 20.1528 16.2793C20.278 16.0863 20.3476 15.8624 20.3538 15.6324C20.3601 15.4024 20.3028 15.1751 20.1883 14.9755C20.0706 14.7788 19.9118 14.6099 19.7227 14.4803C19.5337 14.3507 19.3189 14.2634 19.0931 14.2245C18.8655 14.2073 18.6414 14.1582 18.4276 14.0785C18.219 13.9741 18.0709 13.7176 18.1814 13.5173C18.2461 13.3984 18.39 13.3358 18.4651 13.2231C18.6195 13.0145 18.486 12.687 18.269 12.5326C18.037 12.4011 17.7867 12.3047 17.5264 12.2468C16.9986 12.0716 16.4833 11.5605 16.6418 11.0264C16.8004 10.4924 17.5639 10.29 17.7871 9.75597C17.9958 9.2845 17.6703 8.73376 17.2489 8.44587C16.8275 8.15798 16.3102 8.02864 15.847 7.82003C15.3839 7.61141 14.9354 7.21505 14.8978 6.70394C14.8603 6.19284 15.2525 5.74014 15.5717 5.32291C15.8908 4.90569 16.1641 4.32574 15.8846 3.88139C15.605 3.43704 15.0251 3.42035 14.5432 3.27432C14.2509 3.17919 13.9818 3.02359 13.7536 2.81764C13.5254 2.61169 13.3431 2.36001 13.2185 2.07896C13.0891 1.78273 13.0286 1.45312 12.8743 1.17566C12.3986 0.295309 11.2054 -0.0906284 10.2708 0.017851C9.7847 0.0741769 9.62198 0.26193 9.38624 0.618661C9.25064 0.827275 9.10879 0.937841 9.0608 1.22781C8.99196 1.64504 9.21518 2.19578 8.81464 2.52122C8.20549 3.01355 7.2709 2.35016 7.30427 3.45373C7.30554 3.91977 7.37584 4.38306 7.51289 4.8285C7.67978 5.29162 8.01148 5.49398 7.7361 6.01343C7.37729 6.68517 7.14364 6.68099 6.42392 6.68099C5.90447 6.68099 5.47055 6.65179 5.08879 7.04607C4.41914 7.73867 4.81759 8.3666 5.41214 8.90065C6.09014 9.50772 5.73132 9.77474 5.64162 10.5696C5.59989 10.9492 5.68543 11.0661 5.34747 11.3164C4.70702 11.792 4.34821 11.6314 4.5297 12.5681C4.69451 13.4172 4.44 13.1272 3.69525 13.4443C3.04228 13.7238 2.61045 14.4289 2.08057 14.867C1.74053 15.1487 1.22108 15.3677 1.18979 15.8621C1.12929 16.8113 2.30796 16.6027 2.8587 16.8301C3.7766 17.1993 3.50332 18.4009 2.78777 18.8495C2.0305 19.3272 0.926934 19.5024 0.866435 20.5872C0.818454 21.4217 1.28366 21.6053 1.93871 21.8848C2.45399 22.1059 2.38932 22.1706 2.38723 22.786C2.38723 24.0377 2.80446 24.3798 4.02903 24.1775C4.3649 24.1232 4.876 23.9814 5.20979 24.0815C5.67917 24.2213 5.52062 24.3381 5.53314 24.7282C5.56652 25.7317 6.73476 25.4479 7.22917 25.0203C7.81121 24.5113 8.52675 23.9376 9.29862 23.8646Z" fill="white"/>
<path id="Vector_11" opacity="0.15" d="M18.6341 21.749C19.1931 21.5654 19.8461 21.7093 20.3989 21.58C20.0737 21.5031 19.7432 21.4508 19.4101 21.4235C18.9243 21.4014 18.4411 21.5064 18.0082 21.7281C17.82 21.7989 17.6507 21.9125 17.5138 22.0598C17.4617 22.1566 17.436 22.2654 17.4393 22.3752C17.4426 22.4851 17.4748 22.5922 17.5326 22.6856C17.6265 22.8943 17.7704 23.2426 17.5451 23.4262C17.3198 23.6098 16.8629 23.5597 16.5855 23.4617C16.2412 23.327 15.9061 23.1702 15.582 22.9923C15.2678 22.8163 14.9347 22.6763 14.589 22.5751C14.3408 22.5146 13.9048 22.4833 13.7546 22.7524C13.6517 22.9137 13.5934 23.0994 13.5856 23.2906C13.6137 23.4325 13.6137 23.5785 13.5856 23.7204C13.5531 23.8687 13.4808 24.0054 13.3764 24.1157C13.272 24.226 13.1395 24.3057 12.9931 24.3462C12.6093 24.4317 12.2233 24.1751 11.9855 23.8601C11.7477 23.5451 11.6017 23.1696 11.3597 22.8588C11.0256 22.4509 10.5516 22.1822 10.0301 22.1051C9.50857 22.0279 8.97703 22.1479 8.53921 22.4416C8.18248 22.7002 7.73396 23.0924 7.37515 22.8338C7.01633 22.5751 7.22494 21.8011 6.80146 21.5821C6.51983 21.4402 6.12346 21.6634 5.88773 21.4548C5.79942 21.3589 5.74327 21.2379 5.72709 21.1085C5.55811 20.4013 5.41209 19.5815 5.85852 19.0057C6.25489 18.4925 7.0956 18.1712 7.0059 17.5454C6.92871 16.9967 6.22985 16.8319 5.67911 16.7673C5.12837 16.7026 4.42743 16.4439 4.4608 15.889C4.49418 15.3341 5.22433 15.0837 5.33281 14.5518C5.37871 14.3244 5.30152 14.0699 5.40583 13.8633C5.56229 13.5504 6.01081 13.5379 6.27158 13.3063C6.74304 12.8891 6.37797 12.1089 6.51148 11.4956C6.60536 11.0616 6.95583 10.7195 7.07265 10.2898C7.3063 9.43237 6.52609 8.62086 5.7104 8.2683C5.37986 8.16129 5.06111 8.02079 4.75912 7.84899L4.72992 7.82812C4.75078 8.21615 5.03867 8.57496 5.39957 8.9004C6.07756 9.50747 5.71875 9.7745 5.62904 10.5693C5.58732 10.949 5.67285 11.0658 5.3349 11.3162C4.69445 11.7918 4.33563 11.6312 4.51713 12.5678C4.68193 13.4169 4.42743 13.1269 3.68267 13.444C3.02971 13.7236 2.59788 14.4287 2.068 14.8668C1.72796 15.1484 1.20851 15.3674 1.17721 15.8619C1.11672 16.8111 2.29539 16.6024 2.84613 16.8298C3.76403 17.1991 3.49075 18.4007 2.7752 18.8492C2.01793 19.3269 0.91436 19.5022 0.853862 20.587C0.805881 21.4214 1.27109 21.605 1.92614 21.8846C2.44142 22.1057 2.37675 22.1704 2.37466 22.7858C2.37466 24.0375 2.79189 24.3796 4.01646 24.1772C4.35232 24.123 4.86343 23.9811 5.19721 24.0813C5.66659 24.221 5.50805 24.3379 5.52056 24.728C5.55394 25.7314 6.72218 25.4477 7.2166 25.02C7.78612 24.5235 8.50166 23.9498 9.27354 23.8747C9.58328 23.8429 9.89571 23.8993 10.1747 24.0375C10.7171 24.3003 11.1657 24.7155 11.6476 25.0805C12.1295 25.4456 12.676 25.7669 13.2789 25.7856C13.8818 25.8044 14.5306 25.431 14.6391 24.8385C14.6465 24.7346 14.6726 24.6328 14.7163 24.5381C14.7757 24.4631 14.8579 24.4095 14.9505 24.3854C15.0431 24.3613 15.141 24.3681 15.2295 24.4046C15.4032 24.4835 15.5688 24.5792 15.7239 24.6904C16.333 25.0513 17.0966 24.97 17.7954 24.8677C18.3775 24.7822 19.1118 24.5256 19.1097 23.9373C19.1097 23.5535 18.7738 23.2718 18.5089 22.9923C18.244 22.7128 18.0312 22.2663 18.2732 21.9701C18.3668 21.8598 18.4932 21.7823 18.6341 21.749Z" fill="black"/>
<path id="Vector_12" d="M6.88489 12.2946L10.6545 19.7713V16.3292L11.0384 7.38379L11.5954 16.3229V18.649L15.7406 11.3996L11.5954 20.2928V53.304C11.5916 53.3453 11.5768 53.3849 11.5526 53.4186C11.5284 53.4524 11.4956 53.479 11.4577 53.4959C11.3546 53.5483 11.2406 53.5756 11.125 53.5756C11.0093 53.5756 10.8953 53.5483 10.7922 53.4959C10.7543 53.479 10.7216 53.4524 10.6974 53.4186C10.6732 53.3849 10.6584 53.3453 10.6545 53.304V21.678L6.88489 12.2946Z" fill="#37474F"/>
</g>
</g>
<g id="tree_2">
<g id="tree_3">
<path id="Vector_13" d="M91.573 23.8646C91.2626 23.8333 90.9497 23.8897 90.6697 24.0273C90.1294 24.2901 89.6788 24.7053 89.199 25.0703C88.7192 25.4354 88.1684 25.7567 87.5676 25.7755C86.9668 25.7942 86.3159 25.4208 86.2074 24.8284C86.2 24.7244 86.1739 24.6226 86.1302 24.5279C86.0708 24.4529 85.9886 24.3993 85.896 24.3752C85.8034 24.3512 85.7055 24.3579 85.6171 24.3944C85.4427 24.4733 85.2764 24.5691 85.1206 24.6802C84.5114 25.0411 83.75 24.9598 83.0511 24.8576C82.467 24.772 81.7347 24.5154 81.7368 23.9271C81.7368 23.5433 82.0727 23.2617 82.3356 22.9821C82.5984 22.7026 82.8154 22.2561 82.5734 21.9599C82.4842 21.859 82.3675 21.7865 82.2375 21.7513C81.5094 21.5135 80.6187 21.8285 80.0032 21.3737C79.7867 21.1889 79.6377 20.9374 79.5796 20.6588C79.5214 20.3802 79.5575 20.0901 79.682 19.8341C79.8141 19.582 79.9999 19.3618 80.2262 19.1892C80.4525 19.0166 80.714 18.8956 80.9921 18.8349C81.4802 18.7118 82.1019 18.6534 82.2834 18.184C82.4419 17.7668 82.0101 17.6645 81.6471 17.4121C81.2841 17.1597 80.9629 16.6423 80.7104 16.2793C80.5856 16.0861 80.5164 15.8621 80.5105 15.6321C80.5046 15.4021 80.5623 15.1749 80.6771 14.9755C80.7945 14.7786 80.9532 14.6095 81.1423 14.4798C81.3313 14.3501 81.5463 14.263 81.7723 14.2245C81.9998 14.2071 82.2238 14.1579 82.4378 14.0785C82.6464 13.9741 82.7945 13.7176 82.6839 13.5173C82.6172 13.3984 82.4753 13.3358 82.4002 13.2231C82.2458 13.0145 82.3794 12.687 82.5963 12.5326C82.8283 12.4011 83.0786 12.3047 83.339 12.2468C83.8668 12.0716 84.3821 11.5605 84.2214 11.0264C84.0608 10.4924 83.3014 10.29 83.0761 9.75597C82.878 9.2845 83.193 8.73376 83.6164 8.44587C84.0399 8.15798 84.5552 8.02864 85.0183 7.82003C85.4815 7.61141 85.93 7.21505 85.9675 6.70394C86.0051 6.19284 85.6129 5.74014 85.2916 5.32291C84.9704 4.90569 84.7012 4.32574 84.9808 3.88139C85.2603 3.43704 85.8444 3.42035 86.3263 3.27432C86.6191 3.17956 86.8886 3.02412 87.1172 2.81814C87.3458 2.61217 87.5285 2.36029 87.6531 2.07896C87.7804 1.78273 87.843 1.45312 87.9953 1.17566C88.473 0.295309 89.6642 -0.0906284 90.6009 0.017851C91.0869 0.0741769 91.2496 0.26193 91.4854 0.618661C91.621 0.827275 91.7628 0.937841 91.8087 1.22781C91.8797 1.64504 91.6544 2.19578 92.057 2.52122C92.6661 3.01355 93.6007 2.35016 93.5673 3.45373C93.5661 3.91977 93.4958 4.38306 93.3587 4.8285C93.1918 5.29162 92.8581 5.49398 93.1355 6.01343C93.4943 6.68517 93.728 6.68099 94.4456 6.68099C94.9672 6.68099 95.4011 6.65179 95.7807 7.04607C96.4525 7.73867 96.054 8.3666 95.4574 8.90065C94.7815 9.50772 95.1403 9.77474 95.2279 10.5696C95.2696 10.9492 95.1841 11.0661 95.5242 11.3164C96.1646 11.792 96.5213 11.6314 96.3419 12.5681C96.1771 13.4172 96.4316 13.1272 97.1764 13.4443C97.8293 13.7238 98.2612 14.4289 98.7911 14.867C99.129 15.1487 99.6485 15.3677 99.6818 15.8621C99.7423 16.8113 98.5637 16.6027 98.0025 16.8301C97.0867 17.1993 97.36 18.4009 98.0755 18.8495C98.8328 19.3272 99.9363 19.5024 99.9968 20.5872C100.043 21.4217 99.5692 21.6053 98.9246 21.8848C98.4093 22.1059 98.474 22.1706 98.474 22.786C98.474 24.0377 98.0567 24.3798 96.8322 24.1775C96.4984 24.1232 95.9977 23.9814 95.6514 24.0815C95.1841 24.2213 95.3427 24.3381 95.3281 24.7282C95.2947 25.7317 94.1285 25.4479 93.6341 25.0203C93.0604 24.5113 92.3449 23.9376 91.573 23.8646Z" fill="#C02FD8"/>
<path id="Vector_14" opacity="0.1" d="M91.573 23.8646C91.2626 23.8333 90.9497 23.8897 90.6697 24.0273C90.1294 24.2901 89.6788 24.7053 89.199 25.0703C88.7192 25.4354 88.1684 25.7567 87.5676 25.7755C86.9668 25.7942 86.3159 25.4208 86.2074 24.8284C86.2 24.7244 86.1739 24.6226 86.1302 24.5279C86.0708 24.4529 85.9886 24.3993 85.896 24.3752C85.8034 24.3512 85.7055 24.3579 85.6171 24.3944C85.4427 24.4733 85.2764 24.5691 85.1206 24.6802C84.5114 25.0411 83.75 24.9598 83.0511 24.8576C82.467 24.772 81.7347 24.5154 81.7368 23.9271C81.7368 23.5433 82.0727 23.2617 82.3356 22.9821C82.5984 22.7026 82.8154 22.2561 82.5734 21.9599C82.4842 21.859 82.3675 21.7865 82.2375 21.7513C81.5094 21.5135 80.6187 21.8285 80.0032 21.3737C79.7867 21.1889 79.6377 20.9374 79.5796 20.6588C79.5214 20.3802 79.5575 20.0901 79.682 19.8341C79.8141 19.582 79.9999 19.3618 80.2262 19.1892C80.4525 19.0166 80.714 18.8956 80.9921 18.8349C81.4802 18.7118 82.1019 18.6534 82.2834 18.184C82.4419 17.7668 82.0101 17.6645 81.6471 17.4121C81.2841 17.1597 80.9629 16.6423 80.7104 16.2793C80.5856 16.0861 80.5164 15.8621 80.5105 15.6321C80.5046 15.4021 80.5623 15.1749 80.6771 14.9755C80.7945 14.7786 80.9532 14.6095 81.1423 14.4798C81.3313 14.3501 81.5463 14.263 81.7723 14.2245C81.9998 14.2071 82.2238 14.1579 82.4378 14.0785C82.6464 13.9741 82.7945 13.7176 82.6839 13.5173C82.6172 13.3984 82.4753 13.3358 82.4002 13.2231C82.2458 13.0145 82.3794 12.687 82.5963 12.5326C82.8283 12.4011 83.0786 12.3047 83.339 12.2468C83.8668 12.0716 84.3821 11.5605 84.2214 11.0264C84.0608 10.4924 83.3014 10.29 83.0761 9.75597C82.878 9.2845 83.193 8.73376 83.6164 8.44587C84.0399 8.15798 84.5552 8.02864 85.0183 7.82003C85.4815 7.61141 85.93 7.21505 85.9675 6.70394C86.0051 6.19284 85.6129 5.74014 85.2916 5.32291C84.9704 4.90569 84.7012 4.32574 84.9808 3.88139C85.2603 3.43704 85.8444 3.42035 86.3263 3.27432C86.6191 3.17956 86.8886 3.02412 87.1172 2.81814C87.3458 2.61217 87.5285 2.36029 87.6531 2.07896C87.7804 1.78273 87.843 1.45312 87.9953 1.17566C88.473 0.295309 89.6642 -0.0906284 90.6009 0.017851C91.0869 0.0741769 91.2496 0.26193 91.4854 0.618661C91.621 0.827275 91.7628 0.937841 91.8087 1.22781C91.8797 1.64504 91.6544 2.19578 92.057 2.52122C92.6661 3.01355 93.6007 2.35016 93.5673 3.45373C93.5661 3.91977 93.4958 4.38306 93.3587 4.8285C93.1918 5.29162 92.8581 5.49398 93.1355 6.01343C93.4943 6.68517 93.728 6.68099 94.4456 6.68099C94.9672 6.68099 95.4011 6.65179 95.7807 7.04607C96.4525 7.73867 96.054 8.3666 95.4574 8.90065C94.7815 9.50772 95.1403 9.77474 95.2279 10.5696C95.2696 10.9492 95.1841 11.0661 95.5242 11.3164C96.1646 11.792 96.5213 11.6314 96.3419 12.5681C96.1771 13.4172 96.4316 13.1272 97.1764 13.4443C97.8293 13.7238 98.2612 14.4289 98.7911 14.867C99.129 15.1487 99.6485 15.3677 99.6818 15.8621C99.7423 16.8113 98.5637 16.6027 98.0025 16.8301C97.0867 17.1993 97.36 18.4009 98.0755 18.8495C98.8328 19.3272 99.9363 19.5024 99.9968 20.5872C100.043 21.4217 99.5692 21.6053 98.9246 21.8848C98.4093 22.1059 98.474 22.1706 98.474 22.786C98.474 24.0377 98.0567 24.3798 96.8322 24.1775C96.4984 24.1232 95.9977 23.9814 95.6514 24.0815C95.1841 24.2213 95.3427 24.3381 95.3281 24.7282C95.2947 25.7317 94.1285 25.4479 93.6341 25.0203C93.0604 24.5113 92.3449 23.9376 91.573 23.8646Z" fill="white"/>
<path id="Vector_15" opacity="0.15" d="M82.2375 21.749C81.6784 21.5655 81.0234 21.7094 80.4727 21.5801C80.7978 21.5029 81.1284 21.4506 81.4615 21.4236C81.9467 21.4014 82.4292 21.5064 82.8613 21.7282C83.0502 21.799 83.2201 21.9125 83.3578 22.0599C83.4099 22.1567 83.4356 22.2655 83.4323 22.3753C83.429 22.4852 83.3968 22.5922 83.339 22.6857C83.2451 22.8943 83.1012 23.2427 83.3244 23.4263C83.5476 23.6099 84.0087 23.5598 84.284 23.4618C84.6271 23.3259 84.9609 23.1677 85.2833 22.9882C85.5975 22.8122 85.9307 22.6723 86.2763 22.571C86.5246 22.5105 86.9606 22.4792 87.1108 22.7483C87.2118 22.9105 87.27 23.0957 87.2797 23.2865C87.2527 23.4285 87.2527 23.5743 87.2797 23.7163C87.3122 23.8646 87.3845 24.0013 87.4889 24.1116C87.5933 24.2219 87.7259 24.3016 87.8722 24.3421C88.2581 24.4277 88.642 24.1711 88.8819 23.8561C89.1218 23.541 89.2657 23.1655 89.5077 22.8547C89.8421 22.4472 90.3161 22.1788 90.8374 22.1017C91.3588 22.0246 91.8902 22.1443 92.3282 22.4375C92.687 22.6962 93.1355 23.0883 93.4923 22.8297C93.849 22.571 93.6425 21.797 94.068 21.578C94.3497 21.4361 94.746 21.6593 94.9818 21.4507C95.0701 21.3548 95.1262 21.2338 95.1424 21.1044C95.3114 20.3972 95.4574 19.5774 95.011 19.0016C94.6125 18.4884 93.7718 18.1671 93.8636 17.5413C93.9408 16.9926 94.6376 16.8278 95.1883 16.7632C95.7391 16.6985 96.44 16.4398 96.4087 15.8849C96.3774 15.33 95.6452 15.0796 95.5367 14.5477C95.4908 14.3203 95.568 14.0658 95.4637 13.8593C95.3072 13.5463 94.8587 13.5338 94.5979 13.3023C94.1265 12.885 94.4915 12.1048 94.358 11.4915C94.2641 11.0576 93.9116 10.7154 93.7948 10.2857C93.5611 9.42828 94.3413 8.61677 95.1591 8.26422C95.483 8.1519 95.7947 8.00723 96.0895 7.83238L96.1187 7.81152C96.0979 8.19955 95.81 8.55836 95.447 8.8838C94.7711 9.49087 95.1299 9.7579 95.2175 10.5527C95.2592 10.9324 95.1737 11.0492 95.5138 11.2996C96.1542 11.7752 96.5109 11.6146 96.3315 12.5512C96.1667 13.4003 96.4212 13.1103 97.166 13.4274C97.8189 13.707 98.2508 14.4121 98.7807 14.8502C99.1186 15.1318 99.6381 15.3508 99.6714 15.8453C99.7319 16.7945 98.5533 16.5858 97.9921 16.8132C97.0763 17.1825 97.3496 18.3841 98.0651 18.8326C98.8203 19.3103 99.9259 19.4856 99.9864 20.5704C100.032 21.4048 99.5588 21.5884 98.9142 21.868C98.3989 22.0891 98.4636 22.1538 98.4636 22.7692C98.4636 24.0209 98.0463 24.363 96.8218 24.1606C96.488 24.1064 95.9873 23.9645 95.641 24.0647C95.1737 24.2044 95.3323 24.3213 95.3177 24.7114C95.2843 25.7148 94.1181 25.4311 93.6237 25.0034C93.0542 24.5069 92.3386 23.9332 91.5668 23.8581C91.2564 23.8269 90.9434 23.8833 90.6635 24.0209C90.1232 24.2837 89.6725 24.6989 89.1927 25.0639C88.7129 25.429 88.1622 25.7503 87.5614 25.769C86.9606 25.7878 86.3097 25.4144 86.2012 24.8219C86.1938 24.718 86.1677 24.6162 86.124 24.5215C86.0646 24.4465 85.9824 24.3929 85.8898 24.3688C85.7972 24.3447 85.6993 24.3515 85.6108 24.388C85.4364 24.4669 85.2701 24.5626 85.1143 24.6738C84.5052 25.0347 83.7437 24.9534 83.0449 24.8511C82.4607 24.7656 81.7285 24.509 81.7306 23.9207C81.7306 23.5369 82.0665 23.2552 82.3293 22.9757C82.5922 22.6962 82.8091 22.2497 82.5671 21.9535C82.4791 21.8552 82.3647 21.7842 82.2375 21.749Z" fill="black"/>
<path id="Vector_16" d="M93.9867 12.2946L90.215 19.7713V16.3292L89.8332 4.19824L89.2741 16.3292V18.649L85.9363 13.1374L89.2741 20.297V53.304C89.2779 53.3453 89.2927 53.3849 89.3169 53.4186C89.3411 53.4524 89.3739 53.479 89.4118 53.4959C89.5149 53.5483 89.6289 53.5756 89.7445 53.5756C89.8602 53.5756 89.9742 53.5483 90.0773 53.4959C90.1152 53.479 90.148 53.4524 90.1722 53.4186C90.1964 53.3849 90.2111 53.3453 90.215 53.304V21.678L93.9867 12.2946Z" fill="#37474F"/>
</g>
</g>
</g>
<g id="Floor">
<g id="floor">
<path id="floor_2" d="M49.8192 93.3653C77.3336 93.3653 99.6384 81.228 99.6384 66.2559C99.6384 51.2838 77.3336 39.1465 49.8192 39.1465C22.3048 39.1465 0 51.2838 0 66.2559C0 81.228 22.3048 93.3653 49.8192 93.3653Z" fill="#C02FD8"/>
<path id="floor_3" opacity="0.9" d="M49.8192 93.3653C77.3336 93.3653 99.6384 81.228 99.6384 66.2559C99.6384 51.2838 77.3336 39.1465 49.8192 39.1465C22.3048 39.1465 0 51.2838 0 66.2559C0 81.228 22.3048 93.3653 49.8192 93.3653Z" fill="white"/>
<path id="Vector_17" d="M12.3666 48.3804L78.4556 88.4344C80.7165 87.5746 82.918 86.5662 85.0457 85.4157C104.501 74.8306 104.501 57.67 85.0457 47.0787C65.5903 36.4873 34.0479 36.4915 14.5925 47.0787C13.8185 47.5084 13.08 47.9402 12.3666 48.3804Z" fill="#C02FD8"/>
<path id="Vector_18" opacity="0.4" d="M12.3666 48.3804L78.4556 88.4344C80.7165 87.5746 82.918 86.5662 85.0457 85.4157C104.501 74.8306 104.501 57.67 85.0457 47.0787C65.5903 36.4873 34.0479 36.4915 14.5925 47.0787C13.8185 47.5084 13.08 47.9402 12.3666 48.3804Z" fill="white"/>
<path id="Vector_19" d="M3.31902 67.0547L9.13101 70.5782L7.47044 71.5858L1.65845 68.0623L3.31902 67.0547Z" fill="white"/>
<path id="Vector_20" d="M14.1127 73.5996L19.9247 77.1231L18.2641 78.1286L12.4521 74.6051L14.1127 73.5996Z" fill="white"/>
<path id="Vector_21" d="M24.9064 80.1426L30.7184 83.6661L29.0578 84.6737L23.2458 81.1502L24.9064 80.1426Z" fill="white"/>
<path id="Vector_22" d="M35.7001 86.6855L41.5142 90.207L39.8515 91.2146L34.0396 87.6911L35.7001 86.6855Z" fill="white"/>
<g id="Grass">
<path id="Vector_23" d="M77.8444 88.0729L77.4981 87.8643L77.1038 87.6244C77.1038 87.5702 77.1038 87.5159 77.1038 87.4596C77.1178 86.8748 77.0561 86.2907 76.9203 85.7218C76.8681 85.4882 76.8014 85.2524 76.7263 85.0209C76.7075 84.9604 76.6887 84.902 76.6678 84.8456C76.6282 84.7309 76.5865 84.6162 76.5406 84.5056C76.4278 84.2275 76.2997 83.9559 76.1567 83.692C76.1108 83.6086 76.0629 83.5272 76.0149 83.4479C75.9156 83.2831 75.8077 83.1236 75.6915 82.9702C75.6269 82.8805 75.558 82.7971 75.4829 82.7136C75.3466 82.5561 75.1988 82.409 75.0406 82.2734C76.1922 82.8054 77.0726 84.1656 77.519 85.4944C77.6497 85.8786 77.7454 86.2738 77.8048 86.6752C77.8779 87.1375 77.8912 87.6072 77.8444 88.0729Z" fill="#C02FD8"/>
<path id="Vector_24" opacity="0.15" d="M77.0996 87.621L77.4939 87.8609C77.7922 85.4848 75.9085 82.7603 75.1658 82.3243C75.1241 82.3034 75.0865 82.2805 75.0448 82.2617C75.1998 82.3956 75.3449 82.5406 75.4787 82.6956C75.5496 82.7791 75.6185 82.8625 75.6873 82.9522C75.8035 83.1057 75.9114 83.2651 76.0107 83.43C76.0587 83.5092 76.1066 83.5906 76.1525 83.674C76.2955 83.9379 76.4236 84.2095 76.5364 84.4876C76.5823 84.5982 76.624 84.7129 76.6636 84.8277C76.6845 84.884 76.7033 84.9424 76.7221 85.0029C76.7972 85.2345 76.8639 85.4702 76.9161 85.7039C77.0519 86.2728 77.1136 86.8569 77.0996 87.4416C77.0996 87.4958 77.0996 87.5501 77.0996 87.6043V87.621Z" fill="black"/>
<path id="Vector_25" d="M80.3644 83.7383C78.5349 85.4948 78.441 88.0337 78.4368 88.4279L77.9132 88.1192L77.8443 88.0775L77.498 87.8688C77.5632 87.4607 77.6672 87.0597 77.8089 86.6714C78.345 85.1652 79.3651 83.9865 80.3644 83.7383Z" fill="#C02FD8"/>
<path id="Vector_26" opacity="0.15" d="M80.3644 83.7383C79.338 84.1054 78.053 86.0873 77.9132 88.1192L77.8443 88.0775L77.498 87.8688C77.5632 87.4607 77.6672 87.0597 77.8089 86.6714C78.345 85.1652 79.3651 83.9865 80.3644 83.7383Z" fill="black"/>
</g>
</g>
</g>
<g id="Shadows">
<g id="shadows" opacity="0.1">
<path id="Shadow" d="M67.6473 74.7335C75.2008 74.7335 81.3241 71.1983 81.3241 66.8375C81.3241 62.4766 75.2008 58.9414 67.6473 58.9414C60.0939 58.9414 53.9706 62.4766 53.9706 66.8375C53.9706 71.1983 60.0939 74.7335 67.6473 74.7335Z" fill="black"/>
<path id="shadow" d="M31.8262 79.951C39.1365 79.951 45.0628 76.5298 45.0628 72.3095C45.0628 68.0892 39.1365 64.668 31.8262 64.668C24.5158 64.668 18.5896 68.0892 18.5896 72.3095C18.5896 76.5298 24.5158 79.951 31.8262 79.951Z" fill="black"/>
<path id="shadow_2" d="M50.5681 79.1019C56.519 79.1019 61.3431 76.3167 61.3431 72.881C61.3431 69.4453 56.519 66.6602 50.5681 66.6602C44.6173 66.6602 39.7932 69.4453 39.7932 72.881C39.7932 76.3167 44.6173 79.1019 50.5681 79.1019Z" fill="black"/>
</g>
</g>
<g id="speech-bubble">
<g id="speech-bubble_2">
<g id="speech-bubble_3">
<path id="Vector_27" d="M49.5495 22.0525L48.9674 20.9614L49.4347 19.6138V18.7793L48.0057 19.6138V20.4482L48.6211 21.5121C48.6313 21.5283 48.6457 21.5413 48.6629 21.5497L49.5495 22.0525Z" fill="#C02FD8"/>
<path id="Vector_28" opacity="0.2" d="M49.5495 22.0525L48.9674 20.9614L49.4347 19.6138V18.7793L48.0057 19.6138V20.4482L48.6211 21.5121C48.6313 21.5283 48.6457 21.5413 48.6629 21.5497L49.5495 22.0525Z" fill="black"/>
<path id="Vector_29" d="M52.9603 12.2323C52.9518 12.0835 52.9085 11.9388 52.8339 11.8098C52.7593 11.6808 52.6553 11.5711 52.5305 11.4897L52.1801 11.2811C52.0477 11.2132 51.9011 11.1777 51.7524 11.1777C51.6037 11.1777 51.4571 11.2132 51.3247 11.2811L45.9759 14.3748C45.8514 14.4559 45.7478 14.5653 45.6735 14.694C45.5992 14.8226 45.5563 14.967 45.5482 15.1154V21.0004C45.5564 21.149 45.5994 21.2936 45.6737 21.4226C45.748 21.5516 45.8515 21.6614 45.9759 21.7431L46.3243 21.9517C46.457 22.0196 46.6039 22.055 46.753 22.055C46.902 22.055 47.049 22.0196 47.1817 21.9517L48.9007 20.9587L49.514 22.0205C49.5228 22.0359 49.5358 22.0485 49.5516 22.0566C49.5674 22.0648 49.5852 22.0682 49.6028 22.0664C49.6205 22.0646 49.6373 22.0578 49.6511 22.0467C49.665 22.0356 49.6753 22.0207 49.6809 22.0038L50.3276 20.1263L52.5305 18.8579C52.655 18.7768 52.7586 18.6675 52.8329 18.5388C52.9072 18.4101 52.9502 18.2657 52.9582 18.1174L52.9603 12.2323Z" fill="#C02FD8"/>
<path id="Vector_30" opacity="0.2" d="M45.5503 21.0093C45.5585 21.1579 45.6015 21.3025 45.6758 21.4315C45.7501 21.5605 45.8536 21.6702 45.978 21.7519L46.3264 21.9606C46.4472 22.0195 46.5792 22.0524 46.7136 22.057C46.848 22.0617 46.9819 22.0381 47.1066 21.9877C46.898 22.0628 46.7519 21.9501 46.7519 21.706V15.821C46.7576 15.6736 46.8007 15.53 46.8771 15.4038L45.6713 14.707C45.5951 14.8334 45.5521 14.9769 45.5461 15.1243L45.5503 21.0093Z" fill="black"/>
<path id="Vector_31" opacity="0.3" d="M52.9477 12.111C52.8976 11.9295 52.7391 11.8711 52.5305 11.9838L47.1816 15.0796C47.0541 15.157 46.9496 15.2673 46.8791 15.3988L45.6754 14.702C45.7467 14.5718 45.8501 14.4619 45.9758 14.3828L51.3226 11.2891C51.4556 11.2223 51.6024 11.1875 51.7513 11.1875C51.9002 11.1875 52.047 11.2223 52.18 11.2891L52.5305 11.4977C52.638 11.5662 52.7305 11.6559 52.8022 11.7614C52.874 11.8668 52.9235 11.9858 52.9477 12.111Z" fill="white"/>
</g>
<path id="Vector_32" d="M48.0559 17.2805C48.0589 16.9159 48.1348 16.5556 48.2791 16.2207C48.4123 15.8713 48.6479 15.5703 48.955 15.3571C49.4161 15.0859 49.7999 15.6387 49.8625 16.2896C49.9167 15.5698 50.2943 14.5685 50.7554 14.2973C50.8569 14.2219 50.9829 14.1871 51.1088 14.1998C51.2346 14.2126 51.3511 14.2719 51.4355 14.3661C51.6024 14.5946 51.6843 14.8743 51.667 15.1568C51.667 16.2583 51.0099 17.2575 50.455 18.3069L49.8562 19.3228L49.2805 18.9974C48.7276 18.5989 48.0601 18.382 48.0559 17.2805Z" fill="#FAFAFA"/>
</g>
</g>
<g id="Characters">
<g id="characters">
<g id="Character">
<g id="Bottom">
<path id="Vector_33" d="M60.4315 62.0132C60.9864 59.6266 60.9134 55.3041 61.1971 53.145C61.5288 50.6166 63.4335 48.1215 63.4335 48.1215C63.4335 48.1215 62.8577 41.6545 62.7117 38.7631C62.4071 32.7237 63.5002 29.7009 64.2179 28.6891C64.5558 28.2114 64.5663 28.082 64.7436 27.4228C64.9751 26.5612 65.1608 25.7539 65.1608 25.7539L74.538 25.8979C75.3113 27.5275 75.7105 29.3094 75.7063 31.1132C76.6659 34.6388 76.4448 45.8143 76.2695 49.8572C76.1652 52.2792 74.5443 62.9373 74.5088 63.2669C74.4921 63.4088 74.0645 64.02 73.1027 63.8531C72.141 63.6863 71.8844 63.3504 71.8844 63.2482C71.8844 62.8977 71.8406 62.5097 71.8114 62.1592C71.6258 59.879 70.7684 54.9975 70.5055 52.6714C70.3721 51.3964 70.6498 50.112 71.2982 49.0061L69.9109 42.7476C69.492 45.7151 68.7856 48.6348 67.8019 51.4656C66.7171 54.5302 62.962 63.5861 62.962 63.5861C62.6199 64.5395 60.5942 64.0472 60.3397 62.4137L60.4315 62.0132Z" fill="#F28F8F"/>
<path id="Vector_34" d="M60.4316 62.0131C59.9246 61.9234 59.9872 63.682 59.6826 64.7563C59.3551 65.9016 58.7752 66.6714 58.4956 67.6081C58.1764 68.6804 58.2161 69.1602 58.5248 70.149C58.7668 70.9188 60.3857 72.2206 61.218 71.3444C62.0504 70.4682 62.38 69.35 62.4697 68.2423C62.547 67.3113 62.7005 66.3882 62.9287 65.4823C63.1373 64.5728 63.6359 62.979 63.2645 62.8559L63.0559 63.3774C62.7555 63.7425 60.4879 63.2502 60.3439 62.4136L60.4316 62.0131Z" fill="#37474F"/>
<path id="Vector_35" d="M71.3233 63.3184C71.1919 63.8733 71.3421 65.3899 71.3421 65.3899C71.3421 65.3899 71.5862 65.9114 72.4415 66.2536L72.8107 64.1403L71.3233 63.3184Z" fill="#263238"/>
<path id="Vector_36" d="M72.4415 66.2544L74.3211 65.6244L74.7634 63.9492L72.6668 64.961L72.4415 66.2544Z" fill="black"/>
<path id="Vector_37" d="M74.7758 61.4692L74.8488 60.9727C75.1054 61.0958 75.0825 63.1402 76.4426 64.5901C77.4461 65.6582 78.5893 66.2882 79.0399 66.8452C79.6428 67.5921 78.2159 68.8396 76.3467 68.4516C75.4204 68.2617 74.0123 67.6776 73.6347 67.0559C73.2571 66.4343 72.988 65.4183 72.6751 64.9698C72.3622 64.5213 71.4901 64.1583 71.2857 63.6513C71.0604 63.0923 71.244 62.3371 71.4004 61.8176C71.5423 61.3399 71.4568 60.8288 71.6758 60.8184L71.7238 61.2064C71.851 61.4609 72.6 61.7988 73.5429 61.8427C73.9831 61.8531 74.5735 61.8781 74.7758 61.4692Z" fill="#37474F"/>
<path id="Vector_38" d="M75.4977 29.3357C75.4977 29.3357 73.4116 29.9449 69.3937 29.6528C65.3757 29.3608 64.2451 28.8184 64.2451 28.8184C64.2451 28.8184 62.8035 30.6959 62.5323 32.782C62.3091 34.5052 62.4572 38.0203 62.7785 42.3136C63.0601 46.0937 63.2103 48.0004 63.2103 48.0004C63.2103 48.0004 62.3008 49.5671 61.6353 50.9565C60.7821 52.7443 60.8113 58.6043 60.6506 60.7614C61.4162 61.6459 63.0747 62.0131 63.6797 61.8629C64.5997 59.9478 67.5537 52.5378 68.0272 51.1297C68.5008 49.7215 69.571 47.0617 69.9173 42.7496L71.0271 49.0435C70.7188 49.7712 70.5084 50.5365 70.4013 51.3195C70.1927 52.6838 71.1961 58.2476 71.5632 59.9833C72.1641 60.4506 73.6223 60.8177 74.9887 60.002C75.1973 58.3936 76.1987 52.3188 76.3405 50.6144C76.3405 50.6144 76.8057 46.6319 76.6931 40.507C76.6182 36.7557 76.2182 33.0179 75.4977 29.3357Z" fill="#455A64"/>
<path id="Vector_39" d="M69.9172 42.7437L70.4826 36.4414C70.4826 36.4414 73.036 34.9811 73.6598 33.623C73.6598 33.623 73.5534 35.7384 71.655 36.8837L70.7517 43.2652L71.0271 49.0459L69.9172 42.7437Z" fill="#37474F"/>
</g>
<g id="Top">
<path id="Vector_40" d="M74.2272 23.4644C74.3148 23.6063 75.0616 22.6675 75.1179 22.5903C75.3641 22.2169 75.5498 21.8748 75.4893 21.4075C75.4288 20.9402 75.1242 20.4708 74.9803 20.0014C74.7986 19.4714 74.7471 18.9054 74.8301 18.3513C74.9302 17.8047 75.2076 17.2936 75.2473 16.7408C75.2653 16.2997 75.1758 15.8608 74.9865 15.462C74.6152 14.6275 73.3176 14.0539 72.8169 12.3578C72.7031 11.7958 72.6575 11.2222 72.6813 10.6493C72.698 9.88574 72.7314 9.10343 72.4915 8.37745C72.339 7.88946 72.0341 7.4632 71.6216 7.16123C71.4214 7.05185 71.212 6.9604 70.9957 6.88795C70.7871 6.7899 70.7871 6.69394 70.6974 6.48115C70.3615 5.66755 69.6356 5.25658 68.8199 5.04171C67.8436 4.78512 66.3165 4.8477 65.7804 4.95201C64.8771 5.12933 64.1991 5.31708 63.277 5.35881C63.0392 5.36924 62.4738 5.35881 62.2819 5.50066C62.145 5.60259 62.0447 5.74595 61.9959 5.90945C61.947 6.07294 61.9522 6.24783 62.0107 6.40814C62.1234 6.80868 62.5719 7.11742 62.5573 7.65982C62.3215 7.93728 62.0295 8.4463 62.4425 8.70289C62.5648 8.77473 62.7034 8.81422 62.8452 8.81763C62.6883 8.96661 62.5484 9.13241 62.4279 9.31205C62.3069 9.49318 62.2456 9.70765 62.2527 9.92537C62.2575 10.0339 62.2891 10.1395 62.3448 10.2327C62.4005 10.3259 62.4786 10.4038 62.5719 10.4594C62.6547 10.4993 62.7423 10.5281 62.8326 10.545L63.4314 10.6868C63.3896 10.7682 63.3563 10.8266 63.3458 10.8474C62.72 11.8279 61.5705 12.9461 62.3654 14.1853C62.5448 14.4627 62.8097 14.7235 62.8014 15.0531C62.7888 15.5037 62.2923 15.7541 61.8814 15.9397C61.0469 16.3194 59.7139 17.2477 60.2771 18.3492C60.4395 18.6134 60.5126 18.9228 60.4857 19.2317C60.4721 19.3617 60.4193 19.4845 60.3344 19.584C60.2495 19.6834 60.1364 19.7548 60.0101 19.7887C59.8439 19.8469 59.6623 19.8426 59.4991 19.7765C59.3359 19.7105 59.2024 19.5872 59.1235 19.4298C58.9149 20.135 59.5157 20.9235 60.5337 20.9444C61.195 20.959 61.8459 20.5939 61.848 20.4604C61.2555 21.1572 61.7207 22.5111 62.4571 22.5361C62.1839 22.9533 61.9064 24.1591 62.9578 25.2481C63.282 25.5924 63.7027 25.8307 64.1647 25.9315C64.6268 26.0324 65.1085 25.9913 65.5467 25.8134C65.8012 26.2745 66.1726 26.9254 66.6691 27.0651C67.4159 27.2863 68.2942 27.3968 68.9179 26.9295C69.3581 26.5999 69.5855 26.0387 70.0361 25.7217C70.4679 26.0387 70.9164 26.3621 71.438 26.4747C72.4706 26.698 73.5241 26.0116 74.0624 25.1C74.3669 24.6035 74.5296 23.9568 74.2272 23.4644Z" fill="#263238"/>
<path id="Vector_41" d="M88.2752 13.1427C88.0707 13.0959 87.8567 13.1127 87.6619 13.1907C87.3572 13.3326 87.0637 13.4972 86.7837 13.6831C86.3351 13.9271 85.6112 14.3277 85.0918 14.3089C84.9854 14.3089 84.7684 14.2609 84.9124 14.1295C85.1091 13.9685 85.292 13.7913 85.459 13.5996C85.541 13.5023 85.6019 13.389 85.6378 13.2669C85.6737 13.1448 85.6839 13.0166 85.6676 12.8903C85.6581 12.8133 85.6201 12.7426 85.5612 12.6921C85.4736 12.6275 85.4151 12.6692 85.3526 12.7213C85.2779 12.7731 85.1998 12.8198 85.1189 12.8611C84.9562 12.955 84.7935 13.0468 84.6308 13.1427C83.6857 13.6956 82.7407 14.3423 82.1816 15.3102C82.1003 15.4521 81.6121 16.5619 81.2971 17.1878C81.0405 17.7573 79.2819 21.3246 79.2819 21.3246L75.9774 18.2517C75.2014 17.4778 74.8029 17.1335 73.981 16.7372C73.4816 16.5493 72.9653 16.4096 72.4393 16.3199L73.8266 21.9859C73.8266 21.9859 77.1436 24.433 77.6651 24.8105C78.4412 25.3717 79.9223 26.4064 80.884 25.4572C82.0627 24.2911 82.4779 22.3155 82.9118 20.8802C83.3978 19.2635 83.5376 18.4874 83.8255 17.9993C84.1134 17.5111 84.5619 17.4757 84.8853 17.3734C85.3326 17.2489 85.7603 17.0621 86.1557 16.8185C86.5127 16.6228 86.8418 16.3801 87.1341 16.0967C87.2901 15.9738 87.4187 15.8196 87.5117 15.644C87.5317 15.4817 87.5617 15.3208 87.6014 15.1621C87.7077 15.0017 87.8059 14.836 87.8956 14.6656C87.9252 14.5174 87.935 14.3659 87.9248 14.215C87.9384 14.1081 87.9744 14.0053 88.0305 13.9133C88.0866 13.8212 88.1614 13.7421 88.2502 13.681C88.3386 13.6161 88.4101 13.5309 88.4588 13.4327C88.5235 13.2617 88.4129 13.1803 88.2752 13.1427Z" fill="#FFBF9D"/>
<path id="Vector_42" d="M84.4994 14.7549C84.2588 15.3422 83.8557 15.8488 83.3374 16.2152C83.669 16.1776 83.9758 16.0213 84.2011 15.775C84.3198 15.6355 84.4077 15.4726 84.4591 15.2968C84.5105 15.121 84.5242 14.9363 84.4994 14.7549Z" fill="#B16668"/>
<path id="Vector_43" d="M75.7125 30.2474L75.9024 31.5346C75.9024 31.5346 74.2335 32.7299 70.009 32.7508C65.7846 32.7717 63.0538 30.8441 63.0538 30.8441L63.6171 29.6445L75.7125 30.2474Z" fill="#C02FD8"/>
<path id="Vector_44" opacity="0.3" d="M75.7125 30.2474L75.9024 31.5346C75.9024 31.5346 74.2335 32.7299 70.009 32.7508C65.7846 32.7717 63.0538 30.8441 63.0538 30.8441L63.6171 29.6445L75.7125 30.2474Z" fill="black"/>
<path id="Vector_45" d="M63.6192 28.7274C64.2826 27.4131 64.6038 26.4014 64.5955 25.5314C64.5955 25.1017 64.5058 24.3173 64.0865 23.0531C63.6671 21.7889 63.5879 20.4287 63.5441 19.3523C63.4815 17.7564 64.6309 16.5276 65.142 16.2231C65.142 16.2231 66.3937 16.0144 68.3026 15.8392C70.2114 15.664 72.4373 16.2982 72.4373 16.2982C73.4199 17.0846 73.883 17.3704 75.0846 19.0811C75.8064 20.1095 76.3655 22.0017 74.8989 23.3264C74.9261 23.6539 74.9824 24.3319 74.9219 26.5474C74.9907 26.975 75.7689 29.1259 75.8711 29.758C75.9733 30.3901 75.6061 30.6049 75.6061 30.6049C75.6061 30.6049 73.9602 31.7669 70.0987 31.696C65.747 31.6167 63.9655 30.4172 63.5295 30.0876C63.1706 29.6119 63.4293 29.105 63.6192 28.7274Z" fill="#C02FD8"/>
<path id="Vector_46" opacity="0.3" d="M71.4005 23.5293C71.4005 23.5293 70.228 24.8415 68.5654 24.5724C67.9279 24.4843 67.3393 24.1819 66.8965 23.715C66.8769 23.696 66.8512 23.6846 66.824 23.6829C66.7968 23.6811 66.7698 23.6891 66.748 23.7055C66.7261 23.7218 66.7108 23.7454 66.7048 23.7719C66.6987 23.7985 66.7023 23.8264 66.715 23.8506C67.0049 24.3554 67.5682 24.9145 68.6593 25.0438C69.2183 25.1202 69.7871 25.0141 70.281 24.7412C70.7749 24.4683 71.1675 24.0433 71.4005 23.5293Z" fill="black"/>
<path id="Vector_47" d="M64.195 7.6825C63.6672 8.07052 63.494 8.4648 63.8508 11.6462C64.1282 14.1183 64.8208 14.717 65.5489 14.8943C66.0648 15.0087 66.5996 15.0087 67.1156 14.8943L67.2074 15.6036C67.2074 15.6036 67.1573 17.7043 70.8435 18.0277C71.9054 17.0681 71.0104 15.9666 71.0104 15.9666L70.5932 12.3075C70.7731 12.4 70.9789 12.4298 71.1777 12.392C71.3766 12.3542 71.557 12.251 71.6905 12.0989C72.1223 11.6274 72.2809 10.624 71.7406 10.1754C71.2002 9.72692 70.4451 10.092 70.2448 10.6094C70.0445 11.1267 69.6189 11.2352 69.4875 10.3528C69.3561 9.47032 69.2664 7.84939 68.0502 7.28613C66.037 7.59071 66.3354 9.20956 64.195 7.6825Z" fill="#FFBF9D"/>
<path id="Vector_48" d="M64.1656 9.90078L64.8666 9.55865C64.8464 9.51189 64.8169 9.46973 64.7799 9.43473C64.7429 9.39973 64.6991 9.37262 64.6513 9.35506C64.6035 9.3375 64.5526 9.32985 64.5018 9.33257C64.4509 9.33529 64.4011 9.34833 64.3555 9.3709C64.2634 9.41959 64.1929 9.50096 64.1577 9.59901C64.1226 9.69706 64.1254 9.8047 64.1656 9.90078Z" fill="#263238"/>
<path id="Vector_49" d="M67.4118 12.3896L66.4271 12.9258C66.4589 12.9917 66.5037 13.0505 66.559 13.0985C66.6142 13.1465 66.6786 13.1827 66.7483 13.205C66.818 13.2272 66.8915 13.235 66.9644 13.2279C67.0372 13.2208 67.1078 13.1989 67.1719 13.1636C67.3031 13.0896 67.401 12.9682 67.4456 12.8243C67.4902 12.6804 67.4781 12.5249 67.4118 12.3896Z" fill="#B16668"/>
<path id="Vector_50" d="M67.4576 9.29935L68.2087 9.50796C68.2246 9.45965 68.2305 9.40859 68.2259 9.35792C68.2214 9.30725 68.2066 9.25804 68.1824 9.2133C68.1581 9.16857 68.125 9.12926 68.0851 9.09778C68.0451 9.0663 67.9991 9.04331 67.95 9.03024C67.8491 9.00586 67.7428 9.01992 67.6518 9.06968C67.5608 9.11943 67.4916 9.20132 67.4576 9.29935Z" fill="#263238"/>
<path id="Vector_51" d="M66.2289 9.92578L66.4334 12.1892L65.2672 12.0745L66.2289 9.92578Z" fill="#B16668"/>
<path id="Vector_52" d="M67.1155 14.9138C67.9103 14.726 69.3643 14.3547 70.0006 13.0654C70.0006 13.0654 69.8608 13.9249 69.3643 14.3547C68.6697 14.9555 67.1635 15.2767 67.1635 15.2767L67.1155 14.9138Z" fill="#B16668"/>
<path id="Vector_53" d="M67.9834 10.2385C68.0168 10.4659 67.7998 10.1467 67.5662 10.1863C67.3325 10.226 67.1823 10.6036 67.149 10.3803C67.1339 10.2697 67.1624 10.1575 67.2286 10.0675C67.2948 9.97757 67.3935 9.91693 67.5036 9.89843C67.5576 9.88767 67.6132 9.88804 67.667 9.89951C67.7209 9.91098 67.7718 9.93331 67.8167 9.96514C67.8616 9.99697 67.8996 10.0376 67.9283 10.0846C67.9569 10.1316 67.9757 10.184 67.9834 10.2385Z" fill="#263238"/>
<path id="Vector_54" d="M65.3464 10.6244C65.3131 10.8497 65.1983 10.4867 64.9668 10.4575C64.7352 10.4283 64.4807 10.7496 64.5141 10.5222C64.5321 10.4125 64.5919 10.314 64.681 10.2475C64.7701 10.181 64.8815 10.1516 64.9918 10.1655C65.0456 10.1713 65.0977 10.188 65.145 10.2145C65.1922 10.241 65.2336 10.2767 65.2667 10.3195C65.2998 10.3624 65.3239 10.4115 65.3376 10.4639C65.3513 10.5162 65.3543 10.5709 65.3464 10.6244Z" fill="#263238"/>
<path id="Vector_55" d="M66.9257 13.2358C66.9059 13.1048 66.9386 12.9712 67.0167 12.8642C67.0949 12.7571 67.2121 12.6853 67.3429 12.6642C67.3839 12.6601 67.4251 12.6601 67.466 12.6642C67.4663 12.7683 67.4388 12.8705 67.3864 12.9604C67.3339 13.0502 67.2584 13.1244 67.1677 13.1753C67.093 13.2145 67.01 13.2353 66.9257 13.2358Z" fill="#FFBF9D"/>
<path id="Vector_56" d="M70.8435 18.0466C69.6968 17.5673 68.6197 16.9357 67.6413 16.1691C67.2554 15.8458 67.2074 15.6288 67.2074 15.6288L67.174 15.3701L66.0913 16.0919C66.0913 16.0919 67.0009 18.3095 68.3277 18.8039C68.7695 18.9909 69.2628 19.0176 69.7223 18.8793C70.1817 18.741 70.5783 18.4465 70.8435 18.0466Z" fill="white"/>
<path id="Vector_57" d="M70.8435 18.0466C70.8435 18.0466 71.4276 18.4972 71.8866 18.4763C72.6334 18.4388 72.6981 17.9798 72.3476 17.2914C71.9971 16.603 71.7218 16.1086 71.7218 16.1086L70.9207 15.2178L71.0104 15.9855C71.2795 16.7052 71.1272 17.3957 70.8435 18.0466Z" fill="white"/>
</g>
</g>
<g id="Arms">
<g id="Arm">
<path id="Vector_58" d="M53.6908 34.9321C54.6337 35.222 54.7339 35.22 56.2484 36.1712C57.2915 36.8325 58.7622 37.788 60.1745 38.8123L62.8344 34.7109L64.7119 36.1879C64.11 37.8411 63.4064 39.4554 62.6049 41.0215C62.2377 41.712 61.3323 43.1849 60.1432 42.68C58.9854 42.1877 54.9946 39.9159 54.9946 39.9159L53.6908 34.9321Z" fill="#FFBF9D"/>
<path id="Vector_59" d="M63.4915 35.2346L62.8344 34.7109L61.9498 36.0753C62.2823 36.3967 62.6931 36.6256 63.1415 36.739C63.5898 36.8525 64.06 36.8466 64.5054 36.722C64.6326 36.3882 64.714 36.1879 64.714 36.1879L63.4915 35.2346Z" fill="#B16668"/>
<path id="Vector_60" d="M53.1359 34.7734C55.3221 35.1093 55.416 35.3993 56.8701 36.3464C58.2198 37.2288 59.8157 38.4638 59.8157 38.4638C59.3863 39.6365 58.7105 40.7036 57.8339 41.593L53.6908 39.4485L53.1359 34.7734Z" fill="#455A64"/>
</g>
<path id="Vector_61" d="M58.6663 24.698C61.6078 18.3436 62.2733 17.0836 63.4645 16.562C64.0014 16.3702 64.5638 16.2591 65.1334 16.2324C65.5506 16.998 66.4748 19.8039 64.7287 21.502C64.7287 21.502 62.7489 24.4706 61.854 26.054C62.0354 27.6937 62.3171 30.1199 62.8428 31.2568C62.9837 31.5149 63.2028 31.7216 63.4686 31.8472C64.0945 32.1622 64.1425 32.473 64.6556 32.8235C65.0562 33.1031 65.3733 33.1302 65.3399 33.2407C65.2815 33.3795 65.1776 33.4942 65.0452 33.5659C64.9128 33.6376 64.7599 33.662 64.6118 33.635C64.3409 33.5946 64.0769 33.5167 63.8274 33.4035C64.1133 33.8409 64.4652 34.2315 64.8705 34.5613C65.8427 35.3665 65.9511 35.9527 64.2301 36.2969C63.1494 36.5056 62.2128 36.0612 61.1322 34.0147C60.7206 33.2666 60.3663 32.4883 60.0724 31.6866C59.5759 30.1845 58.8207 28.2862 58.4452 26.5651C58.2387 25.5199 58.4932 25.0693 58.6663 24.698Z" fill="#FFBF9D"/>
<path id="Vector_62" d="M63.2246 32.742C62.7889 32.8423 62.3738 33.0173 61.9979 33.2594C61.9517 33.2846 61.9167 33.3263 61.8999 33.3762C61.8769 33.4805 61.9917 33.5848 62.169 33.6307C62.1775 33.6328 62.1854 33.6366 62.1922 33.642C62.1991 33.6474 62.2047 33.6543 62.2086 33.662C62.2127 33.6712 62.2147 33.6812 62.2147 33.6912C62.2147 33.7013 62.2127 33.7112 62.2086 33.7204C62.1878 33.8105 62.2021 33.9051 62.2486 33.9849C62.2952 34.0648 62.3704 34.1239 62.459 34.1502C62.4915 34.1588 62.5219 34.1737 62.5487 34.194C62.5726 34.2193 62.5898 34.2501 62.5987 34.2837C62.6448 34.3914 62.7216 34.4831 62.8196 34.5474C62.9176 34.6116 63.0323 34.6454 63.1495 34.6446C63.1882 34.6394 63.2275 34.6394 63.2663 34.6446C63.2992 34.6572 63.3307 34.6733 63.3602 34.6926C63.4806 34.7493 63.6134 34.7744 63.7461 34.7656C64.2002 34.7959 64.6561 34.7855 65.1084 34.7343L65.4463 35.1036C65.6174 34.9554 65.3942 34.1857 65.0562 33.6975C64.8944 33.4526 64.6992 33.2314 64.4763 33.0404C64.2736 32.8424 64.0151 32.7113 63.7357 32.6649C63.5755 32.6596 63.4155 32.6807 63.2621 32.7274L63.2246 32.742Z" fill="#FFBF9D"/>
</g>
<g id="Kid">
<g id="bottom">
<path id="Vector_63" d="M46.2723 46.5391C46.0992 47.7574 46.7 49.0007 46.6207 50.2628C46.458 52.8789 46.3474 54.8377 46.0366 58.0462C45.5754 59.4442 45.2424 60.8812 45.0415 62.3395C44.8099 63.9563 44.7286 66.6495 44.2571 68.4248L44.1862 68.7169C44.3384 69.9456 45.9343 70.4755 46.2139 69.7599C46.2139 69.7599 48.9843 62.8005 49.8709 60.5329C50.6596 58.4654 51.3092 56.3474 51.8152 54.1931L52.5307 59.0246C52.5307 59.0246 52.2262 60.2763 52.5036 62.5022C52.7122 64.2442 53.6385 67.3442 53.5717 69.301C53.5717 69.5617 53.8784 70.15 54.596 70.2961C55.3136 70.4421 55.9457 69.6953 55.9603 69.5909C55.9958 69.3448 56.5862 61.7575 56.7343 59.9467C57.0764 55.9643 56.2461 49.3428 55.9249 46.5391H46.2723Z" fill="#FFBF9D"/>
<path id="Vector_64" d="M57.0514 56.1533C57.0514 54.2466 56.2336 48.5764 56.0208 46.459H46.1889L45.9406 57.9453C45.6492 58.7944 45.4123 59.6612 45.2313 60.5405C44.9121 62.0612 44.6055 65.7057 44.6055 65.7057C44.6055 65.7057 44.8475 66.3316 45.8008 66.6633C46.3776 66.862 47.0091 66.8284 47.5615 66.5694C47.5615 66.5694 48.7485 63.532 49.0218 62.8978C49.4036 62.0258 49.9147 60.7512 50.4529 59.2366C50.9912 57.7221 51.763 54.9642 51.763 54.9642L52.4202 59.0238C52.222 60.0898 52.2741 62.0195 52.5349 63.5341C52.7957 65.0486 53.1357 66.7926 53.1357 66.7926C53.1357 66.7926 53.6844 67.1097 54.8317 67.0847C55.9791 67.0596 56.3066 66.6132 56.3066 66.6132C56.3066 66.6132 56.824 61.0536 56.9325 59.0447C57.041 57.0357 57.0514 56.1533 57.0514 56.1533Z" fill="#455A64"/>
<path id="Vector_65" d="M51.7672 54.9632C52.1344 53.5029 51.9174 51.1372 51.9174 51.1372C51.9174 51.1372 53.4215 51.1518 54.1955 50.1191C53.9741 50.7336 53.5774 51.2696 53.0544 51.6608L52.2199 55.2344L52.4285 59.0228L51.7672 54.9632Z" fill="#37474F"/>
<path id="Vector_66" d="M59.9324 73.3046C59.9713 73.4267 59.9766 73.5571 59.9476 73.682C59.9186 73.8068 59.8564 73.9215 59.7676 74.0139C59.4713 74.2476 58.616 74.6168 57.5166 74.4312C56.4172 74.2455 56.1168 74.0035 55.6892 73.6134C55.2615 73.2233 54.8735 72.8165 54.377 72.6851C53.9159 72.562 53.2171 72.345 53.0731 72.1948C52.9292 72.0446 52.9793 71.4062 52.9793 71.4062L59.9324 73.3046Z" fill="#263238"/>
<path id="Vector_67" d="M53.5238 68.6523C53.4803 68.6534 53.4382 68.668 53.4034 68.6942C53.3686 68.7204 53.3428 68.7568 53.3298 68.7984C53.2881 68.9715 53.2297 69.4826 53.1441 69.7684C53.0133 70.3788 52.9621 71.0036 52.9918 71.6272C53.0377 71.9568 53.9911 72.2009 54.4667 72.4074C54.9568 72.6335 55.4031 72.9442 55.7852 73.3253C56.3467 73.8165 57.054 74.1097 57.7983 74.1598C58.6515 74.1911 59.6237 73.9511 59.8615 73.5715C60.1557 73.0937 60.2161 72.6244 58.977 71.9818C58.7412 71.8608 58.0215 71.3956 57.742 71.2016C57.4353 70.9949 57.1502 70.758 56.8908 70.4944C56.7089 70.3151 56.5479 70.1156 56.411 69.8999C56.3479 69.7764 56.3009 69.6453 56.2713 69.5097C56.231 69.3724 56.1975 69.2332 56.1711 69.0925C56.1691 69.0526 56.159 69.0136 56.1415 68.9777C56.1239 68.9418 56.0992 68.9099 56.0689 68.8839C56.0177 68.8592 55.9598 68.8518 55.9041 68.863C55.614 68.8855 55.3268 68.9365 55.0467 69.0153C54.9324 69.037 54.8288 69.0965 54.7525 69.1843C54.7088 69.2544 54.6857 69.3354 54.6858 69.418C54.6855 69.5003 54.6799 69.5825 54.6691 69.6641C54.6644 69.6936 54.6514 69.7211 54.6315 69.7434C54.5877 69.7851 54.5189 69.7434 54.4855 69.7121C54.3659 69.5826 54.2577 69.443 54.1622 69.2949C54.1038 69.2198 53.8388 69.1593 53.7658 69.0988C53.6935 69.0527 53.6238 69.0026 53.5572 68.9486C53.4821 68.8526 53.5238 68.7546 53.5238 68.6523Z" fill="#37474F"/>
<path id="Vector_68" d="M55.7851 73.3248C55.6048 73.1553 55.4153 72.9959 55.2177 72.847C55.2177 72.847 56.5424 73.4374 57.1619 73.0557C57.5604 72.8074 57.3914 72.4778 57.3852 72.3756C57.3789 72.2734 58.3552 71.8728 58.7328 71.8457C58.835 71.9083 58.9226 71.9584 58.9769 71.9855C60.216 72.628 60.1556 73.0974 59.8614 73.5751C59.6236 73.9611 58.9143 74.2385 57.8107 74.201C57.0588 74.1344 56.3485 73.8271 55.7851 73.3248Z" fill="#455A64"/>
<path id="Vector_69" d="M57.2955 72.0683C58.0674 72.4167 57.7252 72.5502 57.5041 72.5711C57.283 72.592 56.2003 71.9056 55.418 71.2318C54.6044 70.5267 53.8992 69.7903 53.5967 69.5316C53.4841 69.4356 53.3652 69.323 53.2567 69.2082C53.2859 69.0351 53.3089 68.8786 53.3276 68.791C53.3438 68.7451 53.3714 68.7041 53.4079 68.6719C53.4445 68.6398 53.4887 68.6176 53.5363 68.6074L53.5592 68.8932C53.6172 68.9598 53.6882 69.0137 53.7678 69.0518C53.9092 69.0968 54.0394 69.1715 54.1496 69.2708C54.2451 69.419 54.3533 69.5586 54.4729 69.688C55.1342 70.6039 56.5215 71.7199 57.2955 72.0683Z" fill="#263238"/>
<path id="Vector_70" d="M57.454 72.4546C57.4356 72.453 57.4181 72.4457 57.4039 72.4338C57.3895 72.419 57.3815 72.3991 57.3815 72.3785C57.3815 72.3578 57.3895 72.338 57.4039 72.3232C57.5976 72.1403 57.828 72.0006 58.0797 71.9136C58.3315 71.8266 58.5989 71.7941 58.8642 71.8184C58.8847 71.8214 58.9031 71.8325 58.9154 71.8491C58.9278 71.8657 58.933 71.8865 58.9299 71.907C58.9269 71.9275 58.9158 71.9459 58.8992 71.9582C58.8826 71.9706 58.8618 71.9758 58.8413 71.9727C58.6007 71.9524 58.3585 71.9824 58.1301 72.0607C57.9017 72.139 57.6921 72.2639 57.5145 72.4275C57.5069 72.436 57.4976 72.4428 57.4871 72.4475C57.4767 72.4522 57.4654 72.4546 57.454 72.4546Z" fill="#F0F0F0"/>
<path id="Vector_71" d="M56.7823 72.038C56.7644 72.0358 56.7472 72.0294 56.7322 72.0192C56.7183 72.0041 56.7106 71.9844 56.7106 71.9639C56.7106 71.9434 56.7183 71.9237 56.7322 71.9086C56.9228 71.7193 57.1518 71.5732 57.4037 71.4799C57.6557 71.3867 57.9247 71.3487 58.1925 71.3683C58.213 71.3714 58.2315 71.3822 58.2443 71.3985C58.2571 71.4148 58.2632 71.4353 58.2614 71.4559C58.2601 71.4661 58.2568 71.4759 58.2517 71.4848C58.2466 71.4937 58.2397 71.5015 58.2316 71.5077C58.2234 71.5139 58.2141 71.5184 58.2042 71.521C58.1943 71.5236 58.1839 71.5242 58.1738 71.5227C57.9327 71.5086 57.6913 71.5446 57.4648 71.6282C57.2383 71.7118 57.0315 71.8414 56.8574 72.0088C56.8488 72.0201 56.8372 72.0288 56.824 72.0339C56.8107 72.0391 56.7963 72.0405 56.7823 72.038Z" fill="#F0F0F0"/>
<path id="Vector_72" d="M56.1669 71.5677C56.1483 71.5671 56.1305 71.5596 56.1169 71.5469C56.1026 71.5324 56.0946 71.5129 56.0946 71.4926C56.0946 71.4723 56.1026 71.4528 56.1169 71.4384C56.3104 71.2551 56.5406 71.1151 56.7924 71.0277C57.0442 70.9403 57.3117 70.9075 57.5772 70.9315C57.5979 70.9345 57.6166 70.9457 57.6291 70.9625C57.6416 70.9793 57.6469 71.0004 57.6439 71.0212C57.6404 71.0415 57.629 71.0596 57.6122 71.0717C57.5955 71.0838 57.5747 71.0889 57.5542 71.0858C57.3135 71.0654 57.0711 71.0955 56.8426 71.1742C56.6141 71.2529 56.4046 71.3784 56.2274 71.5427C56.2113 71.5585 56.1896 71.5675 56.1669 71.5677Z" fill="#F0F0F0"/>
<path id="Vector_73" d="M55.6224 71.1444C55.6044 71.144 55.587 71.1382 55.5723 71.1277C55.5565 71.1143 55.5465 71.0953 55.5445 71.0746C55.5426 71.0539 55.5488 71.0333 55.5619 71.0172C55.7482 70.8252 55.9734 70.6753 56.2224 70.5774C56.4714 70.4795 56.7384 70.436 57.0055 70.4497C57.026 70.452 57.0448 70.4622 57.0577 70.4782C57.0706 70.4943 57.0766 70.5148 57.0744 70.5353C57.0722 70.5557 57.0619 70.5745 57.0459 70.5874C57.0298 70.6003 57.0093 70.6063 56.9888 70.6041C56.7476 70.5939 56.5069 70.6341 56.282 70.7221C56.0572 70.8101 55.8531 70.944 55.6829 71.1152C55.6757 71.1243 55.6665 71.1317 55.656 71.1367C55.6455 71.1418 55.6341 71.1444 55.6224 71.1444Z" fill="#F0F0F0"/>
<path id="Vector_74" d="M55.0342 70.6469C55.0167 70.6474 54.9996 70.6415 54.9862 70.6302C54.9706 70.6171 54.9606 70.5986 54.9583 70.5784C54.956 70.5582 54.9615 70.5379 54.9737 70.5217C55.2824 70.1358 55.975 69.8854 56.5529 69.9522C56.5734 69.9544 56.5921 69.9646 56.605 69.9807C56.6179 69.9967 56.6239 70.0172 56.6217 70.0377C56.6195 70.0582 56.6093 70.0769 56.5932 70.0898C56.5772 70.1027 56.5567 70.1088 56.5362 70.1065C56.0147 70.0481 55.37 70.2776 55.0968 70.6176C55.0893 70.627 55.0798 70.6346 55.0689 70.6396C55.0581 70.6447 55.0462 70.6472 55.0342 70.6469Z" fill="#F0F0F0"/>
<path id="Vector_75" d="M45.9844 73.4363C45.8405 74.1873 45.6527 74.6775 45.3085 75.0906C44.9643 75.5036 44.4052 75.5892 43.8712 75.4014C43.3371 75.2137 42.68 74.7943 42.6049 74.1247C42.5385 73.5145 42.6157 72.8973 42.8302 72.3223L45.9844 73.4363Z" fill="#263238"/>
<path id="Vector_76" d="M44.3781 67.9492C44.1799 67.9868 43.8753 68.9527 43.6145 69.9582C43.3371 71.0325 43.0909 71.3413 42.8531 72.2237C42.5798 73.2292 42.6153 73.5797 42.9199 74.2369C43.2244 74.894 44.5053 75.6408 45.2855 74.8251C45.9114 74.1597 46.0115 73.4754 46.0908 72.449C46.1458 71.6332 46.251 70.8216 46.4058 70.0187C46.5456 69.2593 46.919 68.6001 46.7333 68.4937C46.7041 68.6064 46.3912 69.4116 46.2514 69.301C46.1847 69.2823 46.1868 69.1738 46.2264 68.9756C46.2389 68.9337 46.2428 68.8898 46.2378 68.8464C46.2328 68.803 46.219 68.7611 46.1972 68.7232C46.1329 68.6553 46.049 68.6094 45.9573 68.5917C45.7487 68.5292 45.442 68.4332 45.2188 68.3831C45.0874 68.3581 45.1625 68.3644 45.031 68.3435C44.8689 68.2983 44.6993 68.2862 44.5324 68.308C44.4573 68.3352 44.4427 68.3977 44.4156 68.4687C44.3885 68.5396 44.3593 68.6356 44.3259 68.7044C44.3134 68.7315 44.2633 68.7858 44.232 68.7795C44.2008 68.7732 44.182 68.6376 44.1945 68.5813C44.207 68.525 44.2112 68.4311 44.2237 68.3623C44.2362 68.2934 44.3343 68.1265 44.3781 67.9492Z" fill="#37474F"/>
<path id="Vector_77" d="M42.9345 71.877C42.8948 72.023 42.6695 72.9305 42.9345 73.1286C43.1994 73.3268 43.4852 72.6008 43.4852 72.6008C43.4852 72.6008 44.2342 72.4694 45.2313 73.0076C45.1562 73.1599 45.2522 73.6982 45.5547 73.6189C45.8572 73.5396 46.0762 72.5424 46.0783 72.5299C45.999 73.5125 45.8989 74.1696 45.2814 74.8247C44.5012 75.6404 43.2203 74.8935 42.9157 74.2364C42.6111 73.5792 42.5757 73.2288 42.849 72.2233C42.8802 72.121 42.9115 71.9667 42.9345 71.877Z" fill="#455A64"/>
<path id="Vector_78" d="M43.5603 72.6788C43.5102 73.048 43.1723 72.8874 43.1848 72.3596C43.2015 71.5731 43.5019 70.8513 43.602 69.9543C43.8628 68.9488 44.1382 67.9391 44.3655 67.9453C44.3363 68.1227 44.2299 68.519 44.2299 68.519C44.2133 68.592 44.159 68.761 44.159 68.761C43.9921 69.5162 43.6667 70.384 43.5999 71.1726C43.5603 71.8673 43.6145 72.3137 43.5603 72.6788Z" fill="#263238"/>
<path id="Vector_79" d="M45.1145 72.992C45.2334 72.6374 45.3732 72.5456 45.5318 71.8655C45.6903 71.1854 46.1576 70.0151 46.4017 69.287C46.5081 69.0075 46.725 68.5005 46.7271 68.4922C46.8606 68.5715 46.8147 68.9616 46.6458 69.4101C46.4768 69.8586 46.3662 70.1319 46.239 70.5679C45.9344 71.4274 45.7863 72.3578 45.5943 72.8522C45.4024 73.3466 44.9935 73.3466 45.1145 72.992Z" fill="#263238"/>
<path id="Vector_80" d="M45.2021 73.0204C45.191 73.0181 45.1804 73.0138 45.1708 73.0079C44.6488 72.7116 44.0459 72.5895 43.4497 72.6595C43.4282 72.6632 43.4061 72.6582 43.3881 72.6457C43.3702 72.6333 43.3578 72.6142 43.3538 72.5928C43.3514 72.5715 43.3575 72.5501 43.3708 72.5333C43.3841 72.5165 43.4035 72.5057 43.4247 72.503C44.0633 72.4235 44.7103 72.5554 45.2668 72.8786C45.2757 72.8838 45.2835 72.891 45.2896 72.8994C45.2957 72.9079 45.3 72.9175 45.3021 72.9277C45.3043 72.9379 45.3043 72.9485 45.3022 72.9587C45.3 72.9689 45.2958 72.9786 45.2897 72.987C45.2796 73.0001 45.2661 73.0102 45.2506 73.0161C45.2351 73.022 45.2184 73.0235 45.2021 73.0204Z" fill="#F0F0F0"/>
<path id="Vector_81" d="M45.5213 72.3097L45.4963 72.2993C44.8788 71.975 44.1828 71.8305 43.4873 71.8821C43.4656 71.8845 43.4437 71.8785 43.4262 71.8653C43.4088 71.8521 43.397 71.8327 43.3934 71.8111C43.3923 71.7897 43.3994 71.7686 43.4134 71.7523C43.4274 71.7359 43.4471 71.7256 43.4685 71.7235C44.2026 71.6691 44.937 71.8246 45.586 72.172C45.5952 72.1774 45.6032 72.1845 45.6095 72.1931C45.6158 72.2017 45.6203 72.2115 45.6227 72.2219C45.625 72.2322 45.6252 72.243 45.6232 72.2535C45.6212 72.2639 45.617 72.2738 45.611 72.2826C45.6 72.295 45.5858 72.304 45.57 72.3088C45.5541 72.3136 45.5373 72.3139 45.5213 72.3097Z" fill="#F0F0F0"/>
<path id="Vector_82" d="M43.4477 71.2605C43.4272 71.2605 43.4076 71.2524 43.3931 71.2379C43.3786 71.2234 43.3705 71.2038 43.3705 71.1833C43.3705 71.1628 43.3786 71.1432 43.3931 71.1287C43.4076 71.1143 43.4272 71.1061 43.4477 71.1061C44.5033 70.8975 45.7821 71.4712 45.8217 71.4983C45.8305 71.5038 45.8381 71.511 45.844 71.5196C45.8499 71.5281 45.854 71.5378 45.8559 71.548C45.8579 71.5582 45.8577 71.5687 45.8554 71.5788C45.8531 71.5889 45.8487 71.5984 45.8426 71.6068C45.829 71.6239 45.8096 71.6355 45.7881 71.6393C45.7666 71.6431 45.7444 71.639 45.7257 71.6277C45.7257 71.6277 44.4741 71.0581 43.4831 71.2605C43.4715 71.2636 43.4593 71.2636 43.4477 71.2605Z" fill="#F0F0F0"/>
<path id="Vector_83" d="M43.6958 70.6166C43.6806 70.614 43.6665 70.6071 43.655 70.5968C43.6436 70.5864 43.6353 70.573 43.6312 70.5582C43.629 70.5479 43.629 70.5373 43.631 70.527C43.633 70.5167 43.637 70.5069 43.6428 70.4981C43.6487 70.4894 43.6561 70.4819 43.6649 70.4761C43.6736 70.4703 43.6834 70.4663 43.6937 70.4643C44.8578 70.2056 45.9322 70.894 45.9697 70.9211C45.9781 70.9273 45.9852 70.9351 45.9905 70.9441C45.9958 70.953 45.9993 70.963 46.0006 70.9733C46.002 70.9836 46.0013 70.9941 45.9985 71.0042C45.9957 71.0142 45.9908 71.0236 45.9843 71.0317C45.9701 71.0488 45.9498 71.0598 45.9278 71.0625C45.9057 71.0652 45.8834 71.0594 45.8654 71.0463C45.8654 71.0463 44.8223 70.3767 43.7334 70.6166H43.6958Z" fill="#F0F0F0"/>
<path id="Vector_84" d="M43.867 69.8175C43.8465 69.8175 43.8269 69.8094 43.8124 69.7949C43.7979 69.7804 43.7898 69.7608 43.7898 69.7403C43.7898 69.7199 43.7979 69.7002 43.8124 69.6857C43.8269 69.6713 43.8465 69.6631 43.867 69.6631C44.958 69.4065 46.1138 70.1179 46.1617 70.145C46.1706 70.1508 46.1781 70.1584 46.1837 70.1673C46.1894 70.1762 46.1932 70.1862 46.1948 70.1966C46.1963 70.207 46.1957 70.2177 46.1929 70.2278C46.1901 70.238 46.1851 70.2475 46.1784 70.2556C46.1645 70.273 46.1444 70.2844 46.1223 70.2875C46.1002 70.2906 46.0777 70.2852 46.0595 70.2723C46.0595 70.2723 44.9288 69.5776 43.915 69.8175C43.8992 69.821 43.8828 69.821 43.867 69.8175Z" fill="#EBEBEB"/>
</g>
<path id="Vector_85" d="M47.0591 35.181C46.2246 35.4292 45.8387 38.2935 45.9909 39.4805C46.1432 40.6675 46.4082 43.4191 46.4082 43.4191L46.0389 47.4683C47.3699 49.0476 52.9795 49.688 56.1254 47.5893C56.1254 47.5893 56.0879 40.5882 55.9168 39.0362C55.6331 36.3534 54.3668 34.9995 53.2716 34.7992C52.1764 34.5989 51.1416 34.3152 50.1424 34.4592C49.1001 34.6328 48.0701 34.8739 47.0591 35.181Z" fill="#C02FD8"/>
<path id="Vector_86" d="M49.1056 33.9321C48.4422 33.3771 47.6453 32.985 47.0048 32.2444C46.7628 31.9627 46.5062 31.2681 46.3957 30.8321C46.1203 29.7452 46.2288 28.3036 47.0466 27.5109C47.0466 27.5109 46.9798 26.1862 48.4902 25.3121C49.132 24.9656 49.8408 24.7611 50.5686 24.7125C51.2964 24.6639 52.0261 24.7723 52.7084 25.0305C53.3885 25.2847 53.978 25.7348 54.4023 26.3239C54.8529 27.0104 55.0546 27.8306 54.9739 28.6479C54.8713 29.197 54.5798 29.693 54.1499 30.0497C53.7203 30.399 53.2398 30.6804 52.725 30.8842C52.41 31.0219 52.0992 31.1491 51.7758 31.291C51.6078 31.3516 51.4463 31.4292 51.2939 31.5226C51.1994 31.6145 51.1154 31.7166 51.0436 31.8271L49.6042 33.5524C49.4748 33.7211 49.3026 33.8522 49.1056 33.9321Z" fill="#263238"/>
<path id="Vector_87" d="M48.7175 30.9825C48.7067 30.9979 48.6941 31.0119 48.6799 31.0243C48.4713 31.1995 48.4213 30.7948 48.1626 30.5507C48.0926 30.4891 48.0093 30.4444 47.9192 30.4202C47.8291 30.3959 47.7346 30.3928 47.6431 30.4109C47.4914 30.4229 47.3465 30.4793 47.2266 30.5732C47.1068 30.6671 47.0173 30.7942 46.9693 30.9387C46.9311 31.0862 46.9228 31.2398 46.945 31.3905C46.9671 31.5412 47.0191 31.6859 47.0981 31.8162C47.177 31.9465 47.2812 32.0596 47.4046 32.149C47.5279 32.2383 47.6679 32.3021 47.8163 32.3365C47.99 32.3845 48.1741 32.3807 48.3457 32.3255C48.5173 32.2702 48.669 32.166 48.7822 32.0256L48.8823 34.9462C49.4466 35.519 50.2069 35.8566 51.0102 35.8912C52.4955 35.9747 52.412 35.0985 52.1325 34.6813L52.1847 33.8698C52.6945 33.8909 53.2017 33.7863 53.6617 33.5652C54.0263 33.379 54.3358 33.1006 54.5594 32.7577C54.783 32.4147 54.913 32.0192 54.9363 31.6105C54.978 31.0159 54.7402 30.5194 54.6755 29.929C54.638 29.5786 54.6004 29.0216 54.5649 28.7942C54.5351 28.5937 54.4789 28.398 54.3981 28.2122C52.4705 28.6294 50.1924 28.1788 49.5123 27.7949C49.6166 28.2127 49.6022 28.6512 49.4706 29.0612C49.3256 29.4762 49.0677 29.8425 48.7258 30.1189C48.7996 30.3311 48.8211 30.5579 48.7884 30.7802C48.7816 30.8524 48.7573 30.9219 48.7175 30.9825Z" fill="#FFBF9D"/>
<path id="Vector_88" d="M47.9958 30.4688C47.9978 30.4862 48.0062 30.5021 48.0193 30.5137C48.0323 30.5252 48.0492 30.5315 48.0667 30.5314L50.182 30.2873C50.2258 30.5356 50.3581 30.7596 50.5543 30.9179C50.7505 31.0762 50.9973 31.1581 51.2492 31.1484C51.5011 31.1387 51.741 31.0382 51.9245 30.8653C52.108 30.6924 52.2227 30.4589 52.2473 30.2081C52.2483 30.108 52.2843 30.0115 52.3491 29.9352C52.4139 29.859 52.5034 29.8079 52.602 29.7908C52.6702 29.7717 52.7431 29.7773 52.8076 29.8067C52.8721 29.8361 52.9242 29.8874 52.9545 29.9515C53.0312 30.1995 53.1989 30.4094 53.424 30.539C53.649 30.6685 53.9148 30.7081 54.1678 30.6499C54.4209 30.5916 54.6425 30.4398 54.7883 30.2249C54.934 30.01 54.9931 29.7479 54.9536 29.4912C54.9141 29.2346 54.779 29.0024 54.5754 28.8412C54.3718 28.68 54.1148 28.6019 53.8559 28.6224C53.597 28.6428 53.3555 28.7605 53.1798 28.9517C53.0041 29.1429 52.9072 29.3935 52.9086 29.6531C52.9076 29.6698 52.9076 29.6865 52.9086 29.7032C52.8062 29.6449 52.6856 29.627 52.5707 29.6531C52.4201 29.6836 52.2866 29.7701 52.1972 29.8951C52.1184 29.6715 51.9657 29.4815 51.7643 29.3563C51.563 29.2311 51.325 29.1782 51.0896 29.2064C50.8541 29.2346 50.6354 29.3421 50.4692 29.5113C50.3031 29.6805 50.1996 29.9012 50.1758 30.1371L48.0458 30.3833C48.028 30.3882 48.0127 30.3999 48.0034 30.4159C47.994 30.4318 47.9913 30.4509 47.9958 30.4688ZM53.0588 29.6615C53.0588 29.4845 53.1113 29.3115 53.2096 29.1643C53.308 29.0171 53.4478 28.9024 53.6113 28.8347C53.7748 28.7669 53.9548 28.7492 54.1284 28.7837C54.302 28.8183 54.4614 28.9035 54.5866 29.0287C54.7118 29.1538 54.797 29.3133 54.8315 29.4869C54.8661 29.6605 54.8483 29.8404 54.7806 30.004C54.7129 30.1675 54.5982 30.3073 54.451 30.4056C54.3038 30.504 54.1308 30.5564 53.9538 30.5564C53.7164 30.5564 53.4888 30.4622 53.3209 30.2943C53.1531 30.1265 53.0588 29.8988 53.0588 29.6615ZM50.3281 30.2081C50.3281 30.031 50.3806 29.8579 50.479 29.7106C50.5775 29.5634 50.7174 29.4487 50.881 29.381C51.0447 29.3134 51.2247 29.2958 51.3984 29.3305C51.572 29.3652 51.7315 29.4506 51.8566 29.576C51.9817 29.7013 52.0667 29.861 52.101 30.0347C52.1353 30.2085 52.1173 30.3885 52.0492 30.552C51.9812 30.7155 51.8662 30.8551 51.7187 30.9532C51.5713 31.0513 51.398 31.1034 51.2209 31.103C51.1035 31.103 50.9872 31.0799 50.8788 31.0348C50.7703 30.9898 50.6718 30.9239 50.5888 30.8408C50.5059 30.7576 50.4402 30.659 50.3954 30.5504C50.3507 30.4418 50.3278 30.3255 50.3281 30.2081Z" fill="#455A64"/>
<path id="Vector_89" d="M49.2557 32.5059C49.4631 32.9123 49.789 33.2462 50.1903 33.4634C50.823 33.7267 51.4996 33.8682 52.1847 33.8806L52.1576 34.3145C51.6131 34.2916 50.5846 34.1623 49.8732 33.5427C49.4873 33.2047 49.2557 32.5059 49.2557 32.5059Z" fill="#F28F8F"/>
<path id="Vector_90" d="M50.9914 28.8186L50.2174 29.3005C50.1551 29.1941 50.1361 29.0678 50.1645 28.9477C50.1928 28.8277 50.2663 28.7232 50.3697 28.6559C50.4208 28.6244 50.4778 28.6036 50.5372 28.5947C50.5966 28.5858 50.6572 28.5891 50.7153 28.6043C50.7734 28.6195 50.8278 28.6464 50.8753 28.6832C50.9227 28.72 50.9622 28.7661 50.9914 28.8186Z" fill="#263238"/>
<path id="Vector_91" d="M51.7215 31.791L52.9523 31.8995C52.9338 32.0659 52.8516 32.2187 52.7228 32.3257C52.594 32.4327 52.4287 32.4855 52.2618 32.4732C52.1807 32.4658 52.102 32.442 52.0305 32.4033C51.9589 32.3645 51.8959 32.3117 51.8454 32.2479C51.7949 32.1841 51.7578 32.1107 51.7365 32.0322C51.7152 31.9536 51.7101 31.8716 51.7215 31.791Z" fill="#B16668"/>
<path id="Vector_92" d="M51.8801 32.0148C51.8355 32.0235 51.7926 32.039 51.7528 32.0607C51.7885 32.1708 51.8558 32.2678 51.9463 32.3398C52.0368 32.4118 52.1466 32.4555 52.2618 32.4654C52.3062 32.4696 52.3509 32.4696 52.3953 32.4654C52.3995 32.4322 52.3995 32.3986 52.3953 32.3653C52.3854 32.308 52.364 32.2534 52.3325 32.2045C52.301 32.1557 52.26 32.1137 52.2119 32.081C52.1638 32.0483 52.1097 32.0256 52.0527 32.0142C51.9957 32.0029 51.937 32.0031 51.8801 32.0148Z" fill="#F28F8F"/>
<path id="Vector_93" d="M50.9059 30.1772C50.9196 30.2503 50.9547 30.3176 51.0067 30.3707C51.0587 30.4238 51.1253 30.4603 51.1981 30.4755C51.2708 30.4907 51.3465 30.484 51.4154 30.4562C51.4843 30.4284 51.5434 30.3807 51.5853 30.3193C51.6271 30.2578 51.6498 30.1854 51.6504 30.111C51.651 30.0367 51.6296 29.9639 51.5887 29.9018C51.5479 29.8396 51.4896 29.791 51.4211 29.7621C51.3527 29.7331 51.2772 29.7251 51.2042 29.7391C51.1557 29.7482 51.1096 29.7667 51.0683 29.7936C51.0271 29.8205 50.9915 29.8554 50.9638 29.8961C50.9361 29.9368 50.9167 29.9826 50.9067 30.0309C50.8968 30.0791 50.8965 30.1289 50.9059 30.1772Z" fill="#263238"/>
<path id="Vector_94" d="M53.5344 29.6865C53.548 29.7591 53.5829 29.826 53.6345 29.8788C53.6862 29.9315 53.7523 29.9678 53.8246 29.983C53.8968 29.9982 53.972 29.9916 54.0405 29.9641C54.109 29.9366 54.1679 29.8894 54.2096 29.8284C54.2513 29.7675 54.2739 29.6955 54.2748 29.6217C54.2756 29.5479 54.2545 29.4754 54.2142 29.4136C54.1738 29.3517 54.1161 29.3032 54.0482 29.2742C53.9803 29.2452 53.9053 29.2369 53.8327 29.2505C53.7845 29.2595 53.7385 29.278 53.6974 29.3048C53.6563 29.3316 53.6209 29.3662 53.5932 29.4067C53.5655 29.4472 53.546 29.4927 53.5359 29.5408C53.5258 29.5888 53.5253 29.6383 53.5344 29.6865Z" fill="#263238"/>
<path id="Vector_95" d="M52.5476 29.8161L52.8793 31.266L53.7784 30.8342L52.7082 29.7911C52.6537 29.79 52.5993 29.7985 52.5476 29.8161Z" fill="#F28F8F"/>
</g>
<g id="arms">
<path id="Vector_96" d="M42.3344 35.8292C41.8754 34.953 41.4186 34.7089 41.0952 34.1311C40.678 33.378 39.9395 31.8613 39.9395 31.8613L36.7206 32.6958C36.7206 32.6958 37.8408 34.3647 38.2873 35.1574C38.5126 35.5538 38.3269 36.2297 38.6377 36.7742C38.8422 37.1247 42.0382 36.4654 42.3344 35.8292Z" fill="#B5675E"/>
<path id="Vector_97" d="M40.1084 35.9636C39.9165 35.755 39.3533 35.2689 39.6245 34.4824C39.1801 35.0352 39.6286 35.755 40.1084 35.9636Z" fill="#B16668"/>
<path id="Vector_98" d="M40.7302 33.4414C40.1669 32.4109 37.722 26.9744 37.722 26.9744C37.722 26.9744 37.4716 25.4285 37.0648 23.2381C36.5767 20.5991 36.6664 17.8141 33.4057 16.9463C33.0594 18.853 32.7403 20.9851 32.9885 22.9085C33.2368 24.8319 33.364 25.5725 33.7145 27.6712C33.873 28.6224 34.0816 28.7705 34.6115 29.5737C34.9349 30.0598 37.3715 33.7168 37.8617 34.4574" fill="#B5675E"/>
<path id="Vector_99" d="M37.8221 34.6452C37.8221 34.6452 39.8686 34.3636 40.58 32.9951L38.5543 27.5982C38.5543 27.5982 38.1872 25.0531 37.8158 22.4705C37.3569 19.2557 37.0836 17.4637 35.0934 16.9297C35.0934 16.9297 32.5608 19.0325 32.7423 21.9031C32.8617 23.7494 33.1078 25.5853 33.4787 27.398C33.631 28.247 33.6582 28.6496 34.3591 29.6176C35.06 30.5856 37.8221 34.6452 37.8221 34.6452Z" fill="#263238"/>
<path id="Vector_100" d="M43.6529 43.3551C43.728 44.2355 43.8615 45.5373 43.3317 45.7062C42.4972 45.9712 41.2893 44.5985 40.3297 43.2029C39.3179 41.728 38.0349 39.2225 37.8618 38.3171C37.6886 37.4117 38.1518 36.6482 38.8318 35.8701C39.0999 35.5771 39.3833 35.2986 39.6809 35.0356C39.9271 34.7748 39.9646 34.6497 40.0668 34.6392C40.2609 34.6225 40.4152 34.9772 40.2755 35.3631C40.1837 35.6176 39.9813 35.7553 39.8186 36.0474C40.0877 36.0891 40.6176 35.7303 41.016 35.7115C41.5721 35.7033 42.1269 35.7678 42.6662 35.9034C42.9916 36.0244 42.8581 36.402 42.7162 36.4813C42.7162 36.4813 43.0187 36.7045 42.7913 36.9569C42.8514 37.0758 42.8655 37.2127 42.8308 37.3413C42.7962 37.4699 42.7153 37.5811 42.6036 37.6537C42.1989 37.9729 41.7128 38.3672 41.1057 38.4527C40.4987 38.5382 40.6009 38.5466 40.8116 38.8699C41.0223 39.1933 42.4805 40.8685 42.856 41.269C43.2315 41.6695 43.5757 42.4748 43.6529 43.3551Z" fill="#FFBF9D"/>
<path id="Vector_101" d="M42.203 37.9495C41.9443 38.1477 41.3957 37.5656 41.0306 37.3508C40.9555 37.2982 40.8686 37.265 40.7777 37.2541C40.6867 37.2432 40.5944 37.2549 40.5091 37.2882C40.4235 37.3299 40.4152 37.3174 40.3234 37.2757C40.1921 37.2186 40.0462 37.204 39.9062 37.2339C39.7415 37.267 39.5937 37.3571 39.4889 37.4884C39.4769 37.5067 39.4613 37.5223 39.443 37.5343C39.4261 37.5426 39.4076 37.5476 39.3888 37.5489C39.2597 37.5718 39.1337 37.6096 39.0133 37.6616C38.9585 37.6785 38.9084 37.7079 38.8668 37.7473C38.8252 37.7867 38.7932 37.8352 38.7734 37.889C38.7442 38.0204 38.8464 38.1414 38.9424 38.2374C39.0759 38.3688 39.2115 38.494 39.3596 38.6171C39.4773 38.7263 39.6084 38.8203 39.7497 38.8966C39.8585 38.9493 39.9724 38.9906 40.0897 39.0197C40.3354 39.0935 40.5905 39.1315 40.847 39.1323C41.0839 39.119 41.316 39.061 41.5313 38.9613C41.8183 38.8471 42.0971 38.7133 42.3657 38.5607C42.9519 38.3062 42.7704 37.4947 42.7704 37.4947C42.6012 37.6696 42.4105 37.8224 42.203 37.9495Z" fill="#B5675E"/>
<path id="Vector_102" d="M42.1174 37.0064C42.0382 37.2714 41.5208 37.2943 41.2412 36.9584C41.0618 36.7498 40.9826 36.2971 40.678 36.1928C40.5725 36.1602 40.4694 36.1204 40.3692 36.0739C40.3054 36.0444 40.2434 36.0109 40.1836 35.9738C40.1271 35.9393 40.074 35.8994 40.025 35.8549C40.0371 35.8103 40.0461 35.765 40.0521 35.7193C40.1472 35.615 40.2234 35.495 40.2774 35.3646C40.3243 35.2345 40.3394 35.095 40.3213 34.9578C40.5737 34.768 40.8428 34.6261 40.9721 34.7492C41.1842 34.9741 41.3501 35.2385 41.4603 35.5273C41.4895 35.592 41.5187 35.6609 41.5458 35.736C41.5729 35.8111 41.623 35.9258 41.6564 36.0238C41.8421 36.5099 42.1508 36.9 42.1174 37.0064Z" fill="#B5675E"/>
<path id="Vector_103" d="M43.3316 45.7059C43.7801 45.5098 44.3455 45.2678 45.2613 43.6469C46.0957 42.172 47.2097 40.0691 47.2097 40.0691C47.7584 39.2597 47.4642 35.6027 46.8259 35.3398C45.5575 35.7133 45.4177 35.5485 44.335 37.8557C43.6445 39.3327 42.7162 41.1289 42.7162 41.1289L43.3316 45.7059Z" fill="#FFBF9D"/>
<path id="Vector_104" d="M42.7266 41.1294C43.0457 41.4486 43.9261 42.4541 44.0346 43.2802C44.0346 42.6878 43.7529 41.7532 42.8726 40.8457L42.7266 41.1294Z" fill="#B5675E"/>
<g id="arm">
<path id="Vector_105" d="M47.0591 35.1816C45.2484 35.4695 45.0022 36.1392 44.1719 38.0167C43.5607 39.3852 43.1184 40.3448 43.1184 40.3448C44.0926 40.7621 45.4132 42.3601 45.5112 43.2091L47.3157 40.1362C48.0542 38.8845 47.3595 35.6761 47.0591 35.1816Z" fill="#455A64"/>
</g>
</g>
<g id="character">
<g id="bottom_2">
<path id="Vector_106" d="M36.1107 65.3779C36.044 63.7632 36.578 54.0605 36.578 54.0605L31.8258 56.4826C32.4516 62.3363 32.921 65.1234 32.9189 65.5969C32.8976 65.6715 32.887 65.7488 32.8877 65.8264C32.8689 66.8966 34.1247 67.5099 35.099 68.2505C35.9297 68.9029 36.8138 69.4842 37.7421 69.9883C38.4535 70.3512 39.9138 70.4222 40.1057 69.9883C38.9208 69.0787 37.546 68.0836 36.6114 67.0677C36.1629 66.5649 36.1566 66.5002 36.1107 65.3779Z" fill="#B5675E"/>
<path id="Vector_107" d="M42.1354 71.1953C42.1959 71.1953 42.2752 71.8483 41.9268 72.1132C41.5325 72.4199 40.381 72.9122 38.8831 72.6848C37.3853 72.4574 36.5884 71.9943 35.9896 71.4978C35.3909 71.0013 34.5711 70.3045 33.8931 70.1418C33.2672 69.9916 32.5851 69.7016 32.3869 69.516C32.1887 69.3303 32.2367 68.5 32.2367 68.5L42.1354 71.1953Z" fill="black"/>
<path id="Vector_108" d="M37.5898 67.4513C37.4959 67.3574 37.4041 67.2594 37.3144 67.1613C37.0845 66.898 36.9011 66.5975 36.772 66.2726C36.7036 66.1374 36.6437 65.9981 36.5926 65.8554C36.5363 65.6468 36.5008 65.4507 36.4549 65.2504C36.4369 65.153 36.4082 65.0578 36.3694 64.9667C36.3455 64.9047 36.2983 64.8546 36.2379 64.8269C36.2007 64.8206 36.1626 64.8206 36.1253 64.8269C35.5637 64.8595 35.0138 65.0012 34.5064 65.2441C34.3729 65.3088 34.2645 65.386 34.2603 65.5383C34.2785 65.7123 34.2585 65.8881 34.2019 66.0536C34.1892 66.0838 34.1691 66.1104 34.1435 66.1308C34.1234 66.1421 34.1008 66.148 34.0777 66.148C34.0547 66.148 34.0321 66.1421 34.012 66.1308C33.971 66.1089 33.9359 66.0774 33.9098 66.039C33.7554 65.8304 33.7137 65.5508 33.5385 65.3631C33.4414 65.263 33.315 65.1965 33.1776 65.1732C33.1108 65.1607 32.8855 65.1607 32.8688 65.0668L32.8167 64.6308C32.8167 64.6308 32.679 64.5703 32.6081 64.8394C32.552 65.1105 32.524 65.3866 32.5246 65.6635C32.5037 65.9639 32.4704 66.1996 32.4245 66.4979C32.3702 66.8546 32.3202 67.2093 32.2722 67.566C32.2005 67.9088 32.1773 68.2599 32.2033 68.6091C32.2246 68.7626 32.3037 68.9021 32.4245 68.9992C32.6063 69.1747 32.8183 69.3161 33.0503 69.4164C33.3674 69.5583 33.697 69.6709 34.0204 69.7982C34.783 70.1395 35.4914 70.5908 36.1232 71.1375C36.8158 71.7112 38.2907 72.3078 39.2691 72.3496C40.7649 72.4121 41.8309 71.9615 42.1417 71.4588C42.1835 71.1104 42.2189 70.7516 42.0687 70.4971C41.5785 69.6626 40.4248 69.358 39.5111 68.8719C39.1123 68.6514 38.729 68.404 38.3637 68.1314C38.0869 67.9271 37.8279 67.6996 37.5898 67.4513Z" fill="#37474F"/>
<path id="Vector_109" d="M36.7825 69.6561C36.8096 69.6713 36.841 69.6769 36.8717 69.672C36.9024 69.6671 36.9305 69.6519 36.9515 69.629C37.5878 68.9739 38.804 68.5609 39.2254 68.6965C39.2254 68.6965 39.169 68.5004 38.7518 68.3919C38.7518 68.3919 37.6629 68.3147 36.6177 69.3599C36.6028 69.3752 36.5916 69.3937 36.585 69.414C36.5784 69.4344 36.5765 69.4559 36.5795 69.4771C36.5826 69.4982 36.5904 69.5184 36.6024 69.5361C36.6145 69.5537 36.6304 69.5684 36.649 69.5789L36.7825 69.6561Z" fill="#FAFAFA"/>
<path id="Vector_110" d="M38.1843 67.9863C37.7316 67.8277 36.6593 68.3326 36.1357 68.8687C36.1142 68.8919 36.0851 68.9066 36.0536 68.91C36.0222 68.9135 35.9906 68.9055 35.9646 68.8875L35.829 68.7895C35.8117 68.7786 35.7972 68.7639 35.7868 68.7464C35.7763 68.7289 35.7701 68.7092 35.7686 68.6889C35.7672 68.6685 35.7706 68.6481 35.7786 68.6294C35.7865 68.6106 35.7988 68.594 35.8144 68.5808C36.1106 68.295 36.9618 67.5628 37.8088 67.6567C37.8088 67.6734 38.1467 67.8215 38.1843 67.9863Z" fill="#FAFAFA"/>
<path id="Vector_111" d="M37.3145 67.1624C36.9911 67.0977 36.1441 67.3001 35.4474 67.8738C35.4343 67.8849 35.4189 67.893 35.4023 67.8975C35.3857 67.9021 35.3683 67.9028 35.3513 67.8999C35.3344 67.8969 35.3183 67.8902 35.3043 67.8803C35.2902 67.8703 35.2785 67.8574 35.27 67.8425L35.2033 67.7215C35.19 67.6975 35.1855 67.6696 35.1904 67.6426C35.1954 67.6156 35.2095 67.5911 35.2304 67.5734C35.4745 67.3648 36.2839 66.766 37.0725 66.8474C37.1797 66.9291 37.2632 67.0378 37.3145 67.1624Z" fill="#FAFAFA"/>
<path id="Vector_112" d="M40.0639 69.1328C38.2114 69.5772 37.523 70.7871 37.2101 71.7739C37.8556 72.0819 38.5506 72.2733 39.2628 72.3392C40.7586 72.4018 41.8246 71.9512 42.1355 71.4484C42.1772 71.1 42.2127 70.7412 42.0625 70.4867C41.6682 69.8129 40.8483 69.4833 40.0639 69.1328Z" fill="#C02FD8"/>
<path id="Vector_113" d="M40.0639 69.1328C38.5619 69.1808 37.1955 70.4659 37.2101 71.7739C37.8556 72.0819 38.5506 72.2733 39.2628 72.3392C40.7586 72.4018 41.8246 71.9512 42.1355 71.4484C42.1772 71.1 42.2127 70.7412 42.0624 70.4867C41.6682 69.8129 40.8483 69.4833 40.0639 69.1328Z" fill="#FAFAFA"/>
<path id="Vector_114" d="M28.3148 58.703L23.7983 58.1836C23.9298 60.543 23.8588 63.6952 23.8234 66.3488C23.711 66.9303 23.7032 67.5273 23.8004 68.1116C23.9047 68.6185 23.2017 72.2838 23.4541 73.3269C23.8359 74.9145 26.3101 74.3512 26.3956 73.3874C26.4811 72.4236 26.721 70.4835 26.9818 67.9342C27.2071 65.7667 28.2961 58.8574 28.3148 58.703Z" fill="#B5675E"/>
<path id="Vector_115" d="M27.0026 73.9831L25.4109 70.687C24.9937 70.4637 24.4805 69.9944 24.0215 70.2697C23.8602 70.358 23.7108 70.4667 23.5772 70.5931C23.2392 70.9477 23.2205 71.4463 23.1328 71.8969C23.0452 72.3475 22.7323 72.7689 22.6739 73.2341C22.5612 74.1145 22.5404 74.6694 22.797 75.4705C23.0536 76.2716 23.84 76.7034 24.6328 76.912C25.292 77.0872 26.1181 76.8911 26.4686 76.3237C26.9171 75.6144 26.9964 74.926 27.0026 73.9831Z" fill="black"/>
<path id="Vector_116" d="M26.9817 73.9538C26.3559 73.1569 23.4353 72.942 22.6467 73.691C22.6467 73.5846 22.6613 73.4678 22.6718 73.3488C22.7698 72.2286 22.8595 72.0367 23.1161 70.9998C23.2588 70.5215 23.3669 70.0335 23.4395 69.5395C23.4916 69.0284 23.5375 67.9749 23.5625 67.6161C23.5621 67.2609 23.5865 66.9061 23.6356 66.5543C23.6585 66.45 23.6856 66.3269 23.8233 66.3457C23.8233 66.3457 23.8233 66.523 23.8087 66.6294C23.7941 66.7358 23.8087 66.838 23.7941 66.9381C23.7795 67.1572 23.7941 67.3554 23.7941 67.564C23.791 67.6482 23.803 67.7323 23.8296 67.8122C23.836 67.8305 23.8485 67.846 23.865 67.856C23.9297 67.8831 23.9193 67.7371 23.9234 67.7079L24.0069 67.1655C24.0079 67.1376 24.0174 67.1107 24.034 67.0883C24.0496 67.0716 24.0689 67.0588 24.0903 67.0508C24.5409 66.8609 24.8768 66.7003 25.342 66.7671C25.6046 66.7988 25.8637 66.8547 26.116 66.934C26.2996 66.9924 26.625 67.0862 26.7418 67.2615C26.7815 67.3468 26.7925 67.4427 26.7731 67.5348C26.7523 67.7788 26.7251 68.0521 26.698 68.3275C26.6667 68.6592 27.0589 67.541 27.1152 66.9131C27.2926 66.9506 27.2738 67.1426 27.1528 67.8894C26.9937 68.8262 26.8975 69.7727 26.8649 70.7224C26.8395 71.4786 26.8569 72.2357 26.9171 72.99C26.9421 73.3363 26.9692 73.6534 26.9817 73.9538Z" fill="#37474F"/>
<path id="Vector_117" d="M23.6273 72.6799C24.4617 72.5423 25.7844 72.6925 26.3914 72.9511C26.4032 72.9566 26.4163 72.9589 26.4292 72.9578C26.4422 72.9567 26.4546 72.9522 26.4654 72.9449C26.4761 72.9375 26.4847 72.9275 26.4904 72.9158C26.4961 72.9041 26.4987 72.8911 26.4978 72.8781V72.6194C26.4979 72.6052 26.494 72.5913 26.4866 72.5792C26.4793 72.567 26.4687 72.5571 26.4561 72.5506C25.5663 72.179 24.5833 72.0916 23.6419 72.3003C23.6258 72.3036 23.6112 72.3117 23.6 72.3237C23.5888 72.3357 23.5816 72.3508 23.5793 72.367L23.5438 72.5923C23.5422 72.6038 23.5432 72.6156 23.5468 72.6267C23.5503 72.6377 23.5564 72.6479 23.5644 72.6563C23.5724 72.6647 23.5822 72.6712 23.5931 72.6753C23.604 72.6794 23.6157 72.681 23.6273 72.6799Z" fill="#FAFAFA"/>
<path id="Vector_118" d="M23.8922 71.3939C24.729 71.27 25.5838 71.3797 26.3622 71.711C26.3734 71.7163 26.3857 71.7187 26.3981 71.7179C26.4105 71.7172 26.4224 71.7132 26.4328 71.7066C26.4433 71.6999 26.4518 71.6907 26.4577 71.6798C26.4636 71.6689 26.4666 71.6567 26.4665 71.6443V71.4065C26.4652 71.3931 26.4606 71.3803 26.4529 71.3694C26.4452 71.3584 26.4348 71.3496 26.4227 71.3439C26.1995 71.2458 25.4109 70.7827 23.9026 71.0435C23.8876 71.0462 23.8737 71.0535 23.8629 71.0643C23.8521 71.0751 23.8449 71.0889 23.8421 71.104L23.8087 71.3126C23.8084 71.3235 23.8104 71.3344 23.8145 71.3446C23.8186 71.3547 23.8248 71.3639 23.8326 71.3715C23.8405 71.3792 23.8498 71.3851 23.8601 71.389C23.8703 71.3928 23.8813 71.3945 23.8922 71.3939Z" fill="#FAFAFA"/>
<path id="Vector_119" d="M24.1196 70.2248C24.9012 70.0993 25.7023 70.2022 26.4269 70.5211C26.4379 70.5255 26.4498 70.5271 26.4615 70.5259C26.4733 70.5247 26.4846 70.5206 26.4945 70.514C26.5043 70.5075 26.5125 70.4986 26.5181 70.4882C26.5238 70.4778 26.5268 70.4661 26.527 70.4543V70.2227C26.5275 70.2098 26.5239 70.197 26.5168 70.1862C26.5097 70.1753 26.4994 70.167 26.4874 70.1622C26.2787 70.0663 25.5444 69.6219 24.1321 69.8848C24.1174 69.8869 24.1037 69.8937 24.0932 69.9043C24.0826 69.9148 24.0758 69.9285 24.0737 69.9432L24.0424 70.1518C24.0421 70.1619 24.0439 70.1718 24.0477 70.1811C24.0515 70.1904 24.0572 70.1988 24.0645 70.2057C24.0718 70.2126 24.0805 70.2179 24.09 70.2212C24.0995 70.2245 24.1096 70.2257 24.1196 70.2248Z" fill="#FAFAFA"/>
<path id="Vector_120" d="M22.653 73.7012C22.653 74.4918 22.7301 75.0279 23.162 75.6079C23.7106 76.3506 25.682 77.0077 26.4998 75.8645C26.9045 75.2971 26.9838 74.6441 27.0046 73.987C26.4247 73.1629 23.4415 72.9397 22.653 73.7012Z" fill="#FAFAFA"/>
<path id="Vector_121" d="M24.2636 33.921C23.765 39.0237 24.0007 45.1465 23.8881 48.4301C23.7754 51.7137 23.3978 53.9563 23.4875 56.4514C23.6523 60.9762 23.8004 65.7034 23.8004 65.7034C23.8004 65.7034 25.6926 66.5379 27.3093 65.9683C27.3093 65.9683 28.8343 56.418 29.1869 53.7769C29.7001 50.0219 30.5095 43.8364 30.5095 43.8364L31.4274 50.898C31.2199 52.6464 31.2311 54.4137 31.4608 56.1593C31.6902 57.8073 32.6728 64.0574 32.6728 64.0574C32.6728 64.0574 34.8299 64.9962 36.2422 63.5839C36.2422 63.5839 36.9327 51.8806 36.9807 50.3598C37.0475 48.2048 37.012 31.9246 37.0808 30.5039L24.2636 33.921Z" fill="#C02FD8"/>
<g id="Group" opacity="0.35">
<path id="Vector_122" d="M24.2632 33.921C23.7646 39.0237 24.0004 45.1465 23.8877 48.4301C23.775 51.7137 23.3975 53.9563 23.4872 56.4514C23.652 60.9762 23.8001 65.7034 23.8001 65.7034C23.8001 65.7034 25.6922 66.5379 27.309 65.9683C27.309 65.9683 28.8339 56.418 29.1865 53.7769C29.6997 50.0219 30.5091 43.8364 30.5091 43.8364L31.427 50.898C31.2195 52.6464 31.2308 54.4137 31.4604 56.1593C31.6899 57.8073 32.6724 64.0574 32.6724 64.0574C32.6724 64.0574 34.8295 64.9962 36.2418 63.5839C36.2418 63.5839 36.9324 51.8806 36.9803 50.3598C37.0471 48.2048 37.0116 31.9246 37.0805 30.5039L24.2632 33.921Z" fill="black"/>
</g>
<path id="Vector_123" opacity="0.3" d="M30.5177 43.837L30.985 40.0548C30.985 40.0548 33.5113 39.2704 34.546 37.541C33.9014 39.6647 31.5712 40.6702 31.5712 40.6702L30.8598 44.3585L31.4356 50.9069L30.5177 43.837Z" fill="black"/>
</g>
<g id="top">
<g id="Chest">
<path id="Vector_124" d="M24.3952 17.2116C24.3952 17.2116 23.3981 19.5188 23.4148 21.5174C23.4294 23.4178 24.1887 26.1528 24.2868 29.1068C24.3577 31.2221 24.0782 35.384 24.0782 35.384C26.2269 37.2511 34.9574 38.0521 37.2083 35.3089C37.2083 35.3089 37.2083 30.7402 37.1708 27.1541C37.1458 24.753 36.9622 21.9283 36.7536 20.6474C36.2529 17.6789 35.6729 17.368 35.0992 16.9299C33.979 16.6441 32.7607 16.3041 32.7607 16.3041C32.7607 16.3041 31.4756 15.9056 29.0745 16.1601C28.5863 16.2123 27.7539 16.2165 27.2783 16.3542C25.9661 16.7234 24.3952 17.2116 24.3952 17.2116Z" fill="#37474F"/>
</g>
<g id="Head">
<path id="Vector_125" d="M35.8103 9.81781C36.3569 8.70172 35.9396 7.17258 35.3785 6.43617C34.569 5.37432 33.2548 4.87156 31.2396 4.90703C29.7062 4.93415 28.175 5.50158 27.8183 7.05575C26.5666 7.36867 26.6229 9.39223 26.8899 10.2955C27.4282 12.1293 28.5776 13.7544 28.5589 14.6764L35.8103 9.81781Z" fill="#263238"/>
<path id="Vector_126" d="M35.4577 14.0614C35.2095 14.9313 34.8048 15.553 33.9974 15.6427C33.5726 15.6658 33.1466 15.649 32.7249 15.5926L32.7061 16.7045C33.0503 17.6016 32.9898 18.7802 32.5643 20.7224C31.4795 19.0994 29.4559 17.9729 28.5213 16.7442L28.5756 12.9891C28.5756 12.9891 28.0561 13.5273 27.2675 12.962C26.9508 12.7039 26.7327 12.3445 26.6498 11.9444C26.567 11.5443 26.6245 11.1279 26.8128 10.7653C27.2529 9.93082 28.0457 10.3209 28.2731 10.59C28.5005 10.8592 28.7696 11.3056 28.9886 11.2993C29.3245 11.2993 29.4204 11.0156 29.5122 10.8112C29.7235 10.2905 29.8374 9.73538 29.8481 9.17355C30.0917 9.06132 30.313 8.90581 30.5011 8.7146C30.8407 8.38533 31.0547 7.94778 31.1061 7.47752C32.873 7.01022 34.8611 7.35861 35.5641 7.95107C35.948 8.70417 35.8958 10.5003 35.8395 11.485C35.8212 12.3564 35.6929 13.2221 35.4577 14.0614Z" fill="#B5675E"/>
<path id="Vector_127" d="M32.7124 15.5813C31.8216 15.4916 30.0484 14.993 29.5832 14.4736C29.118 13.9541 28.9719 12.9277 28.9719 12.9277C28.9719 12.9277 28.9844 14.217 29.3287 14.8053C29.6729 15.3936 30.5303 15.792 31.0894 15.9568C31.6484 16.1216 32.6915 16.3052 32.6915 16.3052L32.7124 15.5813Z" fill="#C17560"/>
<path id="Vector_128" d="M35.7748 12.3918C35.7435 12.8215 35.0301 12.9425 34.1059 12.7256C33.6529 12.6269 33.1861 12.6092 32.727 12.6734C32.3369 12.713 31.9113 12.882 31.2521 12.882C31.0253 12.8879 30.8006 12.8374 30.5982 12.7351C30.3958 12.6328 30.2219 12.4819 30.0922 12.2958C29.7167 11.768 29.7021 10.6269 29.773 9.93848L28.4879 10.8397C28.6712 11.1594 28.8016 11.5067 28.8739 11.8682C29.0053 12.494 28.7862 13.2596 29.1304 14.1838C29.5602 15.3312 31.5587 15.8986 33.1546 15.957C34.3667 16.0008 34.9758 15.5398 35.3159 15.0829C35.61 14.6865 35.7998 13.5329 35.7748 12.3918Z" fill="#263238"/>
<path id="Vector_129" d="M32.5184 13.1592L33.4029 13.3282C33.3943 13.387 33.374 13.4436 33.3431 13.4945C33.3123 13.5454 33.2715 13.5895 33.2233 13.6244C33.175 13.6592 33.1202 13.684 33.0622 13.6972C33.0042 13.7105 32.9441 13.712 32.8855 13.7016C32.766 13.6764 32.6609 13.6057 32.5924 13.5045C32.5239 13.4034 32.4974 13.2795 32.5184 13.1592Z" fill="#9A4A4D"/>
<path id="Vector_130" d="M32.5455 10.6997C32.5378 10.7729 32.5088 10.8422 32.4621 10.8992C32.4155 10.9561 32.3532 10.9981 32.283 11.0201C32.2127 11.0421 32.1376 11.0431 32.0668 11.023C31.996 11.0029 31.9326 10.9625 31.8845 10.9068C31.8363 10.8512 31.8055 10.7827 31.7958 10.7097C31.7861 10.6368 31.7979 10.5625 31.8298 10.4962C31.8617 10.4299 31.9122 10.3743 31.9753 10.3364C32.0383 10.2984 32.1111 10.2797 32.1846 10.2825C32.236 10.2854 32.2863 10.2986 32.3325 10.3213C32.3787 10.344 32.4198 10.3757 32.4535 10.4146C32.4872 10.4536 32.5127 10.4989 32.5285 10.5478C32.5443 10.5968 32.5501 10.6485 32.5455 10.6997Z" fill="#263238"/>
<path id="Vector_131" d="M32.12 8.81048L31.2083 9.13801C31.1664 9.01343 31.1746 8.87744 31.231 8.75873C31.2874 8.64003 31.3878 8.54788 31.5108 8.50173C31.571 8.48038 31.6349 8.47149 31.6986 8.47558C31.7624 8.47967 31.8246 8.49667 31.8816 8.52554C31.9385 8.55441 31.9891 8.59456 32.03 8.64354C32.071 8.69252 32.1016 8.74932 32.12 8.81048Z" fill="#263238"/>
<path id="Vector_132" d="M35.5767 9.26291L34.6462 8.96459C34.6622 8.90287 34.6906 8.84506 34.7298 8.79473C34.7689 8.74439 34.8179 8.7026 34.8738 8.67192C34.9297 8.64124 34.9913 8.62232 35.0547 8.61633C35.1182 8.61033 35.1822 8.61739 35.2429 8.63707C35.3687 8.67792 35.4738 8.76595 35.536 8.88267C35.5982 8.99938 35.6128 9.13568 35.5767 9.26291Z" fill="#263238"/>
<path id="Vector_133" d="M35.4244 10.7733C35.4186 10.8472 35.3913 10.9177 35.3457 10.9761C35.3001 11.0345 35.2383 11.0782 35.1681 11.1018C35.0979 11.1253 35.0223 11.1277 34.9507 11.1086C34.8791 11.0895 34.8147 11.0498 34.7655 10.9944C34.7164 10.939 34.6846 10.8703 34.6742 10.797C34.6637 10.7236 34.6751 10.6488 34.7069 10.5819C34.7386 10.515 34.7894 10.4589 34.8528 10.4206C34.9162 10.3823 34.9895 10.3635 35.0635 10.3665C35.1652 10.373 35.2602 10.4194 35.3278 10.4956C35.3954 10.5718 35.4301 10.6716 35.4244 10.7733Z" fill="#263238"/>
<path id="Vector_134" d="M30.6429 9.39453L27.812 10.2916C28.0012 10.3653 28.1725 10.4784 28.3148 10.6233L30.6095 9.94527L30.6429 9.39453Z" fill="#455A64"/>
<path id="Vector_135" d="M36.4006 9.55927L36.24 9.53424C35.6975 9.44015 35.1428 9.44015 34.6003 9.53424C34.0683 9.68027 33.8722 9.85342 33.5843 9.84716C33.2964 9.8409 33.092 9.64897 32.5412 9.47165C32.1073 9.32979 31.3668 9.32353 30.7993 9.36526L30.622 9.37986C30.5592 9.3998 30.5049 9.44025 30.4678 9.49472C30.4308 9.54919 30.4131 9.61453 30.4176 9.68027C30.4311 9.80781 30.481 9.92876 30.5615 10.0287C30.5873 10.0713 30.6037 10.1189 30.6095 10.1684C30.6343 10.4897 30.6845 10.8085 30.7597 11.1218C30.808 11.2487 30.8787 11.366 30.9683 11.4681C31.0013 11.506 31.0376 11.5409 31.0768 11.5724L31.1394 11.6204C31.1987 11.6608 31.2624 11.6944 31.3292 11.7205L31.3605 11.733L31.4126 11.7497L31.4606 11.7664C31.5175 11.7813 31.5754 11.7925 31.6338 11.7998H31.7068H31.7986C32.0505 11.8303 32.3057 11.7827 32.5296 11.6632C32.7535 11.5438 32.9353 11.3584 33.0503 11.1322C33.2589 10.7797 33.2401 10.2706 33.5718 10.2832H33.6031H33.6323C33.8722 10.3478 33.8117 10.811 33.9431 11.151C33.9915 11.2862 34.062 11.4124 34.1517 11.5244C34.1684 11.5453 34.1872 11.5641 34.2039 11.5828L34.2331 11.6099C34.2418 11.62 34.2516 11.6291 34.2623 11.6371L34.2894 11.66L34.3186 11.683L34.3416 11.6997L34.3583 11.7101C34.444 11.7653 34.5376 11.8075 34.6357 11.8353H34.6629C34.776 11.8646 34.8923 11.8807 35.0092 11.8832C35.2287 11.9021 35.4486 11.8519 35.6382 11.7397C35.8278 11.6275 35.9777 11.4589 36.0668 11.2574C36.1808 10.9512 36.2708 10.6367 36.3359 10.3165C36.3489 10.2707 36.3725 10.2285 36.4048 10.1935C36.4948 10.0978 36.5557 9.97835 36.58 9.84924C36.5863 9.78789 36.5721 9.72618 36.5397 9.67373C36.5072 9.62129 36.4583 9.58104 36.4006 9.55927ZM32.8688 10.7943C32.8182 10.9795 32.7204 11.1484 32.5851 11.2845C32.478 11.3835 32.3515 11.459 32.2135 11.5061C32.0755 11.5531 31.9292 11.5708 31.784 11.5578C31.6398 11.5614 31.4971 11.5275 31.3698 11.4595C31.2426 11.3915 31.1351 11.2917 31.058 11.1698C31.0496 11.1577 31.0419 11.1452 31.0351 11.1322L31.0163 11.0968L30.9996 11.0634L30.9871 11.0321C30.9862 11.0238 30.9862 11.0154 30.9871 11.0071C30.9862 11.0001 30.9862 10.9931 30.9871 10.9862L30.9746 10.9507C30.9622 10.9159 30.9518 10.8803 30.9433 10.8443C30.9433 10.8235 30.9328 10.8026 30.9287 10.7817C30.9245 10.7609 30.9161 10.7087 30.9099 10.6795C30.911 10.6733 30.911 10.667 30.9099 10.6608V10.642C30.8702 10.3896 30.839 9.89305 30.9683 9.78666C31.0976 9.68027 31.4335 9.57804 31.9634 9.64271H32.0218C32.1011 9.65523 32.1824 9.67192 32.2617 9.69278L32.3556 9.7199C32.4343 9.74394 32.5117 9.7725 32.5871 9.80543L32.6581 9.83881L32.7353 9.87845H32.7499C32.7596 9.88277 32.7687 9.88838 32.777 9.89514C32.837 9.92874 32.889 9.97502 32.9293 10.0307C33.0023 10.1914 32.948 10.5147 32.8688 10.7943ZM35.998 10.7817C35.9437 10.9778 35.8248 11.4076 35.4389 11.5703C35.3122 11.6257 35.1745 11.6514 35.0363 11.6454C34.8831 11.6567 34.7298 11.6254 34.5932 11.5551C34.4567 11.4848 34.3422 11.3782 34.2623 11.247L34.2498 11.2219C34.2437 11.2136 34.2388 11.2045 34.2352 11.1948V11.1823L34.2164 11.1406L34.1976 11.0947C34.1988 11.0871 34.1988 11.0793 34.1976 11.0717C34.1985 11.0676 34.1985 11.0633 34.1976 11.0592C34.1969 11.0523 34.1969 11.0453 34.1976 11.0383V11.0237C34.1804 10.9622 34.1678 10.8994 34.1601 10.836C34.1246 10.5564 34.1163 10.2289 34.2269 10.0787C34.3374 9.92852 34.7442 9.77206 35.126 9.73451C35.2157 9.73451 35.297 9.73451 35.3742 9.73451H35.4347H35.5182H35.5495H35.5891H35.6559L35.7769 9.76162H35.8061H35.8269H35.8561L35.8895 9.77414L35.9458 9.79918H35.9563C36.0027 9.82185 36.045 9.85217 36.0814 9.88888C36.1586 10.0433 36.0606 10.5335 35.9917 10.7817H35.998Z" fill="#455A64"/>
<path id="Vector_136" d="M34.6504 12.0691L33.3007 12.3445V10.444C33.321 10.396 33.3554 10.3554 33.3993 10.3274C33.4433 10.2995 33.4948 10.2856 33.5468 10.2876H33.5802C33.5891 10.2857 33.5984 10.2857 33.6073 10.2876C33.6516 10.2981 33.6903 10.3249 33.7158 10.3627C33.8744 10.5603 34.0181 10.7695 34.1455 10.9885C34.2299 11.1221 34.3044 11.2615 34.3688 11.4057C34.4376 11.5455 34.5023 11.6874 34.5565 11.823C34.6108 11.9586 34.6504 12.0691 34.6504 12.0691Z" fill="#C17560"/>
</g>
<path id="Vector_137" d="M32.5603 20.7115C32.3871 20.4591 31.6841 19.6684 30.8538 19.8771C30.107 20.0565 29.6376 20.8346 29.6376 20.8346C29.6376 20.8346 28.6362 20.0544 27.8289 18.3041C27.562 17.6819 27.3802 17.0265 27.2886 16.3557C27.7162 15.9635 28.123 15.4628 28.2795 15.3731C28.3184 15.3463 28.3631 15.3293 28.41 15.3235C28.4568 15.3177 28.5044 15.3233 28.5486 15.3397V15.7569C28.7481 16.5216 29.152 17.2175 29.7168 17.7701C30.6723 18.7526 32.3329 19.2909 32.5603 20.7115Z" fill="#263238"/>
<path id="Vector_138" d="M32.5603 20.7105C32.6982 20.0946 32.7592 19.4639 32.7418 18.8329C32.7084 18.3156 32.6938 16.9825 32.6938 16.9825L32.7105 16.1689C32.7105 16.1689 32.9754 16.2002 33.2404 16.6488C33.5438 17.121 33.7922 17.6263 33.981 18.155C34.2242 18.7609 34.3821 19.3977 34.4503 20.0471C33.8892 19.392 33.3968 19.7029 33.1653 20.0095C32.9337 20.3162 32.5603 20.7105 32.5603 20.7105Z" fill="#263238"/>
<path id="Vector_139" d="M33.0922 13.6894C33.0817 13.6256 33.0581 13.5647 33.0231 13.5104C32.988 13.4562 32.9421 13.4097 32.8883 13.3739C32.8345 13.3381 32.7739 13.3137 32.7103 13.3023C32.6467 13.2909 32.5814 13.2927 32.5186 13.3076C32.5313 13.4033 32.5735 13.4926 32.6392 13.5633C32.705 13.6339 32.7912 13.6824 32.8857 13.7019C32.9545 13.7151 33.0255 13.7108 33.0922 13.6894Z" fill="#C17560"/>
<path id="Vector_140" d="M29.1662 38.4317C29.1474 38.3441 29.066 38.3253 28.9868 38.3065C28.8178 38.2669 28.653 38.2335 28.4861 38.1897C28.2276 38.1082 27.9753 38.0085 27.7309 37.8914C27.3902 37.764 27.0418 37.6581 26.6878 37.5743C26.5204 37.5194 26.3567 37.4539 26.1976 37.3782C25.9391 37.2737 25.713 37.1023 25.5425 36.8817C25.3813 36.6768 25.2415 36.4559 25.1253 36.2225C25.0362 36.0463 24.9589 35.8644 24.8937 35.678C23.9425 35.6349 23.1317 36.2246 22.4613 37.447C22.5698 37.6327 22.6699 37.7996 22.7575 37.9414C23.4877 39.1159 23.4105 40.2717 24.5683 41.4879C25.4859 41.3552 26.3158 40.8704 26.8818 40.1361C27.0537 39.8994 27.194 39.6413 27.2991 39.3684C27.2198 39.2641 27.0404 39.0054 27.3262 38.9887C27.4089 38.9844 27.4917 38.9844 27.5744 38.9887C27.7643 39.0054 27.9541 39.02 28.1419 39.0221C28.387 39.0509 28.6353 39.0067 28.8553 38.8948C29.0118 38.8009 29.2162 38.6549 29.1662 38.4317Z" fill="#B5675E"/>
<path id="Vector_141" d="M24.5766 41.4903C25.4916 41.3551 26.3181 40.8696 26.8818 40.1364C27.0454 39.9115 27.1787 39.666 27.2782 39.4062C27.0691 39.7926 26.7854 40.1336 26.4437 40.4097C25.7282 41.0355 25.0919 41.0606 24.7143 40.9583C24.3367 40.8561 23.9195 40.4702 23.6713 40.0884C23.8835 40.6078 24.1905 41.0832 24.5766 41.4903Z" fill="#C17560"/>
<path id="Vector_142" d="M24.5203 17.1729C22.3653 17.7987 21.752 18.0386 21.1824 19.7492C20.7506 21.0385 19.2423 26.2163 18.8877 27.6557C18.533 29.0952 18.5101 29.3246 19.2256 31.2668C19.9913 33.353 22.4654 37.6233 22.4654 37.6233C23.158 36.7889 24.1114 36.115 25.0189 35.9899L23.35 29.1849L25.5404 23.11C25.5404 23.11 26.2956 19.0149 24.5203 17.1729Z" fill="#263238"/>
</g>
</g>
</g>
</g>
</g>
</svg>
