<svg width="24" height="25" viewBox="0 0 24 25" fill="none" xmlns="http://www.w3.org/2000/svg">
<g id="vuesax/outline/arrow-right">
<g id="arrow-right">
<path id="Vector" d="M14.4301 18.8602C14.2401 18.8602 14.0501 18.7902 13.9001 18.6402C13.6101 18.3502 13.6101 17.8702 13.9001 17.5802L19.4401 12.0402L13.9001 6.50016C13.6101 6.21016 13.6101 5.73016 13.9001 5.44016C14.1901 5.15016 14.6701 5.15016 14.9601 5.44016L21.0301 11.5102C21.3201 11.8002 21.3201 12.2802 21.0301 12.5702L14.9601 18.6402C14.8101 18.7902 14.6201 18.8602 14.4301 18.8602Z" fill="#FEBB00"/>
<path id="Vector_2" d="M20.33 12.791H3.5C3.09 12.791 2.75 12.451 2.75 12.041C2.75 11.631 3.09 11.291 3.5 11.291H20.33C20.74 11.291 21.08 11.631 21.08 12.041C21.08 12.451 20.74 12.791 20.33 12.791Z" fill="#FEBB00"/>
</g>
</g>
</svg>
