<svg width="24" height="24" viewBox="0 0 24 24" fill="none" xmlns="http://www.w3.org/2000/svg">
<g id="vuesax/outline/teacher">
<g id="teacher">
<path id="Vector" d="M12.0098 17.0003C11.1598 17.0003 10.2998 16.7803 9.62982 16.3503L3.60982 12.4203C2.48982 11.6903 1.81982 10.4603 1.81982 9.12028C1.81982 7.78028 2.48982 6.55028 3.60982 5.82028L9.63982 1.90028C10.9798 1.03028 13.0698 1.03028 14.3998 1.91028L20.3898 5.84028C21.4998 6.57028 22.1698 7.80028 22.1698 9.13028C22.1698 10.4603 21.4998 11.6903 20.3898 12.4203L14.3998 16.3503C13.7298 16.7903 12.8698 17.0003 12.0098 17.0003ZM12.0098 2.75028C11.4398 2.75028 10.8698 2.88028 10.4598 3.16028L4.43982 7.08028C3.73982 7.54028 3.32982 8.28028 3.32982 9.12028C3.32982 9.96028 3.72982 10.7003 4.43982 11.1603L10.4598 15.0903C11.2898 15.6303 12.7498 15.6303 13.5798 15.0903L19.5698 11.1603C20.2698 10.7003 20.6698 9.96028 20.6698 9.12028C20.6698 8.28028 20.2698 7.54028 19.5698 7.08028L13.5798 3.15028C13.1598 2.89028 12.5898 2.75028 12.0098 2.75028Z" fill="#4F4F4F"/>
<path id="Vector_2" d="M12.0002 22.7501C11.5602 22.7501 11.1102 22.6901 10.7502 22.5701L7.56018 21.5101C6.05018 21.0101 4.86018 19.3601 4.87018 17.7701L4.88018 13.0801C4.88018 12.6701 5.22018 12.3301 5.63018 12.3301C6.04018 12.3301 6.38018 12.6701 6.38018 13.0801L6.37018 17.7701C6.37018 18.7101 7.15018 19.7901 8.04018 20.0901L11.2302 21.1501C11.6302 21.2801 12.3702 21.2801 12.7702 21.1501L15.9602 20.0901C16.8502 19.7901 17.6302 18.7101 17.6302 17.7801V13.1401C17.6302 12.7301 17.9702 12.3901 18.3802 12.3901C18.7902 12.3901 19.1302 12.7301 19.1302 13.1401V17.7801C19.1302 19.3701 17.9502 21.0101 16.4402 21.5201L13.2502 22.5801C12.8902 22.6901 12.4402 22.7501 12.0002 22.7501Z" fill="#4F4F4F"/>
<path id="Vector_3" d="M21.3999 15.75C20.9899 15.75 20.6499 15.41 20.6499 15V9C20.6499 8.59 20.9899 8.25 21.3999 8.25C21.8099 8.25 22.1499 8.59 22.1499 9V15C22.1499 15.41 21.8099 15.75 21.3999 15.75Z" fill="#4F4F4F"/>
</g>
</g>
</svg>
