<svg width="24" height="25" viewBox="0 0 24 25" fill="none" xmlns="http://www.w3.org/2000/svg">
<g id="vuesax/outline/clock">
<g id="clock">
<path id="Vector" d="M12 22.8105C6.07 22.8105 1.25 17.9905 1.25 12.0605C1.25 6.13055 6.07 1.31055 12 1.31055C17.93 1.31055 22.75 6.13055 22.75 12.0605C22.75 17.9905 17.93 22.8105 12 22.8105ZM12 2.81055C6.9 2.81055 2.75 6.96055 2.75 12.0605C2.75 17.1605 6.9 21.3105 12 21.3105C17.1 21.3105 21.25 17.1605 21.25 12.0605C21.25 6.96055 17.1 2.81055 12 2.81055Z" fill="#4F4F4F"/>
<path id="Vector_2" d="M15.7101 15.9903C15.5801 15.9903 15.4501 15.9603 15.3301 15.8803L12.2301 14.0303C11.4601 13.5703 10.8901 12.5603 10.8901 11.6703V7.57031C10.8901 7.16031 11.2301 6.82031 11.6401 6.82031C12.0501 6.82031 12.3901 7.16031 12.3901 7.57031V11.6703C12.3901 12.0303 12.6901 12.5603 13.0001 12.7403L16.1001 14.5903C16.4601 14.8003 16.5701 15.2603 16.3601 15.6203C16.2101 15.8603 15.9601 15.9903 15.7101 15.9903Z" fill="#4F4F4F"/>
</g>
</g>
</svg>
