<svg width="24" height="25" viewBox="0 0 24 25" fill="none" xmlns="http://www.w3.org/2000/svg">
<g id="discord-Icon">
<path id="Vector" d="M18.2477 7.39127C17.0825 6.8791 15.8367 6.50685 14.5342 6.29492C14.3742 6.56663 14.1873 6.93208 14.0585 7.2228C12.6739 7.02718 11.302 7.02718 9.94286 7.2228C9.81404 6.93208 9.62288 6.56663 9.46153 6.29492C8.1576 6.50685 6.91031 6.88046 5.74515 7.39398C3.39498 10.7306 2.75789 13.9843 3.07644 17.1918C4.63519 18.2854 6.1458 18.9497 7.63093 19.3845C7.99762 18.9104 8.32466 18.4064 8.6064 17.8751C8.06982 17.6836 7.5559 17.4472 7.07029 17.1728C7.19913 17.0831 7.32513 16.9894 7.44689 16.8929C10.4087 18.1944 13.6267 18.1944 16.5531 16.8929C16.6762 16.9894 16.8022 17.0831 16.9296 17.1728C16.4426 17.4485 15.9273 17.6849 15.3907 17.8765C15.6725 18.4064 15.9981 18.9117 16.3662 19.3858C17.8527 18.9511 19.3647 18.2868 20.9235 17.1918C21.2973 13.4735 20.285 10.2496 18.2477 7.39127ZM9.00988 15.2192C8.12079 15.2192 7.39167 14.4394 7.39167 13.4898C7.39167 12.5402 8.10521 11.759 9.00988 11.759C9.91456 11.759 10.6437 12.5388 10.6281 13.4898C10.6295 14.4394 9.91456 15.2192 9.00988 15.2192ZM14.9901 15.2192C14.101 15.2192 13.3718 14.4394 13.3718 13.4898C13.3718 12.5402 14.0854 11.759 14.9901 11.759C15.8947 11.759 16.6238 12.5388 16.6083 13.4898C16.6083 14.4394 15.8947 15.2192 14.9901 15.2192Z" fill="#5865F2"/>
</g>
</svg>
