<svg width="250" height="222" viewBox="0 0 250 222" fill="none" xmlns="http://www.w3.org/2000/svg">
<g id="FCMB" clip-path="url(#clip0_1195_2111)">
<g id="surface1">
<path id="Vector" d="M9.98498 0.0605469H240.015C245.53 0.0605469 250 4.5307 250 10.0455V240.076C250 245.59 245.53 250.061 240.015 250.061H9.98498C4.47049 250.061 0 245.59 0 240.076V10.0455C0 4.5307 4.47049 0.0605469 9.98498 0.0605469Z" fill="#714E93"/>
<path id="Vector_2" d="M48.2969 100.848V110.084H68.7272V118.588H48.2969V135.165H38.8765V92.3457H71.4778V100.848H48.2969Z" fill="white"/>
<path id="Vector_3" d="M113.196 131.432C111.996 132.381 110.693 133.191 109.311 133.848C107.84 134.541 106.289 135.05 104.694 135.367C102.84 135.731 100.955 135.905 99.0668 135.888C96.0649 135.915 93.0885 135.332 90.3186 134.175C87.7099 133.088 85.3401 131.499 83.3453 129.496C81.3676 127.488 79.8087 125.107 78.7575 122.492C77.6473 119.752 77.0858 116.822 77.1051 113.866V113.745C77.083 110.796 77.6445 107.872 78.7575 105.142C79.8225 102.526 81.3797 100.138 83.3453 98.1093C85.3446 96.0617 87.7375 94.4383 90.3797 93.337C93.2526 92.153 96.336 91.566 99.4428 91.6119C101.279 91.5977 103.112 91.7612 104.917 92.1002C106.457 92.3951 107.964 92.8462 109.413 93.4467C110.729 94.002 111.98 94.6993 113.145 95.5257C114.278 96.3345 115.341 97.2353 116.326 98.2186L110.324 105.129C108.791 103.719 107.072 102.527 105.216 101.586C103.393 100.711 101.393 100.272 99.3721 100.304C97.6559 100.288 95.9552 100.643 94.388 101.343C92.8864 102.016 91.5423 102.995 90.4431 104.218C89.3288 105.462 88.4576 106.904 87.8744 108.468C87.2546 110.122 86.9432 111.873 86.9559 113.638V113.76C86.9452 115.535 87.2563 117.296 87.8744 118.959C88.4486 120.529 89.3067 121.981 90.4052 123.241C92.6718 125.806 95.9421 127.256 99.3652 127.217C101.813 127.217 103.882 126.768 105.575 125.87C107.409 124.872 109.105 123.639 110.62 122.202L116.614 128.257C115.557 129.4 114.414 130.462 113.196 131.432Z" fill="white"/>
<path id="Vector_4" d="M157.665 135.165V107.209L145.613 125.499H145.36L133.431 107.393V135.165H124.145V92.3457H134.296L145.552 110.453L156.807 92.3457H166.961V135.165H157.665Z" fill="white"/>
<path id="Vector_5" d="M204.274 122.136C204.318 120.799 203.7 119.526 202.621 118.735C201.52 117.9 199.748 117.478 197.308 117.469H186.427V126.89H197.622C199.702 126.89 201.332 126.513 202.516 125.759C203.698 125.005 204.288 123.833 204.287 122.242L204.274 122.136ZM201.888 105.008C201.888 103.58 201.358 102.49 200.298 101.736C199.239 100.982 197.71 100.605 195.711 100.605H186.412V109.656H195.091C197.171 109.656 198.822 109.299 200.046 108.585C201.269 107.872 201.88 106.72 201.88 105.129L201.888 105.008ZM212.442 128.558C211.685 130.031 210.572 131.292 209.205 132.227C207.667 133.264 205.952 134.011 204.144 134.43C201.989 134.941 199.78 135.187 197.566 135.165H177.236V92.3457H197.083C201.477 92.3457 204.926 93.3452 207.429 95.3442C209.933 97.3432 211.185 100.034 211.186 103.418V103.553C211.204 104.65 211.05 105.744 210.728 106.794C210.443 107.69 210.035 108.541 209.514 109.324C209.019 110.066 208.422 110.735 207.743 111.314C207.081 111.88 206.358 112.373 205.587 112.781C208.062 113.72 210.01 114.995 211.432 116.604C212.854 118.214 213.564 120.442 213.562 123.29V123.41C213.606 125.192 213.222 126.956 212.442 128.558Z" fill="white"/>
<path id="Vector_6" d="M212.859 162.602V183.568H37.9404V172.542C37.9391 167.053 42.3868 162.603 47.8747 162.602C47.8764 162.602 47.8782 162.602 47.8799 162.602H212.859Z" fill="#F4BB2D"/>
<path id="Vector_7" d="M37.9404 190.355H212.859V211.323H47.8799C42.392 211.324 37.9418 206.876 37.9404 201.389C37.9404 201.386 37.9404 201.383 37.9404 201.381V190.355Z" fill="#F4BB2D"/>
</g>
</g>
<defs>
<clipPath id="clip0_1195_2111">
<rect width="250" height="250" fill="white" transform="translate(0 0.0605469)"/>
</clipPath>
</defs>
</svg>
