<svg width="18" height="19" viewBox="0 0 18 19" fill="none" xmlns="http://www.w3.org/2000/svg">
<g id="Instagram">
<path id="Vector" d="M12.6377 0.21875H5.3623C2.40551 0.21875 0 2.62426 0 5.58105V12.8565C0 15.8132 2.40551 18.2188 5.3623 18.2188H12.6377C15.5945 18.2188 18 15.8132 18 12.8565V5.58105C18 2.62426 15.5945 0.21875 12.6377 0.21875ZM16.1892 12.8565C16.1892 14.8179 14.5991 16.4079 12.6377 16.4079H5.3623C3.40088 16.4079 1.8108 14.8179 1.8108 12.8565V5.58105C1.8108 3.61959 3.40088 2.02955 5.3623 2.02955H12.6377C14.5991 2.02955 16.1892 3.61959 16.1892 5.58105V12.8565Z" fill="url(#paint0_linear_1195_2548)"/>
<path id="Vector_2" d="M9.00017 4.5625C6.43315 4.5625 4.34473 6.65093 4.34473 9.21791C4.34473 11.7849 6.43315 13.8733 9.00017 13.8733C11.5672 13.8733 13.6556 11.7849 13.6556 9.21791C13.6556 6.65089 11.5672 4.5625 9.00017 4.5625ZM9.00017 12.0626C7.4291 12.0626 6.15553 10.789 6.15553 9.21794C6.15553 7.64688 7.42913 6.3733 9.00017 6.3733C10.5712 6.3733 11.8448 7.64688 11.8448 9.21794C11.8448 10.789 10.5712 12.0626 9.00017 12.0626Z" fill="url(#paint1_linear_1195_2548)"/>
<path id="Vector_3" d="M13.6644 5.7135C14.2805 5.7135 14.7799 5.21406 14.7799 4.59796C14.7799 3.98187 14.2805 3.48242 13.6644 3.48242C13.0483 3.48242 12.5488 3.98187 12.5488 4.59796C12.5488 5.21406 13.0483 5.7135 13.6644 5.7135Z" fill="url(#paint2_linear_1195_2548)"/>
</g>
<defs>
<linearGradient id="paint0_linear_1195_2548" x1="9" y1="18.1664" x2="9" y2="0.358559" gradientUnits="userSpaceOnUse">
<stop stop-color="#E09B3D"/>
<stop offset="0.3" stop-color="#C74C4D"/>
<stop offset="0.6" stop-color="#C21975"/>
<stop offset="1" stop-color="#7024C4"/>
</linearGradient>
<linearGradient id="paint1_linear_1195_2548" x1="9.00017" y1="18.1655" x2="9.00017" y2="0.35775" gradientUnits="userSpaceOnUse">
<stop stop-color="#E09B3D"/>
<stop offset="0.3" stop-color="#C74C4D"/>
<stop offset="0.6" stop-color="#C21975"/>
<stop offset="1" stop-color="#7024C4"/>
</linearGradient>
<linearGradient id="paint2_linear_1195_2548" x1="13.6644" y1="18.1661" x2="13.6644" y2="0.35826" gradientUnits="userSpaceOnUse">
<stop stop-color="#E09B3D"/>
<stop offset="0.3" stop-color="#C74C4D"/>
<stop offset="0.6" stop-color="#C21975"/>
<stop offset="1" stop-color="#7024C4"/>
</linearGradient>
</defs>
</svg>
