<svg width="24" height="25" viewBox="0 0 24 25" fill="none" xmlns="http://www.w3.org/2000/svg">
<g id="linkedin-Icon">
<path id="Shape" d="M7.58145 20.1537H4.26429V9.50563H7.58145V20.1537ZM5.92109 8.05313C4.86036 8.05313 4 7.17736 4 6.12003C4 5.06243 4.8601 4.20508 5.92109 4.20508C6.98207 4.20508 7.84217 5.06243 7.84217 6.12003C7.84217 7.17736 6.98145 8.05313 5.92109 8.05313ZM19.9965 20.1537H16.6865V14.9703C16.6865 13.735 16.6615 12.1507 14.9619 12.1507C13.2372 12.1507 12.9729 13.4929 12.9729 14.8813V20.1537H9.65933V9.50563H12.8408V10.9581H12.8872C13.3301 10.1215 14.4119 9.23862 16.0258 9.23862C19.383 9.23862 20.0001 11.4423 20.0001 14.3046V20.1537H19.9965Z" fill="#2867B2"/>
</g>
</svg>
