<svg width="420" height="375" viewBox="0 0 420 375" fill="none" xmlns="http://www.w3.org/2000/svg">
<g clip-path="url(#clip0_1154_14335)">
<rect width="420" height="375" rx="22.5" fill="#C02FD8" fill-opacity="0.39"/>
<path d="M195 -104.761C195 -104.761 303.376 -104.725 318.844 -54.9425C331.829 -13.151 261.461 6.15556 274.445 47.9471C289.913 97.73 371.371 53.1229 398.289 97.7657C427.4 146.044 336.582 198.36 374.432 240.141C403.462 272.184 462.65 222.886 483.179 260.94C503.957 299.455 438.78 363.83 438.78 363.83M158.536 -85.1865C158.536 -85.1865 266.912 -85.1507 282.38 -35.3678C295.365 6.4237 224.996 25.7302 237.981 67.5218C253.449 117.305 334.906 72.6976 361.825 117.34C390.936 165.619 300.117 217.935 337.968 259.715C366.997 291.759 426.185 242.461 446.715 280.515C467.492 319.03 402.316 383.404 402.316 383.404M122.072 -65.6118C122.072 -65.6118 230.448 -65.5761 245.916 -15.7932C258.9 25.9984 188.532 45.3049 201.517 87.0964C216.984 136.879 298.442 92.2723 325.36 136.915C354.471 185.194 263.653 237.51 301.504 279.29C330.533 311.334 389.721 262.036 410.25 300.089C431.028 338.604 365.851 402.979 365.851 402.979M85.6076 -46.0371C85.6076 -46.0371 193.984 -46.0014 209.451 3.78149C222.436 45.573 152.068 64.8796 165.052 106.671C180.52 156.454 261.978 111.847 288.896 156.49C318.007 204.768 227.189 257.084 265.039 298.865C294.069 330.908 353.257 281.61 373.786 319.664C394.564 358.179 329.387 422.554 329.387 422.554M49.1433 -26.4625C49.1433 -26.4625 157.519 -26.4267 172.987 23.3561C185.972 65.1477 115.603 84.4542 128.588 126.246C144.056 176.029 225.513 131.422 252.432 176.064C281.543 224.343 190.725 276.659 228.575 318.439C257.605 350.483 316.793 301.185 337.322 339.239C358.1 377.754 292.923 442.128 292.923 442.128M12.679 -6.88781C12.679 -6.88781 121.055 -6.85207 136.523 42.9308C149.507 84.7224 79.1391 104.029 92.1239 145.82C107.592 195.603 189.049 150.996 215.968 195.639C245.078 243.918 154.26 296.234 192.111 338.014C221.14 370.058 280.328 320.76 300.857 358.813C321.635 397.328 256.459 461.703 256.459 461.703M-23.7853 12.6868C-23.7853 12.6868 84.5907 12.7226 100.058 62.5055C113.043 104.297 42.6748 123.604 55.6596 165.395C71.1273 215.178 152.585 170.571 179.503 215.214C208.614 263.492 117.796 315.808 155.646 357.589C184.676 389.632 243.864 340.334 264.393 378.388C285.171 416.903 219.994 481.278 219.994 481.278M-60.2496 32.2615C-60.2496 32.2615 48.1264 32.2973 63.5941 82.0801C76.5789 123.872 6.21053 143.178 19.1953 184.97C34.663 234.753 116.12 190.146 143.039 234.788C172.15 283.067 81.3317 335.383 119.182 377.163C148.212 409.207 207.4 359.909 227.929 397.963C248.707 436.478 183.53 500.852 183.53 500.852M-96.7139 51.8362C-96.7139 51.8362 11.6621 51.8719 27.1298 101.655C40.1146 143.446 -30.2538 162.753 -17.269 204.544C-1.80127 254.327 79.6562 209.72 106.575 254.363C135.685 302.642 44.8674 354.958 82.7178 396.738C111.747 428.782 170.935 379.484 191.464 417.537C212.242 456.052 147.066 520.427 147.066 520.427" stroke="#DEDEDE" stroke-width="1.5"/>
<path d="M278.57 146.426C277.603 147.659 276.173 149.321 274.894 151.414C273.306 153.899 272.329 156.725 272.043 159.66L270.694 158.88L270.397 158.708L269.902 158.424C269.787 156.737 269.618 153.655 270.075 151.364C270.882 147.334 272.525 144.533 275.081 143.291C277.638 142.048 280.742 143.641 278.57 146.426Z" fill="#F0F0F0"/>
<path d="M276.859 144.336C274.017 146.276 271.567 149.765 270.869 156.227C270.779 157.065 270.716 157.951 270.688 158.89L270.391 158.717C270.416 157.948 270.466 157.215 270.535 156.527C271.198 149.755 273.755 146.107 276.683 144.107C276.717 144.091 276.755 144.086 276.79 144.096C276.826 144.105 276.858 144.127 276.879 144.157C276.9 144.188 276.909 144.225 276.905 144.262C276.9 144.298 276.883 144.333 276.856 144.357L276.859 144.336Z" fill="white"/>
<path d="M282.188 151.827C282.144 152.312 281.759 152.69 281.387 153.009C281.014 153.329 280.617 153.673 280.52 154.152C280.329 155.115 281.484 155.988 281.249 156.943C281.186 157.141 281.084 157.324 280.948 157.48C280.812 157.637 280.645 157.764 280.457 157.853C280.152 158.009 279.839 158.148 279.519 158.27C279.363 158.319 279.206 158.36 279.046 158.392C278.564 158.445 278.112 158.655 277.76 158.989C277.244 159.568 277.76 159.991 277.575 161.202C277.513 161.646 277.059 162.697 275.632 163.229L269.896 158.423C269.857 157.782 270.045 157.148 270.428 156.633C270.461 156.589 270.497 156.547 270.535 156.508C270.635 156.4 270.746 156.304 270.866 156.22C271.445 155.804 272.196 155.594 272.615 155.021C273.094 154.342 272.797 153.382 273.088 152.606C273.379 151.83 274.143 151.557 274.884 151.417H274.928C275.704 151.27 276.493 151.573 277.222 151.295C277.951 151.016 278.633 150.569 279.393 150.356C279.763 150.24 280.154 150.211 280.537 150.27C280.92 150.328 281.284 150.473 281.603 150.694C281.786 150.82 281.935 150.989 282.037 151.187C282.139 151.385 282.191 151.604 282.188 151.827Z" fill="#E0E0E0"/>
<path d="M280.542 151.464C279.553 151.699 276.693 152.973 274.79 155.573C275.576 155.296 276.411 155.184 277.242 155.244C278.074 155.303 278.884 155.534 279.622 155.92C279.634 155.928 279.645 155.938 279.654 155.95C279.662 155.962 279.668 155.975 279.671 155.99C279.675 156.004 279.675 156.019 279.672 156.033C279.67 156.048 279.664 156.061 279.656 156.074C279.647 156.089 279.634 156.101 279.619 156.11C279.604 156.119 279.586 156.124 279.569 156.124C279.548 156.13 279.526 156.13 279.506 156.124C278.75 155.728 277.916 155.503 277.064 155.465C276.211 155.426 275.36 155.574 274.571 155.898C273.77 157.088 273.076 159.203 272.928 160.933L272.722 160.814C272.885 159.081 273.592 156.962 274.396 155.77C274.403 155.752 274.413 155.736 274.427 155.723C276.367 152.891 279.434 151.514 280.492 151.267C280.506 151.264 280.52 151.263 280.535 151.265C280.549 151.267 280.563 151.272 280.575 151.28C280.587 151.287 280.598 151.297 280.606 151.309C280.614 151.321 280.62 151.334 280.623 151.349C280.626 151.374 280.619 151.4 280.604 151.421C280.589 151.443 280.567 151.458 280.542 151.464Z" fill="white"/>
<path d="M151.393 158.172L150.414 158.735L150.176 158.873L149.863 159.061L149.006 159.555L148.808 159.668C148.618 158.704 148.054 157.477 147.313 156.226C146.358 154.626 145.302 153.088 144.152 151.623C143.314 150.54 142.531 149.614 141.962 149.003C140.047 146.916 140.341 144.259 142.347 144.194C145.373 144.094 148.524 147.185 149.944 150.581C151.525 154.329 151.331 155.662 151.393 158.172Z" fill="#E0E0E0"/>
<path d="M150.414 158.735L150.176 158.873C149.331 152.408 145.397 147.248 142.249 145.73C142.234 145.723 142.221 145.713 142.209 145.701C142.198 145.689 142.19 145.674 142.184 145.658C142.179 145.643 142.176 145.626 142.177 145.609C142.178 145.593 142.183 145.576 142.19 145.561C142.197 145.546 142.207 145.532 142.22 145.52C142.232 145.509 142.247 145.5 142.263 145.494C142.279 145.488 142.296 145.486 142.313 145.486C142.33 145.487 142.347 145.492 142.362 145.499C145.541 147.032 149.528 152.227 150.414 158.735Z" fill="white"/>
<path d="M149.85 159.06L148.993 159.554L148.796 159.667L148.765 159.686L147.907 160.18C147.566 159.485 146.968 158.712 145.642 157.57C143.648 155.862 141.004 154.895 140.497 153.674C139.89 152.21 140.87 150.996 143.076 151.343C143.434 151.4 143.786 151.485 144.13 151.6C146.405 152.354 148.93 154.497 149.85 159.06Z" fill="#F0F0F0"/>
<path d="M148.993 159.554L148.796 159.667L148.765 159.686C147.263 155.177 143.949 153.252 142.296 152.858C142.28 152.854 142.264 152.847 142.251 152.836C142.237 152.826 142.226 152.814 142.217 152.799C142.208 152.785 142.202 152.768 142.2 152.752C142.198 152.735 142.198 152.718 142.203 152.701C142.206 152.685 142.213 152.67 142.223 152.656C142.233 152.642 142.245 152.631 142.259 152.622C142.274 152.613 142.29 152.607 142.306 152.605C142.323 152.602 142.34 152.603 142.356 152.607C143.648 152.92 145.673 153.981 147.291 156.203C148.027 157.226 148.601 158.356 148.993 159.554Z" fill="white"/>
<path d="M148.948 118.297C149.413 118.249 149.881 118.334 150.3 118.541C151.113 118.935 151.786 119.558 152.509 120.106C153.232 120.653 154.052 121.135 154.956 121.163C155.86 121.191 156.834 120.631 156.996 119.743C157.007 119.587 157.047 119.434 157.112 119.292C157.201 119.179 157.325 119.099 157.463 119.063C157.602 119.027 157.749 119.037 157.882 119.092C158.142 119.21 158.391 119.354 158.623 119.52C159.537 120.062 160.682 119.94 161.731 119.786C162.604 119.658 163.705 119.273 163.702 118.391C163.702 117.815 163.198 117.392 162.801 116.973C162.404 116.554 162.084 115.884 162.447 115.44C162.58 115.288 162.756 115.179 162.951 115.127C164.043 114.77 165.379 115.243 166.299 114.561C166.625 114.284 166.85 113.907 166.937 113.489C167.025 113.071 166.971 112.635 166.784 112.251C166.586 111.873 166.307 111.543 165.968 111.285C165.628 111.026 165.236 110.844 164.819 110.752C164.087 110.568 163.155 110.48 162.882 109.776C162.641 109.15 163.123 108.49 163.665 108.108C164.206 107.726 164.863 107.463 165.229 106.919C165.417 106.629 165.521 106.294 165.531 105.949C165.54 105.604 165.454 105.263 165.282 104.963C165.106 104.668 164.868 104.415 164.584 104.22C164.301 104.026 163.978 103.895 163.64 103.837C163.298 103.811 162.962 103.737 162.641 103.618C162.328 103.461 162.106 103.076 162.272 102.776C162.369 102.598 162.585 102.504 162.698 102.335C162.929 102.022 162.729 101.531 162.404 101.299C162.056 101.102 161.68 100.957 161.29 100.87C160.498 100.607 159.725 99.8407 159.963 99.0396C160.201 98.2386 161.346 97.935 161.681 97.134C161.994 96.4268 161.505 95.6006 160.873 95.1688C160.241 94.737 159.465 94.543 158.771 94.23C158.076 93.9171 157.403 93.3226 157.347 92.5559C157.29 91.7893 157.879 91.1102 158.357 90.4844C158.836 89.8585 159.246 88.9886 158.827 88.3221C158.408 87.6556 157.538 87.6305 156.815 87.4115C156.376 87.2688 155.973 87.0354 155.63 86.7265C155.288 86.4175 155.015 86.04 154.828 85.6184C154.634 85.1741 154.543 84.6797 154.311 84.2635C153.598 82.943 151.808 82.3641 150.406 82.5268C149.677 82.6113 149.433 82.8929 149.079 83.428C148.876 83.7409 148.663 83.9068 148.591 84.3417C148.488 84.9676 148.823 85.7937 148.222 86.2818C147.308 87.0203 145.906 86.0252 145.956 87.6806C145.958 88.3797 146.064 89.0746 146.269 89.7427C146.52 90.4374 147.017 90.741 146.604 91.5201C146.066 92.5277 145.715 92.5215 144.636 92.5215C143.857 92.5215 143.206 92.4777 142.633 93.0691C141.629 94.108 142.226 95.0499 143.118 95.851C144.135 96.7616 143.597 97.1621 143.462 98.3543C143.4 98.9239 143.528 99.0991 143.021 99.4746C142.061 100.188 141.522 99.9471 141.795 101.352C142.042 102.626 141.66 102.191 140.543 102.666C139.563 103.086 138.916 104.143 138.121 104.801C137.611 105.223 136.832 105.552 136.785 106.293C136.694 107.717 138.462 107.404 139.288 107.745C140.665 108.299 140.255 110.101 139.182 110.774C138.046 111.491 136.39 111.754 136.3 113.381C136.228 114.633 136.925 114.908 137.908 115.327C138.681 115.659 138.584 115.756 138.581 116.679C138.581 118.557 139.207 119.07 141.044 118.766C141.547 118.685 142.314 118.472 142.815 118.622C143.519 118.832 143.281 119.007 143.3 119.592C143.35 121.097 145.102 120.672 145.844 120.03C146.717 119.267 147.79 118.406 148.948 118.297Z" fill="#C02FD8"/>
<path opacity="0.1" d="M148.948 118.297C149.413 118.249 149.881 118.334 150.3 118.541C151.113 118.935 151.786 119.558 152.509 120.106C153.232 120.653 154.052 121.135 154.956 121.163C155.86 121.191 156.834 120.631 156.996 119.743C157.007 119.587 157.047 119.434 157.112 119.292C157.201 119.179 157.325 119.099 157.463 119.063C157.602 119.027 157.749 119.037 157.882 119.092C158.142 119.21 158.391 119.354 158.623 119.52C159.537 120.062 160.682 119.94 161.731 119.786C162.604 119.658 163.705 119.273 163.702 118.391C163.702 117.815 163.198 117.392 162.801 116.973C162.404 116.554 162.084 115.884 162.447 115.44C162.58 115.288 162.756 115.179 162.951 115.127C164.043 114.77 165.379 115.243 166.299 114.561C166.625 114.284 166.85 113.907 166.937 113.489C167.025 113.071 166.971 112.635 166.784 112.251C166.586 111.873 166.307 111.543 165.968 111.285C165.628 111.026 165.236 110.844 164.819 110.752C164.087 110.568 163.155 110.48 162.882 109.776C162.641 109.15 163.123 108.49 163.665 108.108C164.206 107.726 164.863 107.463 165.229 106.919C165.417 106.629 165.521 106.294 165.531 105.949C165.54 105.604 165.454 105.263 165.282 104.963C165.106 104.668 164.868 104.415 164.584 104.22C164.301 104.026 163.978 103.895 163.64 103.837C163.298 103.811 162.962 103.737 162.641 103.618C162.328 103.461 162.106 103.076 162.272 102.776C162.369 102.598 162.585 102.504 162.698 102.335C162.929 102.022 162.729 101.531 162.404 101.299C162.056 101.102 161.68 100.957 161.29 100.87C160.498 100.607 159.725 99.8407 159.963 99.0396C160.201 98.2386 161.346 97.935 161.681 97.134C161.994 96.4268 161.505 95.6006 160.873 95.1688C160.241 94.737 159.465 94.543 158.771 94.23C158.076 93.9171 157.403 93.3226 157.347 92.5559C157.29 91.7893 157.879 91.1102 158.357 90.4844C158.836 89.8585 159.246 88.9886 158.827 88.3221C158.408 87.6556 157.538 87.6305 156.815 87.4115C156.376 87.2688 155.973 87.0354 155.63 86.7265C155.288 86.4175 155.015 86.04 154.828 85.6184C154.634 85.1741 154.543 84.6797 154.311 84.2635C153.598 82.943 151.808 82.3641 150.406 82.5268C149.677 82.6113 149.433 82.8929 149.079 83.428C148.876 83.7409 148.663 83.9068 148.591 84.3417C148.488 84.9676 148.823 85.7937 148.222 86.2818C147.308 87.0203 145.906 86.0252 145.956 87.6806C145.958 88.3797 146.064 89.0746 146.269 89.7427C146.52 90.4374 147.017 90.741 146.604 91.5201C146.066 92.5277 145.715 92.5215 144.636 92.5215C143.857 92.5215 143.206 92.4777 142.633 93.0691C141.629 94.108 142.226 95.0499 143.118 95.851C144.135 96.7616 143.597 97.1621 143.462 98.3543C143.4 98.9239 143.528 99.0991 143.021 99.4746C142.061 100.188 141.522 99.9471 141.795 101.352C142.042 102.626 141.66 102.191 140.543 102.666C139.563 103.086 138.916 104.143 138.121 104.801C137.611 105.223 136.832 105.552 136.785 106.293C136.694 107.717 138.462 107.404 139.288 107.745C140.665 108.299 140.255 110.101 139.182 110.774C138.046 111.491 136.39 111.754 136.3 113.381C136.228 114.633 136.925 114.908 137.908 115.327C138.681 115.659 138.584 115.756 138.581 116.679C138.581 118.557 139.207 119.07 141.044 118.766C141.547 118.685 142.314 118.472 142.815 118.622C143.519 118.832 143.281 119.007 143.3 119.592C143.35 121.097 145.102 120.672 145.844 120.03C146.717 119.267 147.79 118.406 148.948 118.297Z" fill="white"/>
<path opacity="0.15" d="M162.951 115.123C163.79 114.848 164.769 115.064 165.598 114.87C165.111 114.755 164.615 114.676 164.115 114.635C163.386 114.602 162.662 114.76 162.012 115.092C161.73 115.198 161.476 115.369 161.271 115.59C161.192 115.735 161.154 115.898 161.159 116.063C161.164 116.228 161.212 116.388 161.299 116.528C161.44 116.841 161.656 117.364 161.318 117.639C160.98 117.915 160.294 117.84 159.878 117.693C159.362 117.49 158.859 117.255 158.373 116.988C157.902 116.724 157.402 116.515 156.883 116.363C156.511 116.272 155.857 116.225 155.632 116.629C155.477 116.871 155.39 117.149 155.378 117.436C155.42 117.649 155.42 117.868 155.378 118.081C155.33 118.303 155.221 118.508 155.065 118.674C154.908 118.839 154.709 118.959 154.49 119.019C153.914 119.148 153.335 118.763 152.978 118.29C152.621 117.818 152.402 117.254 152.039 116.788C151.538 116.176 150.827 115.773 150.045 115.658C149.263 115.542 148.465 115.722 147.809 116.162C147.274 116.55 146.601 117.139 146.063 116.751C145.524 116.363 145.837 115.202 145.202 114.873C144.78 114.66 144.185 114.995 143.832 114.682C143.699 114.538 143.615 114.357 143.591 114.163C143.337 113.102 143.118 111.872 143.788 111.009C144.382 110.239 145.643 109.757 145.509 108.818C145.393 107.995 144.345 107.748 143.519 107.651C142.692 107.554 141.641 107.166 141.691 106.333C141.741 105.501 142.836 105.126 142.999 104.328C143.068 103.987 142.952 103.605 143.109 103.295C143.343 102.826 144.016 102.807 144.407 102.46C145.115 101.834 144.567 100.663 144.767 99.7433C144.908 99.0925 145.434 98.5793 145.609 97.9347C145.959 96.6486 144.789 95.4313 143.566 94.9025C143.07 94.7419 142.592 94.5312 142.139 94.2735L142.095 94.2422C142.126 94.8242 142.558 95.3624 143.099 95.8506C144.116 96.7612 143.578 97.1617 143.444 98.354C143.381 98.9235 143.509 99.0987 143.002 99.4742C142.042 100.188 141.503 99.9467 141.776 101.352C142.023 102.625 141.641 102.19 140.524 102.666C139.545 103.085 138.897 104.143 138.102 104.8C137.592 105.223 136.813 105.551 136.766 106.293C136.675 107.717 138.443 107.404 139.269 107.745C140.646 108.299 140.236 110.101 139.163 110.774C138.027 111.49 136.371 111.753 136.281 113.38C136.209 114.632 136.907 114.908 137.889 115.327C138.662 115.659 138.565 115.756 138.562 116.679C138.562 118.556 139.188 119.069 141.025 118.766C141.528 118.684 142.295 118.472 142.796 118.622C143.5 118.832 143.262 119.007 143.281 119.592C143.331 121.097 145.083 120.672 145.825 120.03C146.679 119.285 147.752 118.425 148.91 118.312C149.375 118.264 149.844 118.349 150.262 118.556C151.076 118.95 151.748 119.573 152.471 120.121C153.194 120.668 154.014 121.15 154.918 121.178C155.823 121.207 156.796 120.647 156.959 119.758C156.97 119.602 157.009 119.449 157.074 119.307C157.163 119.195 157.287 119.114 157.426 119.078C157.565 119.042 157.712 119.052 157.844 119.107C158.105 119.225 158.353 119.369 158.586 119.536C159.5 120.077 160.645 119.955 161.693 119.802C162.566 119.673 163.668 119.288 163.664 118.406C163.664 117.83 163.161 117.408 162.763 116.988C162.366 116.569 162.047 115.899 162.41 115.455C162.55 115.29 162.74 115.173 162.951 115.123Z" fill="black"/>
<path d="M145.327 100.942L150.982 112.157V106.994L151.558 93.5762L152.393 106.985V110.474L158.611 99.5999L152.393 112.94V162.456C152.387 162.518 152.365 162.578 152.329 162.628C152.293 162.679 152.244 162.719 152.187 162.744C152.032 162.823 151.861 162.864 151.688 162.864C151.514 162.864 151.343 162.823 151.188 162.744C151.132 162.719 151.082 162.679 151.046 162.628C151.01 162.578 150.988 162.518 150.982 162.456V115.018L145.327 100.942Z" fill="#37474F"/>
<path d="M272.359 118.297C271.894 118.25 271.425 118.335 271.005 118.541C270.194 118.935 269.518 119.558 268.798 120.106C268.079 120.653 267.253 121.135 266.351 121.163C265.45 121.191 264.474 120.631 264.311 119.743C264.3 119.587 264.261 119.434 264.195 119.292C264.106 119.179 263.983 119.099 263.844 119.063C263.705 119.027 263.558 119.037 263.426 119.092C263.164 119.21 262.915 119.354 262.681 119.52C261.767 120.062 260.625 119.94 259.577 119.786C258.7 119.658 257.602 119.273 257.605 118.391C257.605 117.815 258.109 117.392 258.503 116.973C258.898 116.554 259.223 115.884 258.86 115.44C258.726 115.289 258.551 115.18 258.356 115.127C257.264 114.77 255.928 115.243 255.005 114.561C254.68 114.283 254.457 113.906 254.369 113.488C254.282 113.07 254.336 112.635 254.523 112.251C254.721 111.873 255 111.543 255.339 111.284C255.679 111.025 256.071 110.843 256.488 110.752C257.22 110.568 258.153 110.48 258.425 109.776C258.663 109.15 258.015 108.997 257.471 108.618C256.926 108.24 256.444 107.463 256.066 106.919C255.878 106.629 255.775 106.293 255.766 105.948C255.757 105.603 255.843 105.262 256.016 104.963C256.192 104.668 256.43 104.414 256.713 104.22C256.997 104.025 257.319 103.895 257.658 103.837C258 103.811 258.336 103.737 258.657 103.618C258.97 103.461 259.192 103.076 259.026 102.776C258.926 102.598 258.713 102.504 258.6 102.335C258.369 102.022 258.569 101.531 258.894 101.299C259.242 101.102 259.618 100.957 260.008 100.87C260.8 100.607 261.573 99.8407 261.332 99.0396C261.091 98.2386 259.952 97.935 259.614 97.134C259.317 96.4268 259.789 95.6006 260.425 95.1688C261.06 94.737 261.833 94.543 262.528 94.23C263.222 93.9171 263.895 93.3226 263.951 92.5559C264.008 91.7893 263.419 91.1102 262.937 90.4844C262.456 89.8585 262.052 88.9886 262.471 88.3221C262.89 87.6556 263.767 87.6305 264.49 87.4115C264.929 87.2693 265.333 87.0362 265.676 86.7272C266.019 86.4183 266.293 86.0404 266.48 85.6184C266.671 85.1741 266.764 84.6797 266.993 84.2635C267.709 82.943 269.496 82.3641 270.901 82.5268C271.63 82.6113 271.874 82.8929 272.228 83.428C272.431 83.7409 272.644 83.9068 272.713 84.3417C272.819 84.9676 272.482 85.7937 273.085 86.2818C273.999 87.0203 275.401 86.0252 275.351 87.6806C275.349 88.3797 275.244 89.0746 275.038 89.7427C274.788 90.4374 274.287 90.741 274.703 91.5201C275.242 92.5277 275.592 92.5215 276.668 92.5215C277.451 92.5215 278.102 92.4777 278.671 93.0691C279.679 94.108 279.081 95.0499 278.186 95.851C277.172 96.7616 277.71 97.1621 277.842 98.3543C277.904 98.9239 277.776 99.0991 278.286 99.4746C279.247 100.188 279.782 99.9471 279.513 101.352C279.266 102.626 279.647 102.191 280.765 102.666C281.744 103.086 282.392 104.143 283.187 104.801C283.694 105.223 284.473 105.552 284.523 106.293C284.613 107.717 282.845 107.404 282.004 107.745C280.63 108.299 281.04 110.101 282.113 110.774C283.249 111.491 284.905 111.754 284.995 113.381C285.064 114.633 284.354 114.908 283.387 115.327C282.614 115.659 282.711 115.756 282.711 116.679C282.711 118.557 282.085 119.07 280.248 118.766C279.748 118.685 278.997 118.472 278.477 118.622C277.776 118.832 278.014 119.007 277.992 119.592C277.942 121.097 276.193 120.672 275.451 120.03C274.591 119.267 273.517 118.406 272.359 118.297Z" fill="#C02FD8"/>
<path opacity="0.1" d="M272.359 118.297C271.894 118.25 271.425 118.335 271.005 118.541C270.194 118.935 269.518 119.558 268.798 120.106C268.079 120.653 267.253 121.135 266.351 121.163C265.45 121.191 264.474 120.631 264.311 119.743C264.3 119.587 264.261 119.434 264.195 119.292C264.106 119.179 263.983 119.099 263.844 119.063C263.705 119.027 263.558 119.037 263.426 119.092C263.164 119.21 262.915 119.354 262.681 119.52C261.767 120.062 260.625 119.94 259.577 119.786C258.7 119.658 257.602 119.273 257.605 118.391C257.605 117.815 258.109 117.392 258.503 116.973C258.898 116.554 259.223 115.884 258.86 115.44C258.726 115.289 258.551 115.18 258.356 115.127C257.264 114.77 255.928 115.243 255.005 114.561C254.68 114.283 254.457 113.906 254.369 113.488C254.282 113.07 254.336 112.635 254.523 112.251C254.721 111.873 255 111.543 255.339 111.284C255.679 111.025 256.071 110.843 256.488 110.752C257.22 110.568 258.153 110.48 258.425 109.776C258.663 109.15 258.015 108.997 257.471 108.618C256.926 108.24 256.444 107.463 256.066 106.919C255.878 106.629 255.775 106.293 255.766 105.948C255.757 105.603 255.843 105.262 256.016 104.963C256.192 104.668 256.43 104.414 256.713 104.22C256.997 104.025 257.319 103.895 257.658 103.837C258 103.811 258.336 103.737 258.657 103.618C258.97 103.461 259.192 103.076 259.026 102.776C258.926 102.598 258.713 102.504 258.6 102.335C258.369 102.022 258.569 101.531 258.894 101.299C259.242 101.102 259.618 100.957 260.008 100.87C260.8 100.607 261.573 99.8407 261.332 99.0396C261.091 98.2386 259.952 97.935 259.614 97.134C259.317 96.4268 259.789 95.6006 260.425 95.1688C261.06 94.737 261.833 94.543 262.528 94.23C263.222 93.9171 263.895 93.3226 263.951 92.5559C264.008 91.7893 263.419 91.1102 262.937 90.4844C262.456 89.8585 262.052 88.9886 262.471 88.3221C262.89 87.6556 263.767 87.6305 264.49 87.4115C264.929 87.2693 265.333 87.0362 265.676 86.7272C266.019 86.4183 266.293 86.0404 266.48 85.6184C266.671 85.1741 266.764 84.6797 266.993 84.2635C267.709 82.943 269.496 82.3641 270.901 82.5268C271.63 82.6113 271.874 82.8929 272.228 83.428C272.431 83.7409 272.644 83.9068 272.713 84.3417C272.819 84.9676 272.482 85.7937 273.085 86.2818C273.999 87.0203 275.401 86.0252 275.351 87.6806C275.349 88.3797 275.244 89.0746 275.038 89.7427C274.788 90.4374 274.287 90.741 274.703 91.5201C275.242 92.5277 275.592 92.5215 276.668 92.5215C277.451 92.5215 278.102 92.4777 278.671 93.0691C279.679 94.108 279.081 95.0499 278.186 95.851C277.172 96.7616 277.71 97.1621 277.842 98.3543C277.904 98.9239 277.776 99.0991 278.286 99.4746C279.247 100.188 279.782 99.9471 279.513 101.352C279.266 102.626 279.647 102.191 280.765 102.666C281.744 103.086 282.392 104.143 283.187 104.801C283.694 105.223 284.473 105.552 284.523 106.293C284.613 107.717 282.845 107.404 282.004 107.745C280.63 108.299 281.04 110.101 282.113 110.774C283.249 111.491 284.905 111.754 284.995 113.381C285.064 114.633 284.354 114.908 283.387 115.327C282.614 115.659 282.711 115.756 282.711 116.679C282.711 118.557 282.085 119.07 280.248 118.766C279.748 118.685 278.997 118.472 278.477 118.622C277.776 118.832 278.014 119.007 277.992 119.592C277.942 121.097 276.193 120.672 275.451 120.03C274.591 119.267 273.517 118.406 272.359 118.297Z" fill="white"/>
<path opacity="0.15" d="M258.356 115.123C257.518 114.848 256.535 115.064 255.709 114.87C256.197 114.754 256.693 114.675 257.192 114.635C257.92 114.602 258.644 114.759 259.292 115.092C259.575 115.198 259.83 115.368 260.037 115.589C260.115 115.735 260.153 115.898 260.148 116.062C260.143 116.227 260.095 116.388 260.009 116.528C259.868 116.841 259.652 117.364 259.987 117.639C260.321 117.914 261.013 117.839 261.426 117.692C261.941 117.488 262.441 117.251 262.925 116.982C263.396 116.718 263.896 116.508 264.414 116.356C264.787 116.265 265.441 116.218 265.666 116.622C265.818 116.865 265.905 117.143 265.92 117.429C265.879 117.642 265.879 117.861 265.92 118.074C265.968 118.296 266.077 118.501 266.233 118.667C266.39 118.832 266.589 118.952 266.808 119.013C267.387 119.141 267.963 118.756 268.323 118.284C268.683 117.811 268.899 117.248 269.262 116.782C269.763 116.17 270.474 115.768 271.256 115.652C272.038 115.536 272.835 115.716 273.492 116.156C274.031 116.544 274.703 117.132 275.238 116.744C275.774 116.356 275.464 115.195 276.102 114.866C276.525 114.654 277.119 114.989 277.473 114.676C277.605 114.532 277.689 114.35 277.714 114.156C277.967 113.095 278.186 111.866 277.516 111.002C276.919 110.232 275.658 109.75 275.795 108.811C275.911 107.988 276.956 107.741 277.782 107.644C278.609 107.547 279.66 107.159 279.613 106.327C279.566 105.494 278.468 105.119 278.305 104.321C278.236 103.98 278.352 103.598 278.196 103.288C277.961 102.819 277.288 102.8 276.897 102.453C276.19 101.827 276.737 100.657 276.537 99.7367C276.396 99.0859 275.867 98.5727 275.692 97.928C275.342 96.6419 276.512 95.4247 277.739 94.8958C278.224 94.7274 278.692 94.5104 279.134 94.2481L279.178 94.2168C279.147 94.7988 278.715 95.3371 278.17 95.8252C277.157 96.7358 277.695 97.1364 277.826 98.3286C277.889 98.8981 277.761 99.0733 278.271 99.4488C279.231 100.162 279.766 99.9214 279.497 101.326C279.25 102.6 279.632 102.165 280.749 102.641C281.728 103.06 282.376 104.118 283.171 104.775C283.678 105.197 284.457 105.526 284.507 106.267C284.598 107.691 282.83 107.378 281.988 107.719C280.614 108.273 281.024 110.076 282.098 110.748C283.23 111.465 284.889 111.728 284.98 113.355C285.049 114.607 284.338 114.882 283.371 115.301C282.598 115.633 282.695 115.73 282.695 116.653C282.695 118.531 282.069 119.044 280.233 118.74C279.732 118.659 278.981 118.446 278.462 118.597C277.761 118.806 277.998 118.981 277.976 119.567C277.926 121.072 276.177 120.646 275.436 120.005C274.581 119.26 273.508 118.399 272.35 118.287C271.885 118.24 271.415 118.324 270.995 118.531C270.185 118.925 269.509 119.548 268.789 120.095C268.069 120.643 267.243 121.125 266.342 121.153C265.441 121.181 264.465 120.621 264.302 119.732C264.291 119.576 264.251 119.424 264.186 119.282C264.097 119.169 263.974 119.089 263.835 119.053C263.696 119.017 263.549 119.027 263.416 119.082C263.155 119.2 262.905 119.343 262.671 119.51C261.758 120.052 260.616 119.93 259.567 119.776C258.691 119.648 257.593 119.263 257.596 118.381C257.596 117.805 258.1 117.382 258.494 116.963C258.888 116.544 259.214 115.874 258.851 115.43C258.719 115.282 258.547 115.176 258.356 115.123Z" fill="black"/>
<path d="M275.98 100.941L270.322 112.156V106.993L269.75 88.7969L268.911 106.993V110.473L263.904 102.206L268.911 112.945V162.455C268.917 162.517 268.939 162.577 268.975 162.627C269.012 162.678 269.061 162.718 269.118 162.743C269.272 162.822 269.443 162.863 269.617 162.863C269.79 162.863 269.961 162.822 270.116 162.743C270.173 162.718 270.222 162.678 270.258 162.627C270.295 162.577 270.317 162.517 270.322 162.455V115.017L275.98 100.941Z" fill="#37474F"/>
<path d="M209.729 222.549C251 222.549 284.458 204.343 284.458 181.885C284.458 159.427 251 141.221 209.729 141.221C168.457 141.221 135 159.427 135 181.885C135 204.343 168.457 222.549 209.729 222.549Z" fill="#C02FD8"/>
<path opacity="0.9" d="M209.729 222.549C251 222.549 284.458 204.343 284.458 181.885C284.458 159.427 251 141.221 209.729 141.221C168.457 141.221 135 159.427 135 181.885C135 204.343 168.457 222.549 209.729 222.549Z" fill="white"/>
<path d="M153.55 155.071L252.683 215.152C256.075 213.862 259.377 212.349 262.569 210.624C291.752 194.746 291.752 169.005 262.569 153.118C233.385 137.231 186.072 137.237 156.889 153.118C155.728 153.763 154.62 154.41 153.55 155.071Z" fill="#C02FD8"/>
<path opacity="0.4" d="M153.55 155.071L252.683 215.152C256.075 213.862 259.377 212.349 262.569 210.624C291.752 194.746 291.752 169.005 262.569 153.118C233.385 137.231 186.072 137.237 156.889 153.118C155.728 153.763 154.62 154.41 153.55 155.071Z" fill="white"/>
<path d="M139.979 183.084L148.697 188.369L146.206 189.881L137.488 184.595L139.979 183.084Z" fill="white"/>
<path d="M156.169 192.899L164.887 198.185L162.396 199.693L153.678 194.408L156.169 192.899Z" fill="white"/>
<path d="M172.36 202.713L181.078 207.998L178.587 209.51L169.869 204.224L172.36 202.713Z" fill="white"/>
<path d="M188.55 212.528L197.271 217.81L194.777 219.322L186.059 214.037L188.55 212.528Z" fill="white"/>
<path d="M251.767 214.611L251.247 214.298L250.656 213.939C250.656 213.857 250.656 213.776 250.656 213.691C250.677 212.814 250.584 211.938 250.38 211.085C250.302 210.734 250.202 210.381 250.089 210.033C250.061 209.943 250.033 209.855 250.002 209.77C249.942 209.598 249.88 209.426 249.811 209.26C249.642 208.843 249.449 208.436 249.235 208.04C249.166 207.915 249.094 207.793 249.022 207.674C248.873 207.427 248.711 207.187 248.537 206.957C248.44 206.823 248.337 206.698 248.224 206.572C248.02 206.336 247.798 206.115 247.561 205.912C249.288 206.71 250.609 208.75 251.278 210.744C251.474 211.32 251.618 211.913 251.707 212.515C251.817 213.208 251.837 213.913 251.767 214.611Z" fill="#C02FD8"/>
<path opacity="0.15" d="M250.649 213.932L251.241 214.291C251.688 210.727 248.863 206.64 247.749 205.986C247.686 205.955 247.63 205.921 247.567 205.893C247.8 206.093 248.017 206.311 248.218 206.543C248.324 206.669 248.428 206.794 248.531 206.928C248.705 207.158 248.867 207.398 249.016 207.645C249.088 207.764 249.16 207.886 249.229 208.011C249.443 208.407 249.635 208.814 249.805 209.231C249.873 209.397 249.936 209.569 249.995 209.742C250.027 209.826 250.055 209.914 250.083 210.004C250.196 210.352 250.296 210.705 250.374 211.056C250.578 211.909 250.67 212.785 250.649 213.662C250.649 213.744 250.649 213.825 250.649 213.906V213.932Z" fill="black"/>
<path d="M255.547 208.107C252.802 210.742 252.661 214.55 252.655 215.142L251.87 214.679L251.767 214.616L251.247 214.303C251.345 213.691 251.501 213.09 251.713 212.507C252.518 210.248 254.048 208.48 255.547 208.107Z" fill="#C02FD8"/>
<path opacity="0.15" d="M255.547 208.107C254.007 208.658 252.079 211.631 251.87 214.679L251.767 214.616L251.247 214.303C251.345 213.691 251.501 213.09 251.713 212.507C252.518 210.248 254.048 208.48 255.547 208.107Z" fill="black"/>
<g opacity="0.1">
<path d="M236.471 194.6C247.801 194.6 256.986 189.297 256.986 182.756C256.986 176.215 247.801 170.912 236.471 170.912C225.141 170.912 215.956 176.215 215.956 182.756C215.956 189.297 225.141 194.6 236.471 194.6Z" fill="black"/>
<path d="M182.739 202.427C193.705 202.427 202.594 197.295 202.594 190.964C202.594 184.634 193.705 179.502 182.739 179.502C171.774 179.502 162.884 184.634 162.884 190.964C162.884 197.295 171.774 202.427 182.739 202.427Z" fill="black"/>
<path d="M210.852 201.153C219.778 201.153 227.015 196.975 227.015 191.822C227.015 186.668 219.778 182.49 210.852 182.49C201.926 182.49 194.69 186.668 194.69 191.822C194.69 196.975 201.926 201.153 210.852 201.153Z" fill="black"/>
</g>
<path d="M209.324 115.578L208.451 113.941L209.152 111.92V110.668L207.009 111.92V113.171L207.932 114.767C207.947 114.791 207.969 114.811 207.994 114.824L209.324 115.578Z" fill="#C02FD8"/>
<path opacity="0.2" d="M209.324 115.578L208.451 113.941L209.152 111.92V110.668L207.009 111.92V113.171L207.932 114.767C207.947 114.791 207.969 114.811 207.994 114.824L209.324 115.578Z" fill="black"/>
<path d="M214.44 100.849C214.428 100.625 214.363 100.408 214.251 100.215C214.139 100.021 213.983 99.8567 213.796 99.7345L213.27 99.4216C213.072 99.3197 212.852 99.2666 212.629 99.2666C212.405 99.2666 212.186 99.3197 211.987 99.4216L203.964 104.062C203.777 104.184 203.622 104.348 203.51 104.541C203.399 104.734 203.334 104.951 203.322 105.173V114.001C203.335 114.224 203.399 114.44 203.51 114.634C203.622 114.827 203.777 114.992 203.964 115.115L204.486 115.428C204.685 115.529 204.906 115.583 205.129 115.583C205.353 115.583 205.573 115.529 205.772 115.428L208.351 113.938L209.271 115.531C209.284 115.554 209.304 115.573 209.327 115.585C209.351 115.597 209.378 115.602 209.404 115.6C209.431 115.597 209.456 115.587 209.477 115.57C209.497 115.553 209.513 115.531 209.521 115.506L210.491 112.689L213.796 110.787C213.982 110.665 214.138 110.501 214.249 110.308C214.361 110.115 214.425 109.899 214.437 109.676L214.44 100.849Z" fill="#C02FD8"/>
<path opacity="0.2" d="M203.325 114.014C203.338 114.237 203.402 114.454 203.514 114.647C203.625 114.841 203.78 115.005 203.967 115.128L204.49 115.441C204.671 115.529 204.869 115.579 205.07 115.586C205.272 115.593 205.473 115.557 205.66 115.482C205.347 115.594 205.128 115.425 205.128 115.059V106.232C205.136 106.01 205.201 105.795 205.316 105.606L203.507 104.561C203.393 104.75 203.328 104.965 203.319 105.186L203.325 114.014Z" fill="black"/>
<path opacity="0.3" d="M214.422 100.667C214.347 100.394 214.109 100.307 213.796 100.476L205.772 105.119C205.581 105.236 205.424 105.401 205.319 105.598L203.513 104.553C203.62 104.358 203.775 104.193 203.964 104.074L211.984 99.4336C212.184 99.3334 212.404 99.2812 212.627 99.2812C212.85 99.2812 213.071 99.3334 213.27 99.4336L213.796 99.7465C213.957 99.8493 214.096 99.9839 214.203 100.142C214.311 100.3 214.385 100.479 214.422 100.667Z" fill="white"/>
<path d="M207.084 108.421C207.088 107.874 207.202 107.333 207.419 106.831C207.618 106.307 207.972 105.855 208.433 105.536C209.124 105.129 209.7 105.958 209.794 106.934C209.875 105.855 210.442 104.353 211.133 103.946C211.285 103.833 211.474 103.781 211.663 103.8C211.852 103.819 212.027 103.908 212.153 104.049C212.404 104.392 212.527 104.811 212.501 105.235C212.501 106.887 211.515 108.386 210.682 109.96L209.784 111.484L208.921 110.996C208.091 110.398 207.09 110.073 207.084 108.421Z" fill="#FAFAFA"/>
<path d="M225.647 175.52C226.48 171.94 226.37 165.456 226.796 162.217C227.293 158.425 230.15 154.682 230.15 154.682C230.15 154.682 229.286 144.982 229.067 140.645C228.611 131.586 230.25 127.051 231.327 125.534C231.834 124.817 231.849 124.623 232.115 123.634C232.463 122.342 232.741 121.131 232.741 121.131L246.807 121.347C247.967 123.791 248.566 126.464 248.559 129.17C249.999 134.458 249.667 151.221 249.404 157.286C249.248 160.919 246.816 176.906 246.763 177.4C246.738 177.613 246.097 178.53 244.654 178.28C243.211 178.029 242.827 177.526 242.827 177.372C242.827 176.847 242.761 176.265 242.717 175.739C242.439 172.319 241.152 164.996 240.758 161.507C240.558 159.595 240.975 157.668 241.947 156.009L239.866 146.621C239.238 151.073 238.178 155.452 236.703 159.698C235.076 164.295 229.443 177.879 229.443 177.879C228.93 179.309 225.891 178.571 225.51 176.121L225.647 175.52Z" fill="#F28F8F"/>
<path d="M225.647 175.52C224.887 175.385 224.981 178.023 224.524 179.635C224.033 181.352 223.163 182.507 222.743 183.912C222.265 185.521 222.324 186.24 222.787 187.724C223.15 188.878 225.579 190.831 226.827 189.517C228.076 188.202 228.57 186.525 228.705 184.863C228.821 183.467 229.051 182.082 229.393 180.723C229.706 179.359 230.454 176.968 229.897 176.784L229.584 177.566C229.133 178.114 225.732 177.375 225.516 176.12L225.647 175.52Z" fill="#37474F"/>
<path d="M241.985 177.479C241.788 178.311 242.013 180.586 242.013 180.586C242.013 180.586 242.379 181.368 243.662 181.881L244.216 178.711L241.985 177.479Z" fill="#263238"/>
<path d="M243.662 181.882L246.482 180.937L247.145 178.424L244 179.941L243.662 181.882Z" fill="black"/>
<path d="M247.164 174.703L247.273 173.958C247.658 174.143 247.624 177.209 249.664 179.384C251.169 180.986 252.884 181.931 253.56 182.767C254.464 183.887 252.324 185.758 249.52 185.176C248.131 184.892 246.018 184.015 245.452 183.083C244.886 182.15 244.482 180.626 244.013 179.954C243.543 179.281 242.235 178.736 241.928 177.976C241.591 177.137 241.866 176.005 242.101 175.225C242.313 174.509 242.185 173.742 242.514 173.727L242.586 174.309C242.777 174.69 243.9 175.197 245.314 175.263C245.975 175.279 246.86 175.316 247.164 174.703Z" fill="#37474F"/>
<path d="M248.247 126.504C248.247 126.504 245.117 127.417 239.09 126.979C233.064 126.541 231.368 125.728 231.368 125.728C231.368 125.728 229.205 128.544 228.799 131.673C228.464 134.258 228.686 139.531 229.168 145.97C229.59 151.641 229.815 154.501 229.815 154.501C229.815 154.501 228.451 156.851 227.453 158.935C226.173 161.617 226.217 170.406 225.976 173.642C227.124 174.969 229.612 175.52 230.52 175.294C231.9 172.422 236.331 161.307 237.041 159.194C237.751 157.082 239.356 153.093 239.876 146.624L241.541 156.065C241.078 157.157 240.763 158.305 240.602 159.479C240.289 161.526 241.794 169.871 242.345 172.475C243.246 173.176 245.433 173.727 247.483 172.503C247.796 170.09 249.298 160.978 249.511 158.422C249.511 158.422 250.209 152.448 250.04 143.261C249.927 137.634 249.327 132.027 248.247 126.504Z" fill="#455A64"/>
<path d="M239.876 146.615L240.724 137.162C240.724 137.162 244.554 134.972 245.49 132.935C245.49 132.935 245.33 136.108 242.482 137.826L241.128 147.398L241.541 156.069L239.876 146.615Z" fill="#37474F"/>
<path d="M246.341 117.697C246.472 117.909 247.592 116.501 247.677 116.386C248.046 115.825 248.325 115.312 248.234 114.611C248.143 113.91 247.686 113.206 247.47 112.502C247.198 111.707 247.121 110.858 247.245 110.027C247.395 109.207 247.811 108.44 247.871 107.611C247.898 106.95 247.764 106.291 247.48 105.693C246.923 104.441 244.976 103.581 244.225 101.037C244.055 100.194 243.986 99.3332 244.022 98.4739C244.047 97.3286 244.097 96.1551 243.737 95.0662C243.509 94.3342 243.051 93.6948 242.432 93.2419C242.132 93.0778 241.818 92.9406 241.494 92.8319C241.181 92.6848 241.181 92.5409 241.046 92.2217C240.542 91.0013 239.453 90.3849 238.23 90.0626C236.765 89.6777 234.475 89.7716 233.671 89.928C232.316 90.194 231.299 90.4756 229.915 90.5382C229.559 90.5539 228.711 90.5382 228.423 90.751C228.218 90.9039 228.067 91.1189 227.994 91.3642C227.921 91.6094 227.928 91.8718 228.016 92.1122C228.185 92.713 228.858 93.1761 228.836 93.9897C228.482 94.4059 228.044 95.1694 228.664 95.5543C228.847 95.6621 229.055 95.7213 229.268 95.7264C229.033 95.9499 228.823 96.1986 228.642 96.4681C228.46 96.7398 228.368 97.0615 228.379 97.3881C228.386 97.5508 228.434 97.7092 228.517 97.8491C228.601 97.9889 228.718 98.1058 228.858 98.1891C228.982 98.2489 229.114 98.2921 229.249 98.3174L230.147 98.5302C230.084 98.6523 230.034 98.7399 230.019 98.7712C229.08 100.242 227.356 101.919 228.548 103.778C228.817 104.194 229.215 104.585 229.202 105.08C229.183 105.756 228.439 106.131 227.822 106.41C226.57 106.979 224.571 108.372 225.416 110.024C225.659 110.42 225.769 110.884 225.729 111.347C225.708 111.543 225.629 111.727 225.502 111.876C225.374 112.025 225.205 112.132 225.015 112.183C224.766 112.27 224.493 112.264 224.249 112.165C224.004 112.066 223.804 111.881 223.685 111.645C223.372 112.702 224.274 113.885 225.801 113.917C226.793 113.938 227.769 113.391 227.772 113.191C226.883 114.236 227.581 116.267 228.686 116.304C228.276 116.93 227.86 118.739 229.437 120.372C229.923 120.889 230.554 121.246 231.247 121.397C231.94 121.549 232.663 121.487 233.32 121.22C233.702 121.912 234.259 122.888 235.004 123.098C236.124 123.429 237.441 123.595 238.377 122.894C239.037 122.4 239.378 121.558 240.054 121.082C240.702 121.558 241.375 122.043 242.157 122.212C243.706 122.547 245.286 121.517 246.094 120.15C246.55 119.405 246.794 118.435 246.341 117.697Z" fill="#263238"/>
<path d="M267.413 102.214C267.106 102.143 266.785 102.169 266.493 102.286C266.036 102.498 265.595 102.745 265.175 103.024C264.503 103.39 263.417 103.991 262.638 103.963C262.478 103.963 262.153 103.891 262.369 103.694C262.664 103.452 262.938 103.186 263.188 102.899C263.311 102.753 263.403 102.583 263.457 102.4C263.511 102.217 263.526 102.024 263.501 101.835C263.487 101.719 263.43 101.613 263.342 101.538C263.21 101.441 263.123 101.503 263.029 101.582C262.917 101.659 262.8 101.729 262.678 101.791C262.434 101.932 262.19 102.07 261.946 102.214C260.529 103.043 259.111 104.013 258.272 105.465C258.15 105.678 257.418 107.342 256.946 108.281C256.561 109.135 253.923 114.486 253.923 114.486L248.966 109.877C247.802 108.716 247.204 108.2 245.971 107.605C245.222 107.324 244.448 107.114 243.659 106.979L245.74 115.478C245.74 115.478 250.715 119.149 251.498 119.715C252.662 120.557 254.883 122.109 256.326 120.685C258.094 118.936 258.717 115.973 259.368 113.82C260.097 111.395 260.306 110.231 260.738 109.498C261.17 108.766 261.843 108.713 262.328 108.56C262.999 108.373 263.64 108.093 264.234 107.727C264.769 107.434 265.263 107.07 265.701 106.645C265.935 106.46 266.128 106.229 266.268 105.966C266.297 105.722 266.342 105.481 266.402 105.243C266.562 105.002 266.709 104.753 266.843 104.498C266.888 104.276 266.902 104.048 266.887 103.822C266.908 103.662 266.962 103.507 267.046 103.369C267.13 103.231 267.242 103.113 267.375 103.021C267.508 102.924 267.615 102.796 267.688 102.649C267.785 102.392 267.619 102.27 267.413 102.214Z" fill="#FFBF9D"/>
<path d="M261.749 104.633C261.388 105.514 260.784 106.274 260.006 106.823C260.504 106.767 260.964 106.532 261.302 106.163C261.48 105.954 261.612 105.709 261.689 105.446C261.766 105.182 261.786 104.905 261.749 104.633Z" fill="#B16668"/>
<path d="M248.569 127.869L248.854 129.8C248.854 129.8 246.35 131.593 240.014 131.624C233.677 131.656 229.581 128.764 229.581 128.764L230.426 126.965L248.569 127.869Z" fill="#C02FD8"/>
<path opacity="0.3" d="M248.569 127.869L248.854 129.8C248.854 129.8 246.35 131.593 240.014 131.624C233.677 131.656 229.581 128.764 229.581 128.764L230.426 126.965L248.569 127.869Z" fill="black"/>
<path d="M230.429 125.591C231.424 123.62 231.906 122.102 231.893 120.797C231.893 120.153 231.759 118.976 231.13 117.08C230.501 115.183 230.382 113.143 230.316 111.528C230.222 109.135 231.946 107.291 232.713 106.835C232.713 106.835 234.591 106.522 237.454 106.259C240.317 105.996 243.656 106.947 243.656 106.947C245.13 108.127 245.824 108.556 247.627 111.122C248.71 112.664 249.548 115.503 247.348 117.49C247.389 117.981 247.474 118.998 247.383 122.321C247.486 122.963 248.653 126.189 248.807 127.137C248.96 128.085 248.409 128.407 248.409 128.407C248.409 128.407 245.94 130.15 240.148 130.044C233.62 129.925 230.948 128.126 230.294 127.631C229.756 126.918 230.144 126.157 230.429 125.591Z" fill="#C02FD8"/>
<path opacity="0.3" d="M242.101 117.794C242.101 117.794 240.342 119.762 237.848 119.359C236.892 119.226 236.009 118.773 235.345 118.072C235.315 118.044 235.277 118.027 235.236 118.024C235.195 118.022 235.155 118.034 235.122 118.058C235.089 118.083 235.066 118.118 235.057 118.158C235.048 118.198 235.054 118.24 235.072 118.276C235.507 119.033 236.352 119.872 237.989 120.066C238.828 120.18 239.681 120.021 240.422 119.612C241.162 119.202 241.751 118.565 242.101 117.794Z" fill="black"/>
<path d="M231.292 94.0242C230.501 94.6063 230.241 95.1977 230.776 99.9697C231.192 103.678 232.231 104.576 233.323 104.842C234.097 105.014 234.899 105.014 235.673 104.842L235.811 105.906C235.811 105.906 235.736 109.057 241.265 109.542C242.858 108.103 241.516 106.45 241.516 106.45L240.89 100.962C241.16 101.101 241.468 101.145 241.767 101.088C242.065 101.032 242.336 100.877 242.536 100.649C243.183 99.9416 243.421 98.4364 242.611 97.7636C241.8 97.0909 240.668 97.6385 240.367 98.4145C240.067 99.1906 239.428 99.3533 239.231 98.0296C239.034 96.706 238.9 94.2746 237.075 93.4297C234.056 93.8866 234.503 96.3148 231.292 94.0242Z" fill="#FFBF9D"/>
<path d="M231.248 97.3512L232.3 96.838C232.27 96.7678 232.225 96.7046 232.17 96.6521C232.114 96.5996 232.049 96.5589 231.977 96.5326C231.905 96.5062 231.829 96.4948 231.753 96.4989C231.676 96.5029 231.602 96.5225 231.533 96.5564C231.395 96.6294 231.289 96.7514 231.237 96.8985C231.184 97.0456 231.188 97.2071 231.248 97.3512Z" fill="#263238"/>
<path d="M236.118 101.084L234.641 101.888C234.688 101.987 234.756 102.075 234.838 102.147C234.921 102.219 235.018 102.274 235.122 102.307C235.227 102.34 235.337 102.352 235.446 102.341C235.556 102.331 235.662 102.298 235.758 102.245C235.955 102.134 236.101 101.952 236.168 101.736C236.235 101.52 236.217 101.287 236.118 101.084Z" fill="#B16668"/>
<path d="M236.187 96.4485L237.313 96.7615C237.337 96.689 237.346 96.6124 237.339 96.5364C237.332 96.4604 237.31 96.3866 237.274 96.3195C237.237 96.2524 237.188 96.1934 237.128 96.1462C237.068 96.099 236.999 96.0645 236.925 96.0449C236.774 96.0083 236.614 96.0294 236.478 96.104C236.341 96.1787 236.237 96.3015 236.187 96.4485Z" fill="#263238"/>
<path d="M234.343 97.3887L234.65 100.784L232.901 100.612L234.343 97.3887Z" fill="#B16668"/>
<path d="M235.673 104.87C236.865 104.589 239.047 104.032 240.001 102.098C240.001 102.098 239.791 103.387 239.047 104.032C238.004 104.933 235.745 105.415 235.745 105.415L235.673 104.87Z" fill="#B16668"/>
<path d="M236.975 97.8577C237.025 98.1988 236.7 97.72 236.349 97.7795C235.999 97.8389 235.774 98.4053 235.723 98.0705C235.701 97.9045 235.744 97.7362 235.843 97.6013C235.942 97.4664 236.09 97.3754 236.255 97.3476C236.336 97.3315 236.42 97.3321 236.501 97.3493C236.581 97.3665 236.658 97.4 236.725 97.4477C236.792 97.4955 236.849 97.5564 236.892 97.6269C236.935 97.6974 236.964 97.776 236.975 97.8577Z" fill="#263238"/>
<path d="M233.02 98.4366C232.97 98.7746 232.797 98.2301 232.45 98.1863C232.103 98.1425 231.721 98.6244 231.771 98.2833C231.798 98.1187 231.888 97.9711 232.021 97.8713C232.155 97.7715 232.322 97.7274 232.488 97.7482C232.568 97.757 232.647 97.782 232.717 97.8217C232.788 97.8614 232.85 97.915 232.9 97.9793C232.95 98.0436 232.986 98.1172 233.006 98.1958C233.027 98.2744 233.031 98.3563 233.02 98.4366Z" fill="#263238"/>
<path d="M235.389 102.354C235.359 102.158 235.408 101.957 235.525 101.797C235.642 101.636 235.818 101.528 236.014 101.497C236.076 101.491 236.138 101.491 236.199 101.497C236.2 101.653 236.158 101.806 236.08 101.941C236.001 102.076 235.888 102.187 235.752 102.263C235.64 102.322 235.515 102.353 235.389 102.354Z" fill="#FFBF9D"/>
<path d="M241.265 109.569C239.545 108.85 237.93 107.903 236.462 106.753C235.883 106.268 235.811 105.943 235.811 105.943L235.761 105.555L234.137 106.637C234.137 106.637 235.501 109.964 237.491 110.705C238.154 110.986 238.894 111.026 239.583 110.818C240.273 110.611 240.868 110.169 241.265 109.569Z" fill="white"/>
<path d="M241.265 109.569C241.265 109.569 242.141 110.245 242.83 110.214C243.95 110.158 244.047 109.469 243.521 108.437C242.996 107.404 242.583 106.662 242.583 106.662L241.381 105.326L241.516 106.478C241.919 107.557 241.691 108.593 241.265 109.569Z" fill="white"/>
<path d="M215.536 134.898C216.951 135.333 217.101 135.33 219.373 136.757C220.937 137.749 223.143 139.182 225.262 140.718L229.251 134.566L232.068 136.782C231.165 139.262 230.109 141.683 228.907 144.032C228.357 145.068 226.998 147.277 225.215 146.52C223.478 145.782 217.492 142.374 217.492 142.374L215.536 134.898Z" fill="#FFBF9D"/>
<path d="M230.237 135.352L229.252 134.566L227.925 136.613C228.424 137.095 229.04 137.438 229.712 137.609C230.385 137.779 231.09 137.77 231.758 137.583C231.949 137.082 232.071 136.782 232.071 136.782L230.237 135.352Z" fill="#B16668"/>
<path d="M214.704 134.66C217.983 135.164 218.124 135.599 220.305 137.02C222.33 138.343 224.724 140.196 224.724 140.196C224.079 141.955 223.066 143.555 221.751 144.89L215.536 141.673L214.704 134.66Z" fill="#455A64"/>
<path d="M222.999 119.547C227.412 110.015 228.41 108.125 230.197 107.343C231.002 107.055 231.846 106.889 232.7 106.849C233.326 107.997 234.712 112.206 232.093 114.753C232.093 114.753 229.123 119.206 227.781 121.581C228.053 124.041 228.476 127.68 229.264 129.385C229.475 129.772 229.804 130.082 230.203 130.271C231.142 130.743 231.214 131.21 231.983 131.735C232.584 132.155 233.06 132.195 233.01 132.361C232.922 132.569 232.766 132.741 232.568 132.849C232.369 132.956 232.14 132.993 231.918 132.953C231.511 132.892 231.115 132.775 230.741 132.605C231.17 133.261 231.698 133.847 232.306 134.342C233.764 135.55 233.927 136.429 231.345 136.945C229.724 137.258 228.319 136.592 226.698 133.522C226.081 132.4 225.549 131.232 225.109 130.03C224.364 127.777 223.231 124.929 222.668 122.348C222.358 120.78 222.74 120.104 222.999 119.547Z" fill="#FFBF9D"/>
<path d="M229.837 131.613C229.183 131.763 228.561 132.026 227.997 132.389C227.928 132.427 227.875 132.489 227.85 132.564C227.815 132.721 227.988 132.877 228.254 132.946C228.266 132.949 228.278 132.955 228.288 132.963C228.299 132.971 228.307 132.981 228.313 132.993C228.319 133.007 228.322 133.022 228.322 133.037C228.322 133.052 228.319 133.067 228.313 133.081C228.282 133.216 228.303 133.358 228.373 133.477C228.443 133.597 228.556 133.686 228.688 133.725C228.737 133.738 228.783 133.76 228.823 133.791C228.859 133.829 228.885 133.875 228.898 133.926C228.967 134.087 229.082 134.225 229.229 134.321C229.376 134.417 229.549 134.468 229.724 134.467C229.782 134.459 229.841 134.459 229.899 134.467C229.949 134.486 229.996 134.51 230.04 134.539C230.221 134.624 230.42 134.662 230.619 134.648C231.3 134.694 231.984 134.678 232.663 134.601L233.169 135.155C233.426 134.933 233.091 133.778 232.584 133.046C232.342 132.679 232.049 132.347 231.714 132.061C231.41 131.764 231.023 131.567 230.604 131.497C230.363 131.489 230.123 131.521 229.893 131.591L229.837 131.613Z" fill="#FFBF9D"/>
<path d="M204.409 152.307C204.149 154.134 205.05 155.999 204.931 157.892C204.687 161.816 204.521 164.755 204.055 169.567C203.363 171.664 202.864 173.82 202.562 176.007C202.215 178.432 202.093 182.472 201.386 185.135L201.279 185.573C201.508 187.416 203.902 188.211 204.321 187.138C204.321 187.138 208.476 176.699 209.806 173.297C210.99 170.196 211.964 167.019 212.723 163.788L213.796 171.035C213.796 171.035 213.339 172.913 213.755 176.251C214.068 178.864 215.458 183.514 215.358 186.45C215.358 186.841 215.818 187.723 216.894 187.942C217.971 188.161 218.919 187.041 218.941 186.884C218.994 186.515 219.879 175.134 220.102 172.418C220.615 166.444 219.369 156.512 218.887 152.307H204.409Z" fill="#FFBF9D"/>
<path d="M220.577 166.73C220.577 163.87 219.35 155.365 219.031 152.188H204.283L203.911 169.418C203.474 170.692 203.118 171.992 202.847 173.311C202.368 175.592 201.908 181.059 201.908 181.059C201.908 181.059 202.271 181.997 203.701 182.495C204.566 182.793 205.514 182.743 206.342 182.354C206.342 182.354 208.123 177.798 208.533 176.847C209.105 175.539 209.872 173.627 210.679 171.355C211.487 169.083 212.645 164.946 212.645 164.946L213.63 171.036C213.333 172.635 213.411 175.529 213.802 177.801C214.193 180.073 214.704 182.689 214.704 182.689C214.704 182.689 215.527 183.165 217.248 183.127C218.969 183.089 219.46 182.42 219.46 182.42C219.46 182.42 220.236 174.08 220.399 171.067C220.561 168.054 220.577 166.73 220.577 166.73Z" fill="#455A64"/>
<path d="M212.651 164.946C213.202 162.755 212.876 159.207 212.876 159.207C212.876 159.207 215.132 159.229 216.293 157.68C215.961 158.601 215.366 159.405 214.582 159.992L213.33 165.353L213.643 171.035L212.651 164.946Z" fill="#37474F"/>
<path d="M224.899 192.459C224.957 192.642 224.965 192.838 224.921 193.025C224.878 193.212 224.785 193.384 224.651 193.523C224.207 193.873 222.924 194.427 221.275 194.149C219.626 193.87 219.175 193.507 218.534 192.922C217.892 192.337 217.31 191.727 216.566 191.53C215.874 191.345 214.826 191.019 214.61 190.794C214.394 190.569 214.469 189.611 214.469 189.611L224.899 192.459Z" fill="#263238"/>
<path d="M215.286 185.477C215.22 185.478 215.157 185.5 215.105 185.539C215.053 185.579 215.014 185.633 214.995 185.696C214.932 185.955 214.844 186.722 214.716 187.151C214.52 188.066 214.443 189.003 214.488 189.939C214.557 190.433 215.987 190.799 216.7 191.109C217.435 191.448 218.105 191.914 218.678 192.486C219.52 193.223 220.581 193.663 221.697 193.738C222.977 193.785 224.436 193.425 224.792 192.855C225.233 192.139 225.324 191.435 223.465 190.471C223.112 190.289 222.032 189.591 221.613 189.3C221.153 188.99 220.725 188.635 220.336 188.24C220.063 187.971 219.822 187.671 219.617 187.348C219.522 187.163 219.451 186.966 219.407 186.763C219.346 186.557 219.296 186.348 219.257 186.137C219.254 186.077 219.239 186.018 219.212 185.965C219.186 185.911 219.149 185.863 219.103 185.824C219.027 185.787 218.94 185.776 218.856 185.793C218.421 185.826 217.99 185.903 217.57 186.021C217.399 186.054 217.243 186.143 217.129 186.275C217.063 186.38 217.029 186.501 217.029 186.625C217.028 186.748 217.02 186.872 217.004 186.994C216.997 187.038 216.977 187.08 216.947 187.113C216.882 187.176 216.778 187.113 216.728 187.066C216.549 186.872 216.387 186.663 216.243 186.44C216.156 186.328 215.758 186.237 215.649 186.146C215.54 186.077 215.436 186.002 215.336 185.921C215.223 185.777 215.286 185.63 215.286 185.477Z" fill="#37474F"/>
<path d="M218.678 192.486C218.407 192.232 218.123 191.993 217.826 191.77C217.826 191.77 219.813 192.655 220.743 192.083C221.341 191.71 221.087 191.216 221.078 191.062C221.068 190.909 222.533 190.308 223.099 190.268C223.252 190.361 223.384 190.437 223.465 190.477C225.324 191.441 225.233 192.145 224.792 192.862C224.435 193.441 223.371 193.857 221.716 193.8C220.588 193.701 219.523 193.24 218.678 192.486Z" fill="#455A64"/>
<path d="M220.943 190.602C222.101 191.125 221.588 191.325 221.256 191.357C220.924 191.388 219.3 190.358 218.127 189.348C216.906 188.29 215.849 187.185 215.395 186.797C215.226 186.653 215.048 186.484 214.885 186.312C214.929 186.053 214.963 185.818 214.991 185.686C215.016 185.618 215.057 185.556 215.112 185.508C215.167 185.46 215.233 185.426 215.304 185.411L215.339 185.84C215.426 185.94 215.532 186.021 215.652 186.078C215.864 186.145 216.059 186.257 216.224 186.406C216.368 186.628 216.53 186.838 216.709 187.032C217.701 188.406 219.782 190.08 220.943 190.602Z" fill="#263238"/>
<path d="M221.181 191.181C221.153 191.179 221.127 191.168 221.106 191.15C221.084 191.127 221.072 191.098 221.072 191.067C221.072 191.036 221.084 191.006 221.106 190.984C221.396 190.709 221.742 190.5 222.12 190.369C222.497 190.239 222.898 190.19 223.296 190.227C223.327 190.231 223.355 190.248 223.373 190.273C223.392 190.298 223.4 190.329 223.395 190.36C223.39 190.39 223.374 190.418 223.349 190.436C223.324 190.455 223.293 190.463 223.262 190.458C222.901 190.428 222.538 190.473 222.195 190.59C221.853 190.707 221.538 190.895 221.272 191.14C221.26 191.153 221.246 191.163 221.231 191.17C221.215 191.177 221.198 191.181 221.181 191.181Z" fill="#F0F0F0"/>
<path d="M220.174 190.555C220.147 190.552 220.121 190.542 220.098 190.527C220.078 190.504 220.066 190.475 220.066 190.444C220.066 190.413 220.078 190.384 220.098 190.361C220.384 190.077 220.728 189.858 221.106 189.718C221.484 189.578 221.887 189.521 222.289 189.551C222.32 189.555 222.347 189.571 222.367 189.596C222.386 189.62 222.395 189.651 222.392 189.682C222.39 189.697 222.385 189.712 222.378 189.725C222.37 189.739 222.36 189.75 222.347 189.76C222.335 189.769 222.321 189.776 222.306 189.78C222.291 189.783 222.276 189.784 222.261 189.782C221.899 189.761 221.537 189.815 221.197 189.94C220.857 190.066 220.547 190.26 220.286 190.511C220.273 190.528 220.256 190.541 220.236 190.549C220.216 190.557 220.195 190.559 220.174 190.555Z" fill="#F0F0F0"/>
<path d="M219.25 189.852C219.222 189.851 219.196 189.839 219.175 189.82C219.154 189.799 219.142 189.769 219.142 189.739C219.142 189.708 219.154 189.679 219.175 189.658C219.465 189.383 219.811 189.173 220.189 189.041C220.566 188.91 220.968 188.861 221.366 188.897C221.397 188.902 221.425 188.919 221.444 188.944C221.462 188.969 221.47 189.001 221.466 189.032C221.46 189.062 221.443 189.089 221.418 189.108C221.393 189.126 221.362 189.133 221.331 189.129C220.97 189.098 220.607 189.143 220.264 189.261C219.921 189.379 219.607 189.568 219.341 189.814C219.317 189.838 219.284 189.851 219.25 189.852Z" fill="#F0F0F0"/>
<path d="M218.434 189.217C218.407 189.216 218.38 189.207 218.359 189.192C218.335 189.172 218.32 189.143 218.317 189.112C218.314 189.081 218.323 189.05 218.343 189.026C218.622 188.738 218.96 188.513 219.334 188.366C219.707 188.219 220.108 188.154 220.508 188.175C220.539 188.178 220.567 188.193 220.587 188.217C220.606 188.241 220.615 188.272 220.612 188.303C220.608 188.334 220.593 188.362 220.569 188.381C220.545 188.4 220.514 188.409 220.483 188.406C220.121 188.391 219.76 188.451 219.423 188.583C219.086 188.715 218.78 188.916 218.524 189.173C218.514 189.186 218.5 189.198 218.484 189.205C218.468 189.213 218.451 189.217 218.434 189.217Z" fill="#F0F0F0"/>
<path d="M217.551 188.472C217.525 188.473 217.499 188.464 217.479 188.447C217.456 188.428 217.441 188.4 217.437 188.37C217.434 188.339 217.442 188.309 217.461 188.284C217.924 187.706 218.963 187.33 219.829 187.43C219.86 187.434 219.888 187.449 219.908 187.473C219.927 187.497 219.936 187.528 219.933 187.559C219.929 187.589 219.914 187.617 219.89 187.637C219.866 187.656 219.835 187.665 219.804 187.662C219.022 187.574 218.055 187.918 217.645 188.428C217.634 188.443 217.62 188.454 217.603 188.461C217.587 188.469 217.569 188.473 217.551 188.472Z" fill="#F0F0F0"/>
<path d="M203.977 192.655C203.761 193.782 203.479 194.517 202.963 195.137C202.446 195.756 201.608 195.885 200.807 195.603C200.006 195.321 199.02 194.692 198.907 193.688C198.808 192.773 198.924 191.847 199.245 190.984L203.977 192.655Z" fill="#263238"/>
<path d="M201.567 184.422C201.27 184.478 200.813 185.927 200.422 187.435C200.006 189.047 199.636 189.51 199.28 190.834C198.87 192.342 198.923 192.868 199.38 193.853C199.837 194.839 201.758 195.959 202.928 194.736C203.867 193.738 204.017 192.711 204.136 191.172C204.219 189.948 204.377 188.73 204.609 187.526C204.818 186.387 205.379 185.398 205.1 185.239C205.056 185.408 204.587 186.615 204.377 186.45C204.277 186.421 204.28 186.259 204.34 185.961C204.358 185.899 204.364 185.833 204.357 185.768C204.349 185.703 204.329 185.64 204.296 185.583C204.199 185.481 204.074 185.412 203.936 185.386C203.623 185.292 203.163 185.148 202.828 185.073C202.631 185.035 202.744 185.045 202.547 185.013C202.303 184.945 202.049 184.927 201.799 184.96C201.686 185.001 201.664 185.095 201.623 185.201C201.583 185.307 201.539 185.451 201.489 185.555C201.47 185.595 201.395 185.677 201.348 185.667C201.301 185.658 201.273 185.455 201.292 185.37C201.311 185.286 201.317 185.145 201.336 185.041C201.354 184.938 201.501 184.688 201.567 184.422Z" fill="#37474F"/>
<path d="M199.402 190.314C199.342 190.533 199.004 191.895 199.402 192.192C199.799 192.489 200.228 191.4 200.228 191.4C200.228 191.4 201.351 191.203 202.847 192.01C202.734 192.239 202.878 193.046 203.332 192.927C203.786 192.808 204.114 191.313 204.117 191.294C203.998 192.768 203.848 193.753 202.922 194.736C201.752 195.96 199.83 194.839 199.374 193.854C198.917 192.868 198.863 192.342 199.273 190.834C199.32 190.681 199.367 190.449 199.402 190.314Z" fill="#455A64"/>
<path d="M200.34 191.52C200.265 192.074 199.758 191.833 199.777 191.041C199.802 189.862 200.253 188.779 200.403 187.433C200.794 185.925 201.207 184.411 201.548 184.42C201.504 184.686 201.345 185.28 201.345 185.28C201.32 185.39 201.238 185.643 201.238 185.643C200.988 186.776 200.5 188.078 200.4 189.261C200.34 190.303 200.422 190.973 200.34 191.52Z" fill="#263238"/>
<path d="M202.672 191.988C202.85 191.456 203.06 191.318 203.298 190.298C203.535 189.278 204.236 187.523 204.603 186.431C204.762 186.011 205.088 185.251 205.091 185.238C205.291 185.357 205.222 185.942 204.969 186.615C204.715 187.288 204.549 187.698 204.358 188.352C203.902 189.641 203.679 191.037 203.392 191.778C203.104 192.52 202.49 192.52 202.672 191.988Z" fill="#263238"/>
<path d="M202.803 192.029C202.787 192.025 202.771 192.019 202.756 192.01C201.973 191.565 201.069 191.382 200.175 191.487C200.142 191.493 200.109 191.485 200.082 191.467C200.055 191.448 200.037 191.419 200.031 191.387C200.027 191.355 200.036 191.323 200.056 191.298C200.076 191.273 200.105 191.257 200.137 191.253C201.095 191.133 202.065 191.331 202.9 191.816C202.914 191.824 202.925 191.834 202.934 191.847C202.944 191.86 202.95 191.874 202.953 191.89C202.956 191.905 202.956 191.921 202.953 191.936C202.95 191.951 202.944 191.966 202.935 191.979C202.919 191.998 202.899 192.013 202.876 192.022C202.853 192.031 202.828 192.033 202.803 192.029Z" fill="#F0F0F0"/>
<path d="M203.282 190.966L203.244 190.95C202.318 190.464 201.274 190.247 200.231 190.324C200.198 190.328 200.166 190.319 200.139 190.299C200.113 190.279 200.096 190.25 200.09 190.218C200.088 190.185 200.099 190.154 200.12 190.129C200.141 190.105 200.171 190.089 200.203 190.086C201.304 190.005 202.406 190.238 203.379 190.759C203.393 190.767 203.405 190.778 203.414 190.791C203.424 190.804 203.43 190.818 203.434 190.834C203.438 190.849 203.438 190.865 203.435 190.881C203.432 190.897 203.426 190.912 203.417 190.925C203.4 190.943 203.379 190.957 203.355 190.964C203.331 190.971 203.306 190.972 203.282 190.966Z" fill="#F0F0F0"/>
<path d="M200.171 189.391C200.141 189.391 200.111 189.379 200.09 189.357C200.068 189.335 200.056 189.306 200.056 189.275C200.056 189.244 200.068 189.215 200.09 189.193C200.111 189.171 200.141 189.159 200.171 189.159C201.755 188.846 203.673 189.707 203.732 189.747C203.746 189.756 203.757 189.767 203.766 189.779C203.775 189.792 203.781 189.807 203.784 189.822C203.787 189.837 203.786 189.853 203.783 189.868C203.78 189.883 203.773 189.898 203.764 189.91C203.743 189.936 203.714 189.953 203.682 189.959C203.65 189.965 203.617 189.959 203.589 189.941C203.589 189.941 201.711 189.087 200.225 189.391C200.207 189.395 200.189 189.395 200.171 189.391Z" fill="#F0F0F0"/>
<path d="M200.544 188.425C200.521 188.421 200.5 188.411 200.483 188.395C200.465 188.38 200.453 188.36 200.447 188.337C200.444 188.322 200.444 188.306 200.447 188.29C200.45 188.275 200.456 188.26 200.464 188.247C200.473 188.234 200.484 188.223 200.497 188.214C200.511 188.205 200.525 188.199 200.541 188.196C202.287 187.808 203.898 188.841 203.955 188.882C203.967 188.891 203.978 188.903 203.986 188.916C203.994 188.93 203.999 188.944 204.001 188.96C204.003 188.975 204.002 188.991 203.998 189.006C203.994 189.021 203.986 189.035 203.977 189.048C203.955 189.073 203.925 189.09 203.892 189.094C203.859 189.098 203.825 189.089 203.798 189.069C203.798 189.069 202.234 188.065 200.6 188.425H200.544Z" fill="#F0F0F0"/>
<path d="M200.8 187.226C200.77 187.226 200.74 187.214 200.719 187.192C200.697 187.171 200.685 187.141 200.685 187.11C200.685 187.08 200.697 187.05 200.719 187.029C200.74 187.007 200.77 186.995 200.8 186.995C202.437 186.61 204.171 187.677 204.243 187.718C204.256 187.726 204.267 187.738 204.276 187.751C204.284 187.764 204.29 187.779 204.292 187.795C204.295 187.811 204.294 187.827 204.289 187.842C204.285 187.857 204.278 187.871 204.268 187.883C204.247 187.91 204.217 187.927 204.183 187.931C204.15 187.936 204.117 187.928 204.089 187.908C204.089 187.908 202.393 186.866 200.872 187.226C200.849 187.231 200.824 187.231 200.8 187.226Z" fill="#EBEBEB"/>
<path d="M205.589 135.272C204.337 135.645 203.758 139.941 203.986 141.722C204.215 143.502 204.612 147.63 204.612 147.63L204.058 153.704C206.055 156.072 214.469 157.033 219.188 153.885C219.188 153.885 219.132 143.383 218.875 141.055C218.45 137.031 216.55 135 214.907 134.7C213.264 134.399 211.712 133.974 210.214 134.19C208.65 134.45 207.105 134.812 205.589 135.272Z" fill="#C02FD8"/>
<path d="M208.658 133.398C207.663 132.566 206.468 131.977 205.507 130.867C205.144 130.444 204.759 129.402 204.594 128.748C204.181 127.118 204.343 124.955 205.57 123.766C205.57 123.766 205.47 121.779 207.735 120.468C208.698 119.948 209.761 119.642 210.853 119.569C211.945 119.496 213.039 119.659 214.063 120.046C215.083 120.427 215.967 121.102 216.604 121.986C217.279 123.016 217.582 124.246 217.461 125.472C217.307 126.296 216.87 127.039 216.225 127.575C215.581 128.098 214.86 128.521 214.088 128.826C213.615 129.033 213.149 129.224 212.664 129.437C212.412 129.527 212.169 129.644 211.941 129.784C211.799 129.922 211.673 130.075 211.565 130.241L209.406 132.829C209.212 133.082 208.954 133.278 208.658 133.398Z" fill="#263238"/>
<path d="M208.076 128.974C208.06 128.997 208.041 129.018 208.02 129.036C207.707 129.299 207.632 128.692 207.244 128.326C207.139 128.234 207.014 128.167 206.879 128.13C206.744 128.094 206.602 128.089 206.465 128.116C206.237 128.134 206.02 128.219 205.84 128.36C205.66 128.501 205.526 128.691 205.454 128.908C205.397 129.129 205.384 129.36 205.417 129.586C205.451 129.812 205.529 130.029 205.647 130.224C205.765 130.42 205.922 130.589 206.107 130.723C206.292 130.857 206.502 130.953 206.724 131.005C206.985 131.077 207.261 131.071 207.519 130.988C207.776 130.905 208.004 130.749 208.173 130.538L208.323 134.919C209.17 135.778 210.31 136.285 211.515 136.337C213.743 136.462 213.618 135.148 213.199 134.522L213.277 133.305C214.042 133.336 214.803 133.179 215.492 132.848C216.039 132.569 216.504 132.151 216.839 131.636C217.175 131.122 217.369 130.529 217.404 129.916C217.467 129.024 217.11 128.279 217.013 127.394C216.957 126.868 216.901 126.032 216.847 125.691C216.803 125.391 216.718 125.097 216.597 124.818C213.706 125.444 210.289 124.768 209.268 124.192C209.425 124.819 209.403 125.477 209.206 126.092C208.988 126.714 208.602 127.264 208.089 127.678C208.199 127.997 208.232 128.337 208.183 128.67C208.172 128.779 208.136 128.883 208.076 128.974Z" fill="#FFBF9D"/>
<path d="M206.994 128.203C206.997 128.229 207.009 128.253 207.029 128.271C207.049 128.288 207.074 128.297 207.1 128.297L210.273 127.931C210.339 128.303 210.537 128.639 210.831 128.877C211.126 129.114 211.496 129.237 211.874 129.223C212.252 129.208 212.612 129.057 212.887 128.798C213.162 128.539 213.334 128.188 213.371 127.812C213.372 127.662 213.426 127.517 213.524 127.403C213.621 127.289 213.755 127.212 213.903 127.186C214.005 127.158 214.115 127.166 214.211 127.21C214.308 127.254 214.386 127.331 214.432 127.427C214.547 127.799 214.798 128.114 215.136 128.308C215.474 128.503 215.872 128.562 216.252 128.475C216.631 128.387 216.964 128.16 217.182 127.837C217.401 127.515 217.49 127.122 217.43 126.737C217.371 126.352 217.168 126.004 216.863 125.762C216.558 125.52 216.172 125.403 215.784 125.434C215.396 125.464 215.033 125.641 214.77 125.928C214.506 126.214 214.361 126.59 214.363 126.98C214.361 127.005 214.361 127.03 214.363 127.055C214.209 126.967 214.028 126.94 213.856 126.98C213.63 127.025 213.43 127.155 213.296 127.343C213.178 127.007 212.949 126.722 212.647 126.534C212.344 126.347 211.987 126.267 211.634 126.31C211.281 126.352 210.953 126.513 210.704 126.767C210.455 127.021 210.299 127.352 210.264 127.706L207.069 128.075C207.042 128.082 207.019 128.1 207.005 128.124C206.991 128.148 206.987 128.176 206.994 128.203ZM214.588 126.992C214.588 126.727 214.667 126.467 214.814 126.246C214.962 126.026 215.172 125.854 215.417 125.752C215.662 125.65 215.932 125.624 216.193 125.676C216.453 125.727 216.692 125.855 216.88 126.043C217.068 126.231 217.196 126.47 217.247 126.73C217.299 126.991 217.273 127.261 217.171 127.506C217.069 127.751 216.897 127.961 216.676 128.108C216.456 128.256 216.196 128.335 215.931 128.335C215.575 128.335 215.233 128.193 214.981 127.941C214.73 127.69 214.588 127.348 214.588 126.992ZM210.492 127.812C210.492 127.546 210.571 127.287 210.719 127.066C210.866 126.845 211.076 126.673 211.322 126.572C211.567 126.47 211.837 126.444 212.098 126.496C212.358 126.548 212.597 126.676 212.785 126.864C212.972 127.052 213.1 127.292 213.152 127.552C213.203 127.813 213.176 128.083 213.074 128.328C212.972 128.573 212.799 128.783 212.578 128.93C212.357 129.077 212.097 129.155 211.831 129.155C211.655 129.155 211.481 129.12 211.318 129.052C211.155 128.985 211.008 128.886 210.883 128.761C210.759 128.636 210.66 128.488 210.593 128.326C210.526 128.163 210.492 127.988 210.492 127.812Z" fill="#455A64"/>
<path d="M208.884 131.258C209.195 131.867 209.683 132.368 210.285 132.694C211.234 133.089 212.249 133.301 213.277 133.32L213.236 133.971C212.42 133.936 210.877 133.742 209.81 132.813C209.231 132.306 208.884 131.258 208.884 131.258Z" fill="#F28F8F"/>
<path d="M211.487 125.728L210.326 126.451C210.233 126.291 210.204 126.102 210.247 125.922C210.289 125.742 210.399 125.585 210.555 125.484C210.631 125.437 210.717 125.405 210.806 125.392C210.895 125.379 210.986 125.384 211.073 125.406C211.16 125.429 211.242 125.47 211.313 125.525C211.384 125.58 211.443 125.649 211.487 125.728Z" fill="#263238"/>
<path d="M212.582 130.188L214.428 130.35C214.401 130.6 214.277 130.829 214.084 130.989C213.891 131.15 213.643 131.229 213.393 131.211C213.271 131.2 213.153 131.164 213.046 131.106C212.938 131.048 212.844 130.969 212.768 130.873C212.692 130.777 212.637 130.667 212.605 130.549C212.573 130.431 212.565 130.308 212.582 130.188Z" fill="#B16668"/>
<path d="M212.82 130.522C212.753 130.535 212.689 130.558 212.629 130.591C212.683 130.756 212.784 130.902 212.919 131.01C213.055 131.118 213.22 131.183 213.393 131.198C213.459 131.204 213.526 131.204 213.593 131.198C213.599 131.148 213.599 131.098 213.593 131.048C213.578 130.962 213.546 130.88 213.499 130.807C213.451 130.734 213.39 130.671 213.318 130.621C213.246 130.572 213.164 130.538 213.079 130.521C212.993 130.504 212.905 130.505 212.82 130.522Z" fill="#F28F8F"/>
<path d="M211.359 127.766C211.379 127.875 211.432 127.976 211.51 128.056C211.588 128.136 211.688 128.19 211.797 128.213C211.906 128.236 212.02 128.226 212.123 128.184C212.227 128.143 212.315 128.071 212.378 127.979C212.441 127.887 212.475 127.778 212.476 127.667C212.477 127.555 212.444 127.446 212.383 127.353C212.322 127.259 212.234 127.187 212.132 127.143C212.029 127.1 211.916 127.088 211.806 127.109C211.734 127.122 211.664 127.15 211.603 127.19C211.541 127.231 211.487 127.283 211.446 127.344C211.404 127.405 211.375 127.474 211.36 127.546C211.345 127.619 211.345 127.693 211.359 127.766Z" fill="#263238"/>
<path d="M215.302 127.03C215.322 127.139 215.374 127.239 215.452 127.318C215.529 127.397 215.629 127.452 215.737 127.474C215.845 127.497 215.958 127.487 216.061 127.446C216.164 127.405 216.252 127.334 216.314 127.243C216.377 127.151 216.411 127.043 216.412 126.933C216.413 126.822 216.382 126.713 216.321 126.62C216.261 126.528 216.174 126.455 216.072 126.411C215.97 126.368 215.858 126.355 215.749 126.376C215.677 126.389 215.608 126.417 215.546 126.457C215.485 126.497 215.431 126.549 215.39 126.61C215.348 126.671 215.319 126.739 215.304 126.811C215.289 126.883 215.288 126.957 215.302 127.03Z" fill="#263238"/>
<path d="M213.821 127.224L214.319 129.399L215.668 128.751L214.062 127.187C213.98 127.185 213.899 127.198 213.821 127.224Z" fill="#F28F8F"/>
<path d="M198.502 136.243C197.813 134.929 197.128 134.562 196.643 133.696C196.017 132.566 194.909 130.291 194.909 130.291L190.081 131.543C190.081 131.543 191.761 134.046 192.431 135.235C192.769 135.83 192.49 136.844 192.957 137.66C193.263 138.186 198.057 137.197 198.502 136.243Z" fill="#B5675E"/>
<path d="M195.163 136.445C194.875 136.132 194.03 135.403 194.437 134.224C193.77 135.053 194.443 136.132 195.163 136.445Z" fill="#B16668"/>
<path d="M196.095 132.663C195.25 131.117 191.583 122.962 191.583 122.962C191.583 122.962 191.207 120.643 190.597 117.358C189.865 113.399 190 109.222 185.109 107.92C184.589 110.78 184.11 113.978 184.483 116.863C184.855 119.748 185.046 120.859 185.572 124.007C185.809 125.434 186.122 125.656 186.917 126.861C187.402 127.59 191.057 133.076 191.793 134.187" fill="#B5675E"/>
<path d="M191.733 134.468C191.733 134.468 194.803 134.045 195.87 131.993L192.832 123.897C192.832 123.897 192.281 120.08 191.724 116.206C191.035 111.384 190.625 108.696 187.64 107.895C187.64 107.895 183.841 111.049 184.114 115.355C184.293 118.124 184.662 120.878 185.218 123.597C185.447 124.871 185.487 125.474 186.539 126.926C187.59 128.378 191.733 134.468 191.733 134.468Z" fill="#263238"/>
<path d="M200.479 147.533C200.592 148.853 200.792 150.806 199.998 151.059C198.746 151.457 196.934 149.398 195.495 147.304C193.977 145.092 192.052 141.334 191.793 139.976C191.533 138.618 192.228 137.472 193.248 136.305C193.65 135.866 194.075 135.448 194.521 135.053C194.891 134.662 194.947 134.475 195.1 134.459C195.391 134.434 195.623 134.966 195.413 135.545C195.276 135.926 194.972 136.133 194.728 136.571C195.132 136.634 195.926 136.095 196.524 136.067C197.358 136.055 198.19 136.152 198.999 136.355C199.487 136.537 199.287 137.103 199.074 137.222C199.074 137.222 199.528 137.557 199.187 137.935C199.277 138.114 199.298 138.319 199.246 138.512C199.194 138.705 199.073 138.872 198.905 138.981C198.298 139.459 197.569 140.051 196.659 140.179C195.748 140.307 195.901 140.32 196.217 140.805C196.534 141.29 198.721 143.803 199.284 144.404C199.847 145.004 200.364 146.212 200.479 147.533Z" fill="#FFBF9D"/>
<path d="M198.305 139.424C197.916 139.722 197.093 138.848 196.546 138.526C196.433 138.447 196.303 138.398 196.166 138.381C196.03 138.365 195.892 138.382 195.764 138.432C195.635 138.495 195.623 138.476 195.485 138.413C195.288 138.328 195.069 138.306 194.859 138.351C194.612 138.401 194.391 138.536 194.233 138.733C194.215 138.76 194.192 138.783 194.165 138.802C194.139 138.814 194.111 138.821 194.083 138.823C193.89 138.858 193.701 138.914 193.52 138.992C193.438 139.018 193.363 139.062 193.3 139.121C193.238 139.18 193.19 139.253 193.16 139.333C193.116 139.531 193.27 139.712 193.414 139.856C193.614 140.053 193.817 140.241 194.039 140.426C194.216 140.589 194.413 140.73 194.625 140.845C194.788 140.924 194.959 140.986 195.135 141.03C195.503 141.14 195.886 141.197 196.271 141.198C196.626 141.179 196.974 141.091 197.297 140.942C197.727 140.771 198.146 140.57 198.549 140.341C199.428 139.959 199.156 138.742 199.156 138.742C198.902 139.004 198.616 139.234 198.305 139.424Z" fill="#B5675E"/>
<path d="M198.176 138.01C198.057 138.407 197.281 138.441 196.862 137.938C196.593 137.625 196.474 136.946 196.017 136.789C195.859 136.74 195.704 136.681 195.554 136.611C195.458 136.567 195.365 136.516 195.275 136.461C195.191 136.409 195.111 136.349 195.038 136.282C195.056 136.215 195.069 136.148 195.078 136.079C195.221 135.922 195.335 135.742 195.416 135.547C195.487 135.352 195.509 135.142 195.482 134.937C195.861 134.652 196.264 134.439 196.458 134.624C196.776 134.961 197.025 135.358 197.19 135.791C197.234 135.888 197.278 135.991 197.319 136.104C197.359 136.217 197.435 136.389 197.485 136.536C197.763 137.265 198.226 137.85 198.176 138.01Z" fill="#B5675E"/>
<path d="M199.997 151.059C200.67 150.765 201.518 150.402 202.892 147.97C204.144 145.758 205.815 142.604 205.815 142.604C206.638 141.39 206.196 135.904 205.239 135.51C203.336 136.07 203.127 135.823 201.502 139.284C200.467 141.499 199.074 144.193 199.074 144.193L199.997 151.059Z" fill="#FFBF9D"/>
<path d="M199.09 144.194C199.569 144.673 200.889 146.181 201.052 147.42C201.052 146.532 200.629 145.13 199.309 143.769L199.09 144.194Z" fill="#B5675E"/>
<path d="M205.589 135.272C202.873 135.704 202.503 136.709 201.258 139.525C200.341 141.578 199.678 143.017 199.678 143.017C201.139 143.643 203.12 146.04 203.267 147.314L205.974 142.704C207.081 140.827 206.039 136.014 205.589 135.272Z" fill="#455A64"/>
<path d="M189.166 180.57C189.066 178.148 189.867 163.594 189.867 163.594L182.739 167.227C183.678 176.007 184.382 180.188 184.378 180.898C184.346 181.01 184.331 181.126 184.332 181.243C184.303 182.848 186.187 183.768 187.649 184.879C188.895 185.857 190.221 186.729 191.613 187.485C192.68 188.03 194.871 188.136 195.159 187.485C193.381 186.121 191.319 184.628 189.917 183.104C189.244 182.35 189.235 182.253 189.166 180.57Z" fill="#B5675E"/>
<path d="M198.203 189.293C198.294 189.293 198.413 190.272 197.89 190.67C197.299 191.13 195.572 191.868 193.325 191.527C191.078 191.186 189.883 190.491 188.985 189.747C188.086 189.002 186.857 187.957 185.84 187.713C184.901 187.487 183.878 187.052 183.58 186.774C183.283 186.495 183.355 185.25 183.355 185.25L198.203 189.293Z" fill="black"/>
<path d="M191.385 183.68C191.244 183.539 191.106 183.392 190.972 183.245C190.627 182.85 190.352 182.399 190.158 181.912C190.055 181.709 189.966 181.5 189.889 181.286C189.804 180.973 189.751 180.679 189.682 180.379C189.655 180.232 189.612 180.09 189.554 179.953C189.518 179.86 189.448 179.785 189.357 179.743C189.301 179.734 189.244 179.734 189.188 179.743C188.346 179.792 187.521 180.005 186.76 180.369C186.559 180.466 186.397 180.582 186.39 180.81C186.418 181.071 186.388 181.335 186.303 181.583C186.284 181.629 186.254 181.668 186.215 181.699C186.185 181.716 186.151 181.725 186.117 181.725C186.082 181.725 186.048 181.716 186.018 181.699C185.957 181.666 185.904 181.619 185.865 181.561C185.633 181.248 185.571 180.829 185.308 180.548C185.162 180.397 184.973 180.298 184.766 180.263C184.666 180.244 184.328 180.244 184.303 180.103L184.225 179.449C184.225 179.449 184.019 179.358 183.912 179.762C183.828 180.169 183.786 180.583 183.787 180.998C183.756 181.449 183.706 181.802 183.637 182.25C183.555 182.785 183.48 183.317 183.408 183.852C183.301 184.366 183.266 184.893 183.305 185.417C183.337 185.647 183.456 185.856 183.637 186.002C183.91 186.265 184.228 186.477 184.576 186.628C185.051 186.84 185.546 187.009 186.031 187.2C187.175 187.712 188.237 188.389 189.185 189.209C190.224 190.07 192.436 190.965 193.904 191.027C196.147 191.121 197.746 190.445 198.213 189.691C198.275 189.168 198.328 188.63 198.103 188.249C197.368 186.997 195.637 186.54 194.267 185.811C193.669 185.48 193.093 185.109 192.546 184.7C192.13 184.394 191.742 184.052 191.385 183.68Z" fill="#37474F"/>
<path d="M190.174 186.987C190.214 187.01 190.262 187.018 190.308 187.011C190.354 187.004 190.396 186.981 190.427 186.946C191.382 185.964 193.206 185.344 193.838 185.548C193.838 185.548 193.754 185.254 193.128 185.091C193.128 185.091 191.494 184.975 189.927 186.543C189.904 186.566 189.887 186.594 189.877 186.624C189.868 186.654 189.865 186.687 189.869 186.719C189.874 186.75 189.886 186.781 189.904 186.807C189.922 186.834 189.946 186.856 189.973 186.871L190.174 186.987Z" fill="#FAFAFA"/>
<path d="M192.276 184.481C191.597 184.244 189.989 185.001 189.204 185.805C189.171 185.84 189.128 185.862 189.08 185.867C189.033 185.872 188.986 185.86 188.947 185.833L188.744 185.686C188.718 185.67 188.696 185.648 188.68 185.622C188.664 185.595 188.655 185.566 188.653 185.535C188.651 185.505 188.656 185.474 188.668 185.446C188.68 185.418 188.698 185.393 188.722 185.373C189.166 184.945 190.443 183.846 191.713 183.987C191.713 184.012 192.22 184.234 192.276 184.481Z" fill="#FAFAFA"/>
<path d="M190.972 183.244C190.487 183.147 189.216 183.45 188.171 184.311C188.151 184.327 188.128 184.34 188.103 184.346C188.079 184.353 188.052 184.354 188.027 184.35C188.002 184.345 187.978 184.335 187.956 184.32C187.935 184.306 187.918 184.286 187.905 184.264L187.805 184.082C187.785 184.046 187.778 184.004 187.786 183.964C187.793 183.923 187.814 183.887 187.846 183.86C188.212 183.547 189.426 182.649 190.609 182.771C190.769 182.894 190.895 183.057 190.972 183.244Z" fill="#FAFAFA"/>
<path d="M195.096 186.202C192.317 186.869 191.285 188.684 190.815 190.164C191.784 190.626 192.826 190.913 193.894 191.012C196.138 191.106 197.737 190.43 198.203 189.676C198.266 189.153 198.319 188.615 198.094 188.233C197.502 187.222 196.273 186.728 195.096 186.202Z" fill="#C02FD8"/>
<path d="M195.096 186.202C192.843 186.274 190.793 188.202 190.815 190.164C191.783 190.626 192.826 190.913 193.894 191.012C196.138 191.106 197.737 190.43 198.203 189.676C198.266 189.153 198.319 188.615 198.094 188.233C197.502 187.222 196.272 186.728 195.096 186.202Z" fill="#FAFAFA"/>
<path d="M177.472 170.555L170.698 169.775C170.895 173.315 170.788 178.043 170.735 182.023C170.567 182.895 170.555 183.791 170.701 184.667C170.857 185.428 169.803 190.926 170.181 192.49C170.754 194.872 174.465 194.027 174.593 192.581C174.722 191.135 175.082 188.225 175.473 184.401C175.811 181.15 177.444 170.786 177.472 170.555Z" fill="#B5675E"/>
<path d="M175.504 193.478L173.116 188.533C172.491 188.199 171.721 187.494 171.032 187.908C170.79 188.04 170.566 188.203 170.366 188.393C169.859 188.925 169.831 189.672 169.699 190.348C169.568 191.024 169.098 191.656 169.011 192.354C168.842 193.675 168.811 194.507 169.195 195.709C169.58 196.91 170.76 197.558 171.949 197.871C172.938 198.134 174.177 197.84 174.703 196.989C175.376 195.925 175.495 194.892 175.504 193.478Z" fill="black"/>
<path d="M175.473 193.433C174.534 192.237 170.153 191.915 168.97 193.038C168.97 192.879 168.992 192.704 169.008 192.525C169.155 190.845 169.289 190.557 169.674 189.002C169.888 188.284 170.05 187.552 170.159 186.811C170.237 186.045 170.306 184.464 170.344 183.926C170.343 183.393 170.38 182.861 170.453 182.333C170.488 182.177 170.528 181.992 170.735 182.02C170.735 182.02 170.735 182.286 170.713 182.446C170.691 182.606 170.713 182.759 170.691 182.909C170.669 183.238 170.691 183.535 170.691 183.848C170.686 183.974 170.704 184.1 170.744 184.22C170.754 184.248 170.773 184.271 170.798 184.286C170.895 184.327 170.879 184.108 170.885 184.064L171.01 183.25C171.012 183.208 171.026 183.168 171.051 183.134C171.074 183.109 171.103 183.09 171.136 183.078C171.811 182.793 172.315 182.552 173.013 182.653C173.407 182.7 173.796 182.784 174.174 182.903C174.449 182.99 174.938 183.131 175.113 183.394C175.172 183.522 175.189 183.666 175.16 183.804C175.128 184.17 175.088 184.58 175.047 184.993C175 185.491 175.588 183.813 175.673 182.872C175.939 182.928 175.911 183.216 175.729 184.336C175.491 185.741 175.346 187.161 175.297 188.586C175.259 189.72 175.285 190.856 175.376 191.987C175.413 192.506 175.454 192.982 175.473 193.433Z" fill="#37474F"/>
<path d="M170.441 191.521C171.693 191.314 173.677 191.54 174.587 191.928C174.605 191.936 174.624 191.939 174.644 191.938C174.663 191.936 174.682 191.929 174.698 191.918C174.714 191.907 174.727 191.892 174.736 191.875C174.744 191.857 174.748 191.838 174.747 191.818V191.43C174.747 191.409 174.741 191.388 174.73 191.37C174.719 191.351 174.703 191.337 174.684 191.327C173.349 190.77 171.875 190.638 170.463 190.951C170.439 190.956 170.417 190.969 170.4 190.987C170.383 191.004 170.372 191.027 170.369 191.052L170.316 191.389C170.313 191.407 170.315 191.424 170.32 191.441C170.326 191.458 170.335 191.473 170.347 191.485C170.359 191.498 170.373 191.508 170.39 191.514C170.406 191.52 170.424 191.522 170.441 191.521Z" fill="#FAFAFA"/>
<path d="M170.838 189.594C172.094 189.408 173.376 189.573 174.543 190.069C174.56 190.077 174.579 190.081 174.597 190.08C174.616 190.079 174.634 190.073 174.649 190.063C174.665 190.053 174.678 190.039 174.687 190.023C174.695 190.006 174.7 189.988 174.7 189.969V189.613C174.698 189.593 174.691 189.573 174.679 189.557C174.668 189.541 174.652 189.527 174.634 189.519C174.299 189.372 173.116 188.677 170.854 189.068C170.831 189.072 170.811 189.083 170.794 189.099C170.778 189.116 170.767 189.136 170.763 189.159L170.713 189.472C170.713 189.488 170.716 189.505 170.722 189.52C170.728 189.535 170.737 189.549 170.749 189.56C170.761 189.572 170.775 189.581 170.79 189.586C170.806 189.592 170.822 189.595 170.838 189.594Z" fill="#FAFAFA"/>
<path d="M171.179 187.837C172.352 187.649 173.553 187.803 174.64 188.282C174.657 188.288 174.675 188.291 174.692 188.289C174.71 188.287 174.727 188.281 174.742 188.271C174.756 188.261 174.769 188.248 174.777 188.232C174.786 188.217 174.79 188.199 174.79 188.181V187.834C174.791 187.815 174.786 187.796 174.775 187.779C174.764 187.763 174.749 187.75 174.731 187.743C174.418 187.599 173.317 186.933 171.198 187.327C171.176 187.33 171.155 187.341 171.14 187.356C171.124 187.372 171.114 187.393 171.11 187.415L171.064 187.728C171.063 187.743 171.066 187.758 171.071 187.772C171.077 187.786 171.086 187.798 171.097 187.809C171.108 187.819 171.121 187.827 171.135 187.832C171.149 187.837 171.164 187.839 171.179 187.837Z" fill="#FAFAFA"/>
<path d="M168.979 193.055C168.979 194.241 169.095 195.045 169.743 195.915C170.566 197.029 173.523 198.014 174.75 196.3C175.357 195.449 175.476 194.469 175.507 193.483C174.637 192.247 170.162 191.912 168.979 193.055Z" fill="#FAFAFA"/>
<path d="M171.395 133.383C170.647 141.038 171.001 150.222 170.832 155.147C170.663 160.073 170.097 163.436 170.231 167.179C170.478 173.966 170.701 181.057 170.701 181.057C170.701 181.057 173.539 182.309 175.964 181.454C175.964 181.454 178.251 167.129 178.78 163.167C179.55 157.535 180.764 148.257 180.764 148.257L182.141 158.849C181.83 161.472 181.847 164.123 182.191 166.741C182.535 169.213 184.009 178.588 184.009 178.588C184.009 178.588 187.245 179.996 189.363 177.878C189.363 177.878 190.399 160.323 190.471 158.042C190.571 154.809 190.518 130.389 190.621 128.258L171.395 133.383Z" fill="#C02FD8"/>
<g opacity="0.35">
<path d="M171.395 133.382C170.647 141.037 171.001 150.221 170.832 155.146C170.663 160.072 170.096 163.435 170.231 167.178C170.478 173.965 170.7 181.056 170.7 181.056C170.7 181.056 173.538 182.308 175.964 181.453C175.964 181.453 178.251 167.128 178.78 163.166C179.55 157.534 180.764 148.256 180.764 148.256L182.141 158.848C181.829 161.471 181.846 164.122 182.191 166.74C182.535 169.212 184.009 178.587 184.009 178.587C184.009 178.587 187.244 179.995 189.363 177.877C189.363 177.877 190.399 160.322 190.471 158.041C190.571 154.808 190.518 130.388 190.621 128.257L171.395 133.382Z" fill="black"/>
</g>
<path opacity="0.3" d="M180.777 148.256L181.478 142.583C181.478 142.583 185.267 141.407 186.819 138.812C185.852 141.998 182.357 143.506 182.357 143.506L181.29 149.039L182.153 158.861L180.777 148.256Z" fill="black"/>
<path d="M171.593 108.318C171.593 108.318 170.097 111.779 170.122 114.777C170.144 117.627 171.283 121.73 171.43 126.161C171.537 129.334 171.117 135.576 171.117 135.576C174.34 138.377 187.436 139.579 190.813 135.464C190.813 135.464 190.813 128.611 190.756 123.232C190.719 119.63 190.443 115.393 190.13 113.472C189.379 109.019 188.509 108.553 187.649 107.895C185.968 107.467 184.141 106.957 184.141 106.957C184.141 106.957 182.213 106.359 178.612 106.741C177.879 106.819 176.631 106.825 175.917 107.032C173.949 107.586 171.593 108.318 171.593 108.318Z" fill="#37474F"/>
<path d="M188.715 97.2282C189.535 95.554 188.909 93.2603 188.068 92.1557C186.853 90.5629 184.882 89.8088 181.859 89.862C179.559 89.9027 177.262 90.7538 176.727 93.0851C174.85 93.5545 174.934 96.5898 175.335 97.9448C176.142 100.695 177.866 103.133 177.838 104.516L188.715 97.2282Z" fill="#263238"/>
<path d="M188.187 103.594C187.814 104.898 187.207 105.831 185.996 105.965C185.359 106 184.72 105.975 184.087 105.89L184.059 107.558C184.575 108.904 184.485 110.672 183.846 113.585C182.219 111.151 179.184 109.461 177.782 107.618L177.863 101.985C177.863 101.985 177.084 102.792 175.901 101.944C175.426 101.557 175.099 101.018 174.975 100.418C174.85 99.818 174.937 99.1933 175.219 98.6494C175.879 97.3977 177.068 97.9829 177.41 98.3865C177.751 98.7902 178.154 99.4598 178.483 99.4505C178.987 99.4505 179.131 99.0249 179.268 98.7182C179.585 97.9372 179.756 97.1045 179.772 96.2618C180.138 96.0934 180.469 95.8602 180.752 95.5734C181.261 95.0795 181.582 94.4231 181.659 93.7177C184.309 93.0168 187.292 93.5394 188.346 94.4281C188.922 95.5577 188.844 98.252 188.759 99.729C188.732 101.036 188.539 102.335 188.187 103.594Z" fill="#B5675E"/>
<path d="M184.068 105.873C182.732 105.738 180.072 104.991 179.375 104.211C178.677 103.432 178.458 101.893 178.458 101.893C178.458 101.893 178.477 103.826 178.993 104.709C179.509 105.591 180.795 106.189 181.634 106.436C182.473 106.683 184.037 106.959 184.037 106.959L184.068 105.873Z" fill="#C17560"/>
<path d="M188.662 101.089C188.615 101.734 187.545 101.915 186.159 101.59C185.479 101.442 184.779 101.415 184.09 101.512C183.505 101.571 182.867 101.825 181.878 101.825C181.538 101.833 181.201 101.758 180.897 101.604C180.594 101.451 180.333 101.224 180.138 100.945C179.575 100.154 179.553 98.4418 179.659 97.4092L177.732 98.761C178.007 99.2406 178.202 99.7616 178.311 100.304C178.508 101.242 178.179 102.391 178.696 103.777C179.34 105.498 182.338 106.349 184.732 106.437C186.55 106.503 187.464 105.811 187.974 105.126C188.415 104.531 188.7 102.801 188.662 101.089Z" fill="#263238"/>
<path d="M183.778 102.24L185.104 102.494C185.091 102.582 185.061 102.667 185.015 102.743C184.968 102.82 184.907 102.886 184.835 102.938C184.762 102.99 184.68 103.027 184.593 103.047C184.506 103.067 184.416 103.069 184.328 103.054C184.149 103.016 183.991 102.91 183.889 102.758C183.786 102.607 183.746 102.421 183.778 102.24Z" fill="#9A4A4D"/>
<path d="M183.818 98.5511C183.807 98.6608 183.763 98.7648 183.693 98.8502C183.623 98.9356 183.53 98.9987 183.424 99.0317C183.319 99.0647 183.206 99.0662 183.1 99.036C182.994 99.0058 182.899 98.9452 182.827 98.8617C182.755 98.7782 182.708 98.6755 182.694 98.566C182.679 98.4566 182.697 98.3453 182.745 98.2458C182.792 98.1463 182.868 98.0629 182.963 98.006C183.057 97.949 183.167 97.921 183.277 97.9252C183.354 97.9295 183.429 97.9493 183.499 97.9834C183.568 98.0174 183.63 98.065 183.68 98.1234C183.731 98.1818 183.769 98.2498 183.793 98.3232C183.816 98.3967 183.825 98.4742 183.818 98.5511Z" fill="#263238"/>
<path d="M183.18 95.7167L181.812 96.208C181.75 96.0211 181.762 95.8171 181.846 95.6391C181.931 95.461 182.082 95.3228 182.266 95.2536C182.356 95.2216 182.452 95.2082 182.548 95.2143C182.643 95.2205 182.737 95.246 182.822 95.2893C182.908 95.3326 182.983 95.3928 183.045 95.4663C183.106 95.5398 183.152 95.625 183.18 95.7167Z" fill="#263238"/>
<path d="M188.365 96.3958L186.969 95.9484C186.993 95.8558 187.036 95.7691 187.095 95.6936C187.153 95.6181 187.227 95.5554 187.311 95.5093C187.394 95.4633 187.487 95.4349 187.582 95.426C187.677 95.417 187.773 95.4276 187.864 95.4571C188.053 95.5183 188.211 95.6504 188.304 95.8255C188.397 96.0005 188.419 96.205 188.365 96.3958Z" fill="#263238"/>
<path d="M188.137 98.6615C188.128 98.7722 188.087 98.878 188.019 98.9656C187.95 99.0532 187.858 99.1188 187.752 99.1541C187.647 99.1895 187.533 99.1931 187.426 99.1644C187.319 99.1358 187.222 99.0762 187.148 98.9931C187.075 98.9099 187.027 98.8069 187.011 98.6969C186.996 98.5869 187.013 98.4747 187.06 98.3743C187.108 98.2739 187.184 98.1898 187.279 98.1323C187.374 98.0749 187.484 98.0467 187.595 98.0513C187.748 98.0609 187.89 98.1305 187.992 98.2448C188.093 98.3591 188.145 98.5089 188.137 98.6615Z" fill="#263238"/>
<path d="M180.964 96.5938L176.718 97.9393C177.002 98.05 177.259 98.2195 177.472 98.4369L180.914 97.4199L180.964 96.5938Z" fill="#455A64"/>
<path d="M189.601 96.8404L189.36 96.8028C188.546 96.6617 187.714 96.6617 186.9 96.8028C186.102 97.0219 185.808 97.2816 185.376 97.2722C184.945 97.2628 184.638 96.9749 183.812 96.7089C183.161 96.4962 182.05 96.4868 181.199 96.5494L180.933 96.5713C180.839 96.6012 180.757 96.6618 180.702 96.7435C180.646 96.8253 180.62 96.9233 180.626 97.0219C180.647 97.2132 180.722 97.3946 180.842 97.5444C180.881 97.6084 180.905 97.6799 180.914 97.7541C180.951 98.236 181.027 98.7142 181.139 99.1842C181.212 99.3746 181.318 99.5505 181.452 99.7036C181.502 99.7604 181.556 99.8128 181.615 99.8601L181.709 99.932C181.798 99.9927 181.893 100.043 181.994 100.082L182.041 100.101L182.119 100.126L182.191 100.151C182.276 100.173 182.363 100.19 182.451 100.201H182.56H182.698C183.076 100.247 183.459 100.175 183.794 99.9963C184.13 99.8172 184.403 99.5391 184.575 99.1998C184.888 98.671 184.86 97.9074 185.358 97.9262H185.405H185.448C185.808 98.0232 185.718 98.7179 185.915 99.228C185.987 99.4307 186.093 99.62 186.228 99.7881C186.253 99.8194 186.281 99.8475 186.306 99.8757L186.35 99.9164C186.363 99.9315 186.377 99.9452 186.393 99.9571L186.434 99.9915L186.478 100.026L186.512 100.051L186.537 100.067C186.666 100.149 186.806 100.213 186.954 100.254H186.994C187.164 100.298 187.338 100.323 187.514 100.326C187.843 100.355 188.173 100.279 188.457 100.111C188.742 99.9427 188.966 99.6898 189.1 99.3875C189.271 98.9283 189.406 98.4565 189.504 97.9763C189.523 97.9075 189.559 97.8442 189.607 97.7916C189.742 97.6482 189.833 97.469 189.87 97.2753C189.879 97.1833 189.858 97.0907 189.809 97.0121C189.761 96.9334 189.687 96.873 189.601 96.8404ZM184.303 98.6929C184.227 98.9707 184.081 99.224 183.878 99.4282C183.717 99.5767 183.527 99.6899 183.32 99.7606C183.113 99.8312 182.894 99.8576 182.676 99.8382C182.46 99.8436 182.246 99.7928 182.055 99.6908C181.864 99.5888 181.703 99.439 181.587 99.2561C181.574 99.2381 181.563 99.2193 181.553 99.1998L181.524 99.1466L181.499 99.0965L181.481 99.0496C181.479 99.0371 181.479 99.0245 181.481 99.012C181.479 99.0017 181.479 98.9911 181.481 98.9808L181.462 98.9276C181.443 98.8752 181.428 98.822 181.415 98.768C181.415 98.7367 181.399 98.7054 181.393 98.6741C181.387 98.6428 181.374 98.5646 181.365 98.5208C181.366 98.5114 181.366 98.5019 181.365 98.4926V98.4644C181.305 98.0858 181.258 97.341 181.452 97.1815C181.646 97.0219 182.15 96.8685 182.945 96.9655H183.033C183.152 96.9843 183.274 97.0093 183.392 97.0406L183.533 97.0813C183.651 97.1174 183.767 97.1602 183.881 97.2096L183.987 97.2597L184.103 97.3191H184.125C184.139 97.3256 184.153 97.334 184.165 97.3442C184.255 97.3946 184.333 97.464 184.394 97.5476C184.503 97.7885 184.422 98.2735 184.303 98.6929ZM188.997 98.6741C188.916 98.9682 188.737 99.6129 188.158 99.8569C187.968 99.94 187.762 99.9785 187.554 99.9696C187.325 99.9865 187.095 99.9396 186.89 99.8341C186.685 99.7287 186.513 99.5687 186.393 99.3719L186.375 99.3344C186.366 99.3219 186.358 99.3082 186.353 99.2937V99.2749L186.325 99.2123L186.296 99.1435C186.298 99.1321 186.298 99.1205 186.296 99.109C186.298 99.1029 186.298 99.0965 186.296 99.0903C186.295 99.0799 186.295 99.0694 186.296 99.059V99.0371C186.27 98.9448 186.252 98.8506 186.24 98.7554C186.187 98.3361 186.174 97.8448 186.34 97.6195C186.506 97.3942 187.116 97.1595 187.689 97.1032C187.823 97.1032 187.946 97.1032 188.061 97.1032H188.152H188.277H188.324H188.384H188.484L188.665 97.1439H188.709H188.74H188.784L188.834 97.1627L188.919 97.2002H188.934C189.004 97.2342 189.067 97.2797 189.122 97.3348C189.238 97.5663 189.091 98.3017 188.988 98.6741H188.997Z" fill="#455A64"/>
<path d="M186.976 100.605L184.951 101.018V98.1675C184.981 98.0955 185.033 98.0345 185.099 97.9926C185.165 97.9507 185.242 97.9298 185.32 97.9328H185.37C185.384 97.9299 185.398 97.9299 185.411 97.9328C185.477 97.9486 185.535 97.9888 185.574 98.0455C185.812 98.3419 186.027 98.6557 186.218 98.9842C186.345 99.1846 186.457 99.3937 186.553 99.6101C186.656 99.8197 186.753 100.033 186.835 100.236C186.916 100.439 186.976 100.605 186.976 100.605Z" fill="#C17560"/>
<path d="M183.84 113.568C183.581 113.189 182.526 112.003 181.281 112.316C180.16 112.585 179.456 113.752 179.456 113.752C179.456 113.752 177.954 112.582 176.743 109.957C176.343 109.023 176.07 108.04 175.933 107.034C176.574 106.446 177.185 105.695 177.419 105.56C177.478 105.52 177.545 105.494 177.615 105.486C177.685 105.477 177.757 105.485 177.823 105.51V106.136C178.122 107.283 178.728 108.327 179.575 109.156C181.008 110.629 183.499 111.437 183.84 113.568Z" fill="#263238"/>
<path d="M183.84 113.566C184.047 112.642 184.139 111.696 184.113 110.75C184.063 109.974 184.041 107.974 184.041 107.974L184.066 106.754C184.066 106.754 184.463 106.801 184.861 107.474C185.316 108.182 185.688 108.94 185.971 109.733C186.336 110.642 186.573 111.597 186.676 112.571C185.834 111.589 185.095 112.055 184.748 112.515C184.401 112.975 183.84 113.566 183.84 113.566Z" fill="#263238"/>
<path d="M184.638 103.035C184.623 102.939 184.587 102.848 184.535 102.767C184.482 102.685 184.413 102.616 184.332 102.562C184.252 102.508 184.161 102.472 184.065 102.454C183.97 102.437 183.872 102.44 183.778 102.462C183.797 102.606 183.86 102.74 183.959 102.846C184.058 102.952 184.187 103.025 184.329 103.054C184.432 103.074 184.538 103.067 184.638 103.035Z" fill="#C17560"/>
<path d="M178.749 140.149C178.721 140.018 178.599 139.99 178.48 139.962C178.227 139.902 177.979 139.852 177.729 139.787C177.341 139.664 176.963 139.515 176.596 139.339C176.085 139.148 175.563 138.989 175.032 138.863C174.781 138.781 174.535 138.683 174.296 138.569C173.909 138.412 173.569 138.155 173.314 137.824C173.072 137.517 172.862 137.186 172.688 136.836C172.554 136.571 172.438 136.299 172.341 136.019C170.914 135.954 169.697 136.839 168.692 138.673C168.855 138.951 169.005 139.201 169.136 139.414C170.231 141.176 170.116 142.909 171.852 144.734C173.229 144.535 174.474 143.807 175.323 142.706C175.581 142.351 175.791 141.964 175.949 141.555C175.83 141.398 175.561 141.01 175.989 140.985C176.113 140.978 176.238 140.978 176.362 140.985C176.646 141.01 176.931 141.032 177.213 141.035C177.58 141.078 177.953 141.012 178.283 140.844C178.518 140.703 178.824 140.484 178.749 140.149Z" fill="#B5675E"/>
<path d="M171.865 144.737C173.237 144.535 174.477 143.806 175.323 142.707C175.568 142.369 175.768 142.001 175.917 141.611C175.604 142.191 175.178 142.702 174.666 143.116C173.592 144.055 172.638 144.093 172.071 143.939C171.505 143.786 170.879 143.207 170.507 142.635C170.825 143.414 171.286 144.127 171.865 144.737Z" fill="#C17560"/>
<path d="M171.78 108.26C168.548 109.199 167.628 109.558 166.774 112.124C166.126 114.058 163.864 121.825 163.332 123.984C162.8 126.143 162.765 126.487 163.838 129.401C164.987 132.53 168.698 138.935 168.698 138.935C169.737 137.684 171.167 136.673 172.528 136.485L170.025 126.278L173.311 117.166C173.311 117.166 174.443 111.023 171.78 108.26Z" fill="#263238"/>
<path d="M-3 300H421.5V348.077C421.5 362.946 409.446 375 394.577 375H23.9231C9.05385 375 -3 362.946 -3 348.077V300Z" fill="white"/>
<path d="M38.4 347.5V326.2H47.34C48.3 326.2 49.18 326.4 49.98 326.8C50.78 327.2 51.48 327.73 52.08 328.39C52.68 329.05 53.14 329.79 53.46 330.61C53.78 331.43 53.94 332.27 53.94 333.13C53.94 334.31 53.67 335.44 53.13 336.52C52.61 337.58 51.86 338.44 50.88 339.1C49.92 339.76 48.8 340.09 47.52 340.09H41.76V347.5H38.4ZM41.76 337.12H47.31C47.95 337.12 48.51 336.95 48.99 336.61C49.47 336.25 49.84 335.77 50.1 335.17C50.38 334.57 50.52 333.89 50.52 333.13C50.52 332.35 50.36 331.66 50.04 331.06C49.72 330.46 49.3 330 48.78 329.68C48.28 329.34 47.73 329.17 47.13 329.17H41.76V337.12ZM61.718 326.2H64.898L73.178 347.5H69.638L67.388 341.71H59.168L56.948 347.5H53.378L61.718 326.2ZM66.728 339.22L63.308 329.89L59.768 339.22H66.728ZM75.8121 347.5V326.2H85.0821C86.0421 326.2 86.9221 326.4 87.7221 326.8C88.5221 327.2 89.2121 327.73 89.7921 328.39C90.3921 329.05 90.8521 329.79 91.1721 330.61C91.5121 331.43 91.6821 332.27 91.6821 333.13C91.6821 334.07 91.5121 334.97 91.1721 335.83C90.8321 336.69 90.3421 337.43 89.7021 338.05C89.0821 338.67 88.3521 339.12 87.5121 339.4L92.5221 347.5H88.7421L84.1221 340.09H79.1721V347.5H75.8121ZM79.1721 337.12H85.0521C85.6721 337.12 86.2221 336.94 86.7021 336.58C87.1821 336.22 87.5621 335.74 87.8421 335.14C88.1221 334.52 88.2621 333.85 88.2621 333.13C88.2621 332.39 88.1021 331.73 87.7821 331.15C87.4621 330.55 87.0421 330.07 86.5221 329.71C86.0221 329.35 85.4721 329.17 84.8721 329.17H79.1721V337.12ZM110.256 344.53V347.5H95.6461V326.2H109.986V329.17H99.0061V335.23H108.516V338.02H99.0061V344.53H110.256ZM117.082 332.44V347.5H113.722V326.2H116.482L128.542 341.59V326.23H131.932V347.5H128.992L117.082 332.44ZM152.35 329.17H145.27V347.5H141.88V329.17H134.77V326.2H152.35V329.17Z" fill="#332500"/>
<path d="M368.145 328.397L377.25 337.502L368.145 346.607" stroke="#332500" stroke-width="4.03846" stroke-miterlimit="10" stroke-linecap="round" stroke-linejoin="round"/>
<path d="M351.75 337.502H376.995" stroke="#332500" stroke-width="4.03846" stroke-miterlimit="10" stroke-linecap="round" stroke-linejoin="round"/>
<circle cx="-4.5" cy="18" r="85.5" fill="#C02FD8"/>
</g>
<rect x="0.75" y="0.75" width="418.5" height="373.5" rx="21.75" stroke="#E0E0E0" stroke-width="1.5"/>
<defs>
<clipPath id="clip0_1154_14335">
<rect width="420" height="375" rx="22.5" fill="white"/>
</clipPath>
</defs>
</svg>
