<svg width="24" height="25" viewBox="0 0 24 25" fill="none" xmlns="http://www.w3.org/2000/svg">
<g id="vuesax/outline/add-circle">
<g id="add-circle">
<path id="Vector" d="M12 23.5938C6.07 23.5938 1.25 18.7738 1.25 12.8438C1.25 6.91375 6.07 2.09375 12 2.09375C17.93 2.09375 22.75 6.91375 22.75 12.8438C22.75 18.7738 17.93 23.5938 12 23.5938ZM12 3.59375C6.9 3.59375 2.75 7.74375 2.75 12.8438C2.75 17.9438 6.9 22.0938 12 22.0938C17.1 22.0938 21.25 17.9438 21.25 12.8438C21.25 7.74375 17.1 3.59375 12 3.59375Z" fill="#292D32"/>
<path id="Vector_2" d="M16 13.5938H8C7.59 13.5938 7.25 13.2537 7.25 12.8438C7.25 12.4338 7.59 12.0938 8 12.0938H16C16.41 12.0938 16.75 12.4338 16.75 12.8438C16.75 13.2537 16.41 13.5938 16 13.5938Z" fill="#292D32"/>
<path id="Vector_3" d="M12 17.5938C11.59 17.5938 11.25 17.2537 11.25 16.8438V8.84375C11.25 8.43375 11.59 8.09375 12 8.09375C12.41 8.09375 12.75 8.43375 12.75 8.84375V16.8438C12.75 17.2537 12.41 17.5938 12 17.5938Z" fill="#292D32"/>
</g>
</g>
</svg>
