<svg width="48" height="49" viewBox="0 0 48 49" fill="none" xmlns="http://www.w3.org/2000/svg">
<g id="icomoon-free:quotes-left" clip-path="url(#clip0_1274_1283)">
<path id="Vector" d="M10.548 21.6055C12.6247 21.6055 14.6548 22.2213 16.3815 23.375C18.1082 24.5288 19.454 26.1687 20.2487 28.0873C21.0435 30.0059 21.2514 32.1171 20.8462 34.1539C20.4411 36.1907 19.4411 38.0616 17.9726 39.5301C16.5042 40.9985 14.6332 41.9986 12.5964 42.4037C10.5596 42.8089 8.44845 42.6009 6.52982 41.8062C4.6112 41.0115 2.97132 39.6657 1.81757 37.939C0.663814 36.2122 0.048 34.1822 0.048 32.1055L0 30.6055C0 25.0359 2.21249 19.6945 6.15076 15.7562C10.089 11.818 15.4305 9.60547 21 9.60547V15.6055C19.0293 15.6002 17.0771 15.9856 15.2563 16.7395C13.4355 17.4933 11.7822 18.6007 10.392 19.9975C9.85168 20.5368 9.35324 21.1164 8.901 21.7315C9.438 21.6475 9.987 21.6025 10.545 21.6025L10.548 21.6055ZM37.548 21.6055C39.6247 21.6055 41.6548 22.2213 43.3815 23.375C45.1082 24.5288 46.454 26.1687 47.2487 28.0873C48.0435 30.0059 48.2514 32.1171 47.8462 34.1539C47.4411 36.1907 46.4411 38.0616 44.9726 39.5301C43.5042 40.9985 41.6333 41.9986 39.5965 42.4037C37.5596 42.8089 35.4484 42.6009 33.5298 41.8062C31.6112 41.0115 29.9713 39.6657 28.8176 37.939C27.6638 36.2122 27.048 34.1822 27.048 32.1055L27 30.6055C27 25.0359 29.2125 19.6945 33.1508 15.7562C37.089 11.818 42.4305 9.60547 48 9.60547V15.6055C46.0293 15.6002 44.0771 15.9856 42.2563 16.7395C40.4355 17.4933 38.7822 18.6007 37.392 19.9975C36.8517 20.5368 36.3532 21.1164 35.901 21.7315C36.438 21.6475 36.987 21.6055 37.548 21.6055Z" fill="#2D3557"/>
</g>
<defs>
<clipPath id="clip0_1274_1283">
<rect width="48" height="48" fill="white" transform="translate(0 0.605469)"/>
</clipPath>
</defs>
</svg>
