<svg width="24" height="25" viewBox="0 0 24 25" fill="none" xmlns="http://www.w3.org/2000/svg">
<g id="arrow-right">
<g id="vuesax/outline/arrow-right">
<g id="arrow-right_2">
<path id="Vector" d="M18.5404 15.3236C18.406 15.4579 18.2222 15.5428 18.0101 15.5428C17.5999 15.5428 17.2605 15.2034 17.2605 14.7933L17.2605 6.95852L9.42578 6.95852C9.01565 6.95852 8.67624 6.61911 8.67624 6.20898C8.67624 5.79886 9.01566 5.45945 9.42578 5.45945L18.0101 5.45945C18.4202 5.45945 18.7596 5.79886 18.7596 6.20898L18.7596 14.7933C18.7596 15.0054 18.6747 15.1892 18.5404 15.3236Z" fill="#030D35"/>
<path id="Vector_2" d="M18.4203 6.85824L6.5197 18.7588C6.22979 19.0488 5.74895 19.0488 5.45904 18.7588C5.16913 18.4689 5.16913 17.9881 5.45904 17.6982L17.3596 5.79758C17.6496 5.50767 18.1304 5.50767 18.4203 5.79758C18.7102 6.08749 18.7102 6.56833 18.4203 6.85824Z" fill="#030D35"/>
</g>
</g>
</g>
</svg>
