<svg width="18" height="19" viewBox="0 0 18 19" fill="none" xmlns="http://www.w3.org/2000/svg">
<g id="slack">
<path id="vector" d="M16.2695 8.52615C17.2253 8.52615 18.0001 7.75132 18.0001 6.79553C18.0001 5.83973 17.2252 5.06491 16.2694 5.06491C15.3135 5.06491 14.5385 5.8398 14.5385 6.79568V8.52615H16.2695ZM11.4232 8.52615C12.379 8.52615 13.1539 7.75125 13.1539 6.79538V1.94952C13.1539 0.993642 12.379 0.21875 11.4232 0.21875C10.4673 0.21875 9.69238 0.993642 9.69238 1.94952V6.79538C9.69238 7.75126 10.4673 8.52615 11.4232 8.52615Z" fill="#2EB67D"/>
<path id="vector_2" d="M1.73054 9.91135C0.774749 9.91135 -7.53403e-05 10.6862 -7.53403e-05 11.642C-7.53403e-05 12.5978 0.774824 13.3726 1.73062 13.3726C2.6865 13.3726 3.46146 12.5977 3.46146 11.6418V9.91135H1.73054ZM6.57685 9.91135C5.62097 9.91135 4.84608 10.6862 4.84608 11.6421V16.488C4.84608 17.4439 5.62097 18.2188 6.57685 18.2188C7.53273 18.2188 8.30762 17.4439 8.30762 16.488V11.6421C8.30762 10.6862 7.53273 9.91135 6.57685 9.91135Z" fill="#E01E5A"/>
<path id="vector_3" d="M9.69236 16.4872C9.69236 17.443 10.4672 18.2178 11.423 18.2178C12.3788 18.2178 13.1536 17.4429 13.1536 16.4872C13.1536 15.5313 12.3787 14.7563 11.4228 14.7563L9.69236 14.7563L9.69236 16.4872ZM9.69236 11.6409C9.69236 12.5968 10.4673 13.3717 11.4231 13.3717L16.269 13.3717C17.2249 13.3717 17.9998 12.5968 17.9998 11.6409C17.9998 10.685 17.2249 9.91016 16.269 9.91016L11.4231 9.91016C10.4673 9.91016 9.69236 10.685 9.69236 11.6409Z" fill="#ECB22E"/>
<path id="vector_4" d="M8.30764 1.95027C8.30764 0.994476 7.53282 0.219652 6.57702 0.219652C5.62123 0.219651 4.8464 0.994551 4.8464 1.95035C4.8464 2.90622 5.62129 3.68119 6.57717 3.68119L8.30764 3.68119L8.30764 1.95027ZM8.30764 6.79657C8.30764 5.8407 7.53275 5.06581 6.57687 5.06581L1.73101 5.06581C0.775136 5.0658 0.000244258 5.8407 0.000244216 6.79657C0.000244174 7.75245 0.775136 8.52734 1.73101 8.52734L6.57687 8.52734C7.53275 8.52734 8.30764 7.75245 8.30764 6.79657Z" fill="#36C5F0"/>
</g>
</svg>
