<svg width="16" height="17" viewBox="0 0 16 17" fill="none" xmlns="http://www.w3.org/2000/svg">
<g id="&#240;&#159;&#166;&#134; icon &#34;star 1&#34;">
<path id="Vector" d="M9.38212 1.71589L10.79 4.55485C10.9819 4.95005 11.4939 5.32911 11.9258 5.4017L14.4775 5.82915C16.1094 6.10337 16.4933 7.29702 15.3175 8.47454L13.3337 10.4747C12.9977 10.8135 12.8137 11.4667 12.9177 11.9345L13.4857 14.4105C13.9336 16.3704 12.9017 17.1285 11.1819 16.1042L8.79018 14.6767C8.35823 14.4186 7.64631 14.4186 7.20636 14.6767L4.81461 16.1042C3.1028 17.1285 2.06291 16.3623 2.51086 14.4105L3.0788 11.9345C3.18279 11.4667 2.99881 10.8135 2.66285 10.4747L0.67907 8.47454C-0.488799 7.29702 -0.112841 6.10337 1.51898 5.82915L4.07069 5.4017C4.49464 5.32911 5.00659 4.95005 5.19856 4.55485L6.60643 1.71589C7.37434 0.175432 8.6222 0.175432 9.38212 1.71589Z" fill="#9A4E08"/>
</g>
</svg>
