<svg width="18" height="19" viewBox="0 0 18 19" fill="none" xmlns="http://www.w3.org/2000/svg">
<g id="&#240;&#159;&#166;&#134; icon &#34;star 1&#34;">
<path id="Vector" d="M10.3821 2.71589L11.79 5.55485C11.9819 5.95005 12.4939 6.32911 12.9258 6.4017L15.4775 6.82915C17.1094 7.10337 17.4933 8.29702 16.3175 9.47454L14.3337 11.4747C13.9977 11.8135 13.8137 12.4667 13.9177 12.9345L14.4857 15.4105C14.9336 17.3704 13.9017 18.1285 12.1819 17.1042L9.79018 15.6767C9.35823 15.4186 8.64631 15.4186 8.20636 15.6767L5.81461 17.1042C4.1028 18.1285 3.06291 17.3623 3.51086 15.4105L4.0788 12.9345C4.18279 12.4667 3.99881 11.8135 3.66285 11.4747L1.67907 9.47454C0.511201 8.29702 0.887159 7.10337 2.51898 6.82915L5.07069 6.4017C5.49464 6.32911 6.00659 5.95005 6.19856 5.55485L7.60643 2.71589C8.37434 1.17543 9.6222 1.17543 10.3821 2.71589Z" stroke="#9A4E08" stroke-width="2" stroke-linecap="round" stroke-linejoin="round"/>
</g>
</svg>
