<svg width="24" height="25" viewBox="0 0 24 25" fill="none" xmlns="http://www.w3.org/2000/svg">
<g id="WhatsApp">
<path id="Oval" d="M12 24.7632C18.6274 24.7632 24 19.4077 24 12.8015C24 6.19526 18.6274 0.839844 12 0.839844C5.37258 0.839844 0 6.19526 0 12.8015C0 19.4077 5.37258 24.7632 12 24.7632Z" fill="#25D366"/>
<path id="Logo" fill-rule="evenodd" clip-rule="evenodd" d="M12.3957 19.4572H12.3928C11.1985 19.4568 10.0251 19.1581 8.98287 18.5914L5.2002 19.5805L6.2125 15.8948C5.58806 14.8161 5.25948 13.5925 5.26002 12.3389C5.26159 8.41718 8.4626 5.22656 12.3957 5.22656C14.3045 5.22738 16.0961 5.96812 17.4433 7.31258C18.7905 8.65698 19.532 10.444 19.5313 12.3445C19.5297 16.2653 16.3299 19.4556 12.3957 19.4572ZM9.15813 17.3038L9.3747 17.4319C10.2853 17.9705 11.3291 18.2556 12.3933 18.256H12.3957C15.6646 18.256 18.3252 15.6039 18.3265 12.3441C18.3271 10.7644 17.7108 9.27911 16.591 8.16165C15.4713 7.04418 13.9822 6.42848 12.3981 6.42793C9.12666 6.42793 6.46608 9.07976 6.46478 12.3393C6.46432 13.4564 6.77788 14.5443 7.37156 15.4855L7.51258 15.7092L6.91344 17.8907L9.15813 17.3038ZM15.7464 13.8759C15.8708 13.9358 15.9547 13.9762 15.9906 14.0359C16.0351 14.11 16.0351 14.4658 15.8866 14.881C15.738 15.2962 15.0257 15.6751 14.6831 15.7261C14.376 15.7719 13.9873 15.7909 13.5602 15.6556C13.3012 15.5737 12.9691 15.4644 12.5438 15.2813C10.8723 14.5618 9.7427 12.947 9.52922 12.6418C9.51427 12.6204 9.50381 12.6055 9.49797 12.5977L9.49653 12.5958C9.40218 12.4703 8.76995 11.6295 8.76995 10.7592C8.76995 9.94057 9.17337 9.51148 9.35907 9.31397C9.37179 9.30043 9.38349 9.28799 9.39397 9.27658C9.55739 9.09865 9.75056 9.05417 9.86942 9.05417C9.98826 9.05417 10.1073 9.05526 10.2111 9.06046C10.224 9.06111 10.2373 9.06103 10.2511 9.06095C10.355 9.06034 10.4845 9.05958 10.6123 9.36555C10.6614 9.4833 10.7334 9.65787 10.8093 9.84198C10.9627 10.2143 11.1322 10.6256 11.162 10.6852C11.2066 10.7741 11.2363 10.8779 11.1769 10.9965C11.1679 11.0143 11.1597 11.0311 11.1518 11.0472C11.1072 11.138 11.0743 11.2048 10.9986 11.293C10.9688 11.3277 10.938 11.3651 10.9072 11.4024C10.8459 11.4769 10.7845 11.5513 10.7311 11.6044C10.6419 11.693 10.549 11.7892 10.653 11.9671C10.757 12.145 11.1148 12.727 11.6448 13.1982C12.2146 13.7048 12.7098 13.9189 12.9608 14.0275C13.0098 14.0487 13.0495 14.0658 13.0786 14.0804C13.2569 14.1694 13.3609 14.1545 13.4649 14.0359C13.5689 13.9173 13.9106 13.5169 14.0294 13.339C14.1483 13.1612 14.2672 13.1908 14.4306 13.2501C14.594 13.3094 15.4706 13.7393 15.6489 13.8283C15.6837 13.8457 15.7162 13.8613 15.7464 13.8759Z" fill="#FDFDFD"/>
</g>
</svg>
