<svg width="31" height="31" viewBox="0 0 31 31" fill="none" xmlns="http://www.w3.org/2000/svg">
<g id="Group 431">
<path id="Vector" d="M17.6659 15.0932L14.1121 14.0534C13.7008 13.9349 13.4145 13.5499 13.4145 13.1221C13.4145 12.5858 13.8488 12.1514 14.3852 12.1514H16.5669C16.9683 12.1514 17.3632 12.2732 17.6922 12.4969C17.893 12.6318 18.1628 12.5989 18.3339 12.4311L19.479 11.3123C19.7127 11.0853 19.6798 10.7068 19.4198 10.5061C18.6136 9.87433 17.6067 9.52223 16.5734 9.51894V7.93946C16.5734 7.64989 16.3365 7.41296 16.0469 7.41296H14.994C14.7044 7.41296 14.4675 7.64989 14.4675 7.93946V9.51894H14.3852C12.2891 9.51894 10.6043 11.3189 10.7985 13.4545C10.9367 14.9715 12.095 16.2054 13.556 16.6332L16.9288 17.6204C17.3402 17.7421 17.6264 18.1238 17.6264 18.5516C17.6264 19.088 17.1921 19.5223 16.6557 19.5223H14.474C14.0726 19.5223 13.6777 19.4006 13.3487 19.1768C13.1479 19.0419 12.8781 19.0748 12.707 19.2426L11.5619 20.3614C11.3282 20.5885 11.3611 20.9669 11.6211 21.1676C12.4273 21.7994 13.4342 22.1515 14.4675 22.1548V23.7343C14.4675 24.0239 14.7044 24.2608 14.994 24.2608H16.0469C16.3365 24.2608 16.5734 24.0239 16.5734 23.7343V22.1482C18.1069 22.1186 19.5448 21.2071 20.0516 19.756C20.7591 17.729 19.5712 15.6493 17.6659 15.0932Z" fill="#8E8E8E"/>
<circle id="Ellipse 1156" cx="15.5" cy="15.5" r="14.5" stroke="#8E8E8E" stroke-width="2"/>
</g>
</svg>
