<svg width="24" height="24" viewBox="0 0 24 24" fill="none" xmlns="http://www.w3.org/2000/svg">
<g id="annoncement-megaphone" clip-path="url(#clip0_245_70)">
<g id="annoncement-megaphone_2">
<path id="Vector" d="M12.3125 6.4231L18.9256 17.8772" stroke="white" stroke-linecap="round" stroke-linejoin="round"/>
<path id="Vector_2" d="M18.5785 17.2755L2.27654 21.0608L1.23242 19.2522L12.6616 7.02698" stroke="white" stroke-linecap="round" stroke-linejoin="round"/>
<path id="Vector_3" d="M5.82227 20.2364L6.71992 21.7911C7.04556 22.3492 7.57958 22.7552 8.20451 22.9196C8.82941 23.0838 9.49404 22.9933 10.0522 22.6676C10.6103 22.342 11.0162 21.808 11.1806 21.183C11.345 20.5581 11.2544 19.8935 10.9287 19.3353L10.785 19.0864" stroke="white" stroke-linecap="round" stroke-linejoin="round"/>
<path id="Vector 591" d="M12.7617 3.14907V1.00024" stroke="white" stroke-linecap="round" stroke-linejoin="round"/>
<path id="Vector 602" d="M20.9941 11.3822H23.143" stroke="white" stroke-linecap="round" stroke-linejoin="round"/>
<path id="Vector 603" d="M2.38086 11.3822H4.52968" stroke="white" stroke-linecap="round" stroke-linejoin="round"/>
<path id="Vector 605" d="M5.41992 4.04102L6.93938 5.56047" stroke="white" stroke-linecap="round" stroke-linejoin="round"/>
<path id="Vector 600" d="M18.584 5.56035L20.1034 4.04089" stroke="white" stroke-linecap="round" stroke-linejoin="round"/>
</g>
</g>
<defs>
<clipPath id="clip0_245_70">
<rect width="24" height="24" fill="white"/>
</clipPath>
</defs>
</svg>
