<svg width="25" height="23" viewBox="0 0 25 23" fill="none" xmlns="http://www.w3.org/2000/svg">
<path id="Vector" d="M18.0803 13.2403L18.0803 13.2404C17.7359 13.5655 17.1667 13.3201 17.1667 12.8466V9.72319V9.21982L16.6633 9.2232C15.0797 9.23382 13.699 9.33504 12.5479 9.58265C11.3987 9.82984 10.4397 10.231 9.73723 10.8704C8.28458 12.1926 8.13926 14.3088 9.03598 17.3038C9.05277 17.3598 9.04667 17.399 9.03563 17.4274C9.02313 17.4596 8.9982 17.4923 8.96113 17.5177C8.88706 17.5683 8.80423 17.5692 8.73209 17.5144C7.14045 16.3054 5.70833 13.9855 5.70833 11.6901C5.70833 10.1969 6.0129 9.0389 6.53755 8.13514C7.06115 7.23321 7.82248 6.55245 8.78848 6.04142C10.7438 5.00698 13.5018 4.68541 16.6694 4.66784L17.1667 4.66508V4.16785V1.0422C17.1667 0.568674 17.736 0.323302 18.0803 0.648408L18.0803 0.648431L24.3304 6.55067C24.3304 6.55068 24.3304 6.55068 24.3304 6.55069C24.5565 6.76419 24.5566 7.12456 24.3304 7.33822C24.3304 7.33822 24.3304 7.33823 24.3304 7.33824L18.0803 13.2403ZM16.6667 19.9445H17.1667V19.4445V16.4552C17.1667 16.4505 17.1675 16.4484 17.1681 16.4473C17.1688 16.4457 17.1704 16.4433 17.1731 16.441C17.1759 16.4386 17.1791 16.4369 17.1822 16.436C17.1848 16.4352 17.1885 16.4346 17.1944 16.4354C17.7737 16.5188 18.3645 16.4605 18.9162 16.2653L18.9163 16.2653C18.9222 16.2632 18.925 16.2635 18.9264 16.2638C18.9287 16.2641 18.9322 16.2653 18.9359 16.2679C18.9396 16.2705 18.9417 16.2733 18.9427 16.2751C18.9433 16.2761 18.9444 16.2784 18.9444 16.2845V20.1389C18.9444 21.0134 18.2356 21.7222 17.3611 21.7222H2.08333C1.20887 21.7222 0.5 21.0134 0.5 20.1389V4.86112C0.5 3.98666 1.20887 3.27779 2.08333 3.27779H7.3365C7.34253 3.27779 7.34647 3.27829 7.34861 3.27866L7.35023 3.279C7.35168 3.28089 7.35467 3.28547 7.35663 3.29349C7.35859 3.30147 7.35807 3.30689 7.35766 3.30924L7.35641 3.31028C7.35468 3.3116 7.35142 3.31386 7.34607 3.31665C6.48981 3.76291 5.69404 4.32885 5.00242 5.04892L5.00207 5.04928C5.00017 5.05127 4.99788 5.05285 4.99535 5.05393C4.99283 5.05501 4.9901 5.05556 4.98735 5.05557H2.77778H2.27778V5.55557V19.4445V19.9445H2.77778H16.6667Z" stroke="white"/>
</svg>
