<svg width="24" height="19" viewBox="0 0 24 19" fill="none" xmlns="http://www.w3.org/2000/svg">
<g id="Group">
<path id="Vector" d="M22.7713 2.38436C22.4709 2.02927 22.0503 1.81238 21.5868 1.77367L5.26083 0.410477C4.79726 0.371763 4.34654 0.515888 3.99141 0.816229C3.63773 1.11539 3.42116 1.53391 3.38122 1.99518L3.05276 5.07674H1.74123C0.781121 5.07674 0 5.85786 0 6.81797V17.0377C0 17.9978 0.781121 18.7789 1.74123 18.7789H18.124C19.0842 18.7789 19.8653 17.9978 19.8653 17.0377V15.3799L20.4467 15.4284C20.4957 15.4325 20.5445 15.4345 20.5928 15.4345C21.4879 15.4345 22.251 14.7459 22.3268 13.8381L23.1772 3.65382C23.2158 3.19029 23.0717 2.73949 22.7713 2.38436ZM1.74123 5.98233H18.124C18.5848 5.98233 18.9597 6.35721 18.9597 6.81797V7.7492H0.905595V6.81797C0.905595 6.35721 1.28047 5.98233 1.74123 5.98233ZM0.905595 8.65479H18.9597V10.5334H0.905595V8.65479ZM18.124 17.8733H1.74123C1.28047 17.8733 0.905595 17.4985 0.905595 17.0377V11.439H18.9597V17.0377C18.9597 17.4985 18.5848 17.8733 18.124 17.8733ZM22.2747 3.57843L21.4243 13.7627C21.386 14.2219 20.9811 14.5644 20.522 14.5259L19.8653 14.4711V6.81797C19.8653 5.85786 19.0842 5.07674 18.124 5.07674H3.96352L4.28224 2.08646C4.28261 2.08302 4.28292 2.07963 4.28319 2.07614C4.32155 1.61696 4.72617 1.27446 5.18548 1.31295L21.5115 2.67614C21.7339 2.69471 21.9358 2.7988 22.08 2.96924C22.2241 3.13967 22.2933 3.35597 22.2747 3.57843Z" fill="#FCFCFD"/>
<path id="Vector_2" d="M17.0645 12.7853H12.7067C12.4566 12.7853 12.2539 12.988 12.2539 13.2381V16.0812C12.2539 16.3312 12.4566 16.534 12.7067 16.534H17.0645C17.3146 16.534 17.5173 16.3312 17.5173 16.0812V13.2381C17.5173 12.988 17.3146 12.7853 17.0645 12.7853ZM16.6117 15.6284H13.1595V13.6909H16.6117V15.6284Z" fill="#FCFCFD"/>
</g>
</svg>
