<svg width="40" height="23" viewBox="0 0 40 23" fill="none" xmlns="http://www.w3.org/2000/svg">
<g id="Group">
<g id="Group_2">
<g id="Group_3">
<path id="Vector" d="M20.002 6.92969C14.1861 6.92969 9.45508 11.5424 9.45508 17.2129C9.45508 19.0204 9.94375 20.7979 10.8673 22.3556H29.1366C30.0602 20.7979 30.5488 19.0204 30.5488 17.2129C30.5488 11.5424 25.8178 6.92969 20.002 6.92969ZM20.002 4.64453C20.6497 4.64453 21.1738 4.13349 21.1738 3.50195V1.2168C21.1738 0.585256 20.6497 0.0742188 20.002 0.0742188C19.3542 0.0742188 18.8301 0.585256 18.8301 1.2168V3.50195C18.8301 4.13349 19.3542 4.64453 20.002 4.64453ZM5.93945 16.0703H3.5957C2.94797 16.0703 2.42383 16.5814 2.42383 17.2129C2.42383 17.8444 2.94797 18.3555 3.5957 18.3555H5.93945C6.58719 18.3555 7.11133 17.8444 7.11133 17.2129C7.11133 16.5814 6.58719 16.0703 5.93945 16.0703ZM36.4082 16.0703H34.0645C33.4167 16.0703 32.8926 16.5814 32.8926 17.2129C32.8926 17.8444 33.4167 18.3555 34.0645 18.3555H36.4082C37.0559 18.3555 37.5801 17.8444 37.5801 17.2129C37.5801 16.5814 37.0559 16.0703 36.4082 16.0703ZM35.2249 8.64355C34.8999 8.09573 34.1801 7.90713 33.6239 8.22514L31.5948 9.36772C31.0341 9.68353 30.8418 10.3819 31.1657 10.9287C31.4898 11.4759 32.2079 11.6619 32.7667 11.3471L34.7958 10.2045C35.3565 9.88881 35.5488 9.19032 35.2249 8.64355ZM26.4473 6.32823C27.005 6.64237 27.7236 6.45803 28.0483 5.90982L29.2202 3.93149C29.5441 3.38473 29.3518 2.68623 28.791 2.3705C28.2314 2.05248 27.5138 2.24108 27.19 2.78891L26.0181 4.76724C25.6942 5.31401 25.8865 6.0125 26.4473 6.32823ZM11.9556 5.90982C12.2798 6.45704 12.9978 6.64298 13.5566 6.32823C14.1174 6.01243 14.3097 5.31401 13.9858 4.76724L12.8139 2.78891C12.4877 2.24108 11.7713 2.05248 11.2129 2.3705C10.6521 2.6863 10.4598 3.38473 10.7838 3.93149L11.9556 5.90982ZM8.40906 9.36772L6.38 8.22514C5.81922 7.90713 5.10398 8.09573 4.77898 8.64355C4.45508 9.19032 4.64734 9.88881 5.20813 10.2045L7.23719 11.3471C7.79492 11.6613 8.51352 11.4769 8.8382 10.9287C9.16211 10.3819 8.96984 9.68345 8.40906 9.36772Z" fill="url(#paint0_linear_415_33)"/>
</g>
</g>
<g id="Group_4">
<g id="Group_5">
<path id="Vector_2" d="M38.8281 20.6405H1.17188C0.524141 20.6405 0 21.1515 0 21.7831C0 22.4146 0.524141 22.9257 1.17188 22.9257H38.8281C39.4759 22.9257 40 22.4146 40 21.7831C40 21.1515 39.4759 20.6405 38.8281 20.6405Z" fill="url(#paint1_linear_415_33)"/>
</g>
</g>
</g>
<defs>
<linearGradient id="paint0_linear_415_33" x1="20.002" y1="22.3556" x2="20.002" y2="0.0742188" gradientUnits="userSpaceOnUse">
<stop stop-color="#FD5900"/>
<stop offset="1" stop-color="#FFDE00"/>
</linearGradient>
<linearGradient id="paint1_linear_415_33" x1="20" y1="22.9257" x2="20" y2="20.6405" gradientUnits="userSpaceOnUse">
<stop stop-color="#FFE59A"/>
<stop offset="1" stop-color="#FFFFD5"/>
</linearGradient>
</defs>
</svg>
