<svg width="11" height="9" viewBox="0 0 11 9" fill="none" xmlns="http://www.w3.org/2000/svg">
<g id="Group">
<path id="Vector" d="M9.22361 8.31933H1.49583C0.696974 8.31933 0.046875 7.66923 0.046875 6.87037V2.04051C0.046875 1.24165 0.696974 0.591553 1.49583 0.591553H9.22361C10.0225 0.591553 10.6726 1.24165 10.6726 2.04051V6.87037C10.6726 7.66923 10.0225 8.31933 9.22361 8.31933ZM1.49583 1.55753C1.23019 1.55753 1.01285 1.7739 1.01285 2.04051V6.87037C1.01285 7.13698 1.23019 7.35336 1.49583 7.35336H9.22361C9.48925 7.35336 9.7066 7.13698 9.7066 6.87037V2.04051C9.7066 1.7739 9.48925 1.55753 9.22361 1.55753H1.49583Z" fill="black"/>
</g>
</svg>
