<svg width="21" height="18" viewBox="0 0 21 18" fill="none" xmlns="http://www.w3.org/2000/svg">
<g id="Group">
<path id="Vector" d="M19.2052 17.9925H2.05613C1.22187 17.9925 0.542969 17.3424 0.542969 16.5435C0.542969 16.1195 0.735644 15.7186 1.07257 15.4423C2.6624 14.1556 3.56928 12.2836 3.56928 10.3014V7.36679C3.56928 3.63813 6.73682 0.60498 10.6307 0.60498C14.5245 0.60498 17.6921 3.63813 17.6921 7.36679V10.3014C17.6921 12.2846 18.599 14.1556 20.1807 15.4356C20.5257 15.7186 20.7184 16.1195 20.7184 16.5435C20.7184 17.3424 20.0405 17.9925 19.2052 17.9925ZM10.6307 1.57095C7.29266 1.57095 4.57805 4.17038 4.57805 7.36679V10.3014C4.57805 12.5695 3.54104 14.7091 1.73231 16.1736C1.6163 16.2682 1.55174 16.4025 1.55174 16.5435C1.55174 16.8101 1.7777 17.0265 2.05613 17.0265H19.2052C19.4837 17.0265 19.7096 16.8101 19.7096 16.5435C19.7096 16.4025 19.6451 16.2682 19.5331 16.1765C17.7213 14.7091 16.6833 12.5685 16.6833 10.3014V7.36679C16.6833 4.17038 13.9687 1.57095 10.6307 1.57095Z" fill="#1D2939"/>
</g>
</svg>
