<svg width="21" height="21" viewBox="0 0 21 21" fill="none" xmlns="http://www.w3.org/2000/svg">
<g id="class-lesson--class-lesson-education-teacher">
<path id="Vector" d="M9.54883 1H18.76C19.4452 1 20.0006 1.55543 20.0006 2.24058V12.1479C20.0006 12.833 19.4452 13.3885 18.76 13.3885H11.2302" stroke="black" stroke-linecap="round" stroke-linejoin="round"/>
<path id="Vector_2" d="M4.87097 6.11695C6.28398 6.11695 7.42945 4.97148 7.42945 3.55847C7.42945 2.14547 6.28398 1 4.87097 1C3.45797 1 2.3125 2.14547 2.3125 3.55847C2.3125 4.97148 3.45797 6.11695 4.87097 6.11695Z" stroke="black" stroke-linecap="round" stroke-linejoin="round"/>
<path id="Vector_3" d="M13.4231 8.34788C13.4231 7.51851 12.7508 6.84619 11.9214 6.84619H4.87151C2.73334 6.84619 1 8.57952 1 10.7177V14.1539H2.65921L3.21229 20H6.53072L7.80529 9.84955H11.9214C12.7508 9.84955 13.4231 9.17723 13.4231 8.34788Z" stroke="black" stroke-linecap="round" stroke-linejoin="round"/>
</g>
</svg>
