<svg width="24" height="24" viewBox="0 0 24 24" fill="none" xmlns="http://www.w3.org/2000/svg">
<g id="Student gRADING">
<rect id="Rectangle 736" x="0.498047" y="23.5" width="23" height="23" rx="4.5" transform="rotate(-90 0.498047 23.5)" stroke="white"/>
<path id="Rectangle 737" d="M15.64 23.5C15.014 23.5 14.7951 23.496 14.627 23.4529C14.097 23.3168 13.6832 22.903 13.5471 22.373C13.504 22.2049 13.5 21.986 13.5 21.36V8C13.5 6.067 15.067 4.5 17 4.5C18.933 4.5 20.5 6.067 20.5 8V21.36C20.5 21.986 20.496 22.2049 20.4529 22.373C20.3168 22.903 19.903 23.3168 19.373 23.4529C19.2049 23.496 18.986 23.5 18.36 23.5H15.64Z" stroke="white"/>
<path id="Rectangle 738" d="M5 23.5C4.17157 23.5 3.5 22.8284 3.5 22V12.5C3.5 10.2909 5.29086 8.5 7.5 8.5C9.70914 8.5 11.5 10.2909 11.5 12.5V22C11.5 22.8284 10.8284 23.5 10 23.5H5Z" stroke="white"/>
</g>
</svg>
