<svg width="12" height="15" viewBox="0 0 12 15" fill="none" xmlns="http://www.w3.org/2000/svg">
<path id="Vector" d="M0.80394 8.62236L0.19377 7.87914C-0.06459 7.56445 -0.06459 7.05557 0.19377 6.74423L5.53413 0.236023C5.79249 -0.0786743 6.21026 -0.0786743 6.46587 0.236023L11.8062 6.74088C12.0646 7.05557 12.0646 7.56445 11.8062 7.8758L11.1961 8.61902C10.935 8.93706 10.5089 8.93037 10.2533 8.60562L7.10078 4.57482V14.1965C7.10078 14.6418 6.80669 15 6.44114 15H5.56161C5.19606 15 4.90197 14.6418 4.90197 14.1965V4.57482L1.74668 8.60897C1.49107 8.93706 1.06505 8.94376 0.80394 8.62236Z" fill="#179100"/>
</svg>
